<svg width="80" height="80" viewBox="0 0 80 80" fill="none" xmlns="http://www.w3.org/2000/svg">
<g clip-path="url(#clip0_131_200)">
<path d="M17.5252 17.6793C21.9958 15.0981 26.0464 14.8604 28.9717 16.5603L31.1231 17.8104C34.0142 11.3225 38.8417 5.37218 44.3234 2.20718C48.7956 -0.374845 52.8476 -0.614376 55.7739 1.08625L73.8201 11.5736C73.8107 11.5683 73.8007 11.5637 73.7913 11.5584C76.6966 13.2303 78.5001 16.8054 78.5145 21.8951C78.567 40.4243 50.6109 78.0214 49.1395 80.0002C48.3147 79.8461 39.2033 78.1422 31.3031 73.4458C31.4172 73.5138 31.5311 73.5824 31.6456 73.6489L13.5994 63.1616C7.20521 59.4457 1.50897 53.798 1.48537 45.4619C1.45615 35.2498 8.63818 22.8103 17.5252 17.6793Z" fill="#FE0B37"/>
<path d="M73.8202 11.5739L55.774 1.08656C52.8477 -0.614058 48.7957 -0.374371 44.3235 2.2075C38.7324 5.43546 33.8171 11.5592 30.9479 18.1972L48.9941 28.6843C51.8634 22.0464 56.7788 15.9228 62.3697 12.6947C66.8419 10.1128 70.8941 9.87327 73.8202 11.5739Z" fill="#C0A9F0"/>
<path d="M47.0181 27.0476L28.9719 16.5603C26.0467 14.8604 21.9961 15.0981 17.5253 17.6793L35.5715 28.1666C40.0423 25.5854 44.0929 25.3477 47.0181 27.0476Z" fill="#E7DBFF"/>
<path d="M13.5993 63.1612L31.6457 73.6486C25.2515 69.9326 19.5553 64.285 19.5317 55.9491C19.5028 45.7372 26.6846 33.2977 35.5717 28.1668L17.5254 17.6794C8.63825 22.8104 1.45639 35.2499 1.48545 45.4617C1.50889 53.7977 7.20498 59.4453 13.5993 63.1612Z" fill="#C0A9F0"/>
<path d="M35.5715 28.1667C26.6843 33.2976 19.5025 45.7372 19.5315 55.949C19.584 74.4782 47.6618 79.724 49.1394 80.0001C50.6108 78.0213 78.5672 40.4242 78.5147 21.8952C78.4858 11.6831 71.2569 7.56378 62.3699 12.6947C56.7788 15.9227 51.8635 22.0464 48.9943 28.6844C46.0966 25.3756 41.1626 24.9386 35.5715 28.1667Z" fill="#7421B0"/>
</g>
<defs>
<clipPath id="clip0_131_200">
<rect width="80" height="80" fill="white" transform="matrix(-1 0 0 1 80 0)"/>
</clipPath>
</defs>
</svg>
