<svg width="80" height="80" viewBox="0 0 80 80" fill="none" xmlns="http://www.w3.org/2000/svg">
<g clip-path="url(#clip0_131_167)">
<path d="M80 28.6031L75.0413 25.7403L75.0762 13.4336C75.0761 13.4648 75.0731 13.4958 75.0722 13.527C75.1194 12.1452 74.2087 10.7384 72.3163 9.64687C68.8383 7.73125 63.297 7.76641 59.9111 9.72375C58.178 10.7255 57.312 12.0394 57.3105 13.3548C57.3105 13.3533 57.3103 13.3517 57.3103 13.3502L57.3072 14.4236C57.1992 14.6825 56.9706 14.9227 56.6388 15.1155L39.8695 5.43359L23.2095 15.1156L23.1802 25.4905C22.0125 25.2406 20.9155 24.8459 19.9755 24.3033C18.4747 23.4369 17.6194 22.3389 17.4061 21.2086L17.4095 19.9764C17.4095 19.9803 17.4086 19.9842 17.4086 19.9881C17.4152 19.5906 17.1514 19.2053 16.6603 18.9217L0 28.6034V51.397L16.7045 61.0786C17.178 60.8034 17.443 60.4317 17.4441 60.0469L17.448 58.6767C17.6852 57.5828 18.5263 56.5252 19.9778 55.6862C20.9483 55.1253 22.0964 54.723 23.3253 54.4806L23.2958 64.8841L40.1305 74.5663L56.7261 64.8845C57.0834 65.0909 57.3195 65.3511 57.4198 65.6308L57.417 66.6C57.4133 67.9261 58.2884 69.2542 60.0413 70.2661C63.5761 72.3069 69.3202 72.277 72.7666 70.177C74.3783 69.1955 75.1831 67.9267 75.1866 66.655L75.222 54.1358L80 51.3966V28.6031Z" fill="#C0A9F0"/>
<path d="M57.3781 14.0829L57.3134 36.8765C57.3136 36.8233 57.3087 36.77 57.2987 36.7165C57.2626 36.5262 57.245 36.3348 57.2454 36.1436L57.3101 13.35C57.3096 13.5412 57.3273 13.7325 57.3634 13.9229C57.3734 13.9762 57.3782 14.0297 57.3781 14.0829Z" fill="#7421B0"/>
<path d="M75.0762 13.4335L75.0115 36.2271C75.0078 37.533 74.1472 38.8235 72.4459 39.8122C70.4808 40.9543 67.8151 41.4475 65.2401 41.2924C64.472 41.2455 63.7086 41.3985 63.165 41.7144L63.2297 18.9208C63.7733 18.6049 64.5367 18.4518 65.3048 18.4988C67.8797 18.6539 70.5453 18.1607 72.5106 17.0186C74.212 16.0299 75.0726 14.7394 75.0762 13.4335Z" fill="#7421B0"/>
<path d="M17.4095 19.9762L17.3448 42.7698C17.3447 42.8192 17.3405 42.8684 17.3319 42.9179C17.3023 43.0879 17.2873 43.2587 17.2869 43.4295L17.3516 20.6359C17.352 20.4651 17.367 20.2943 17.3966 20.1243C17.405 20.0749 17.4094 20.0254 17.4095 19.9762Z" fill="#7421B0"/>
<path d="M35.123 20.6881L35.0583 43.4817C35.0621 42.155 34.1942 40.8269 32.4641 39.8222C30.4633 38.6669 27.7841 38.1741 25.2044 38.3328C24.4439 38.3797 23.6877 38.2225 23.145 37.9091L23.2097 15.1155C23.7524 15.4288 24.5086 15.5859 25.2691 15.5392C27.8488 15.3803 30.528 15.8734 32.5288 17.0286C34.2589 18.0333 35.1267 19.3614 35.123 20.6881Z" fill="#C0A9F0"/>
<path d="M17.3759 59.3132L17.4406 36.5196C17.4444 35.2058 18.3106 33.8938 20.0423 32.8928C23.4275 30.936 28.9686 30.9008 32.6011 32.9036L32.5364 55.6972C28.9039 53.6946 23.3628 53.7297 19.9776 55.6864C18.2461 56.6874 17.3797 57.9994 17.3759 59.3132Z" fill="#7421B0"/>
<path d="M35.2256 36.5708L35.1609 59.3644C35.1647 58.0377 34.2892 56.7091 32.5363 55.6969L32.6009 32.9033C34.3539 33.9155 35.2294 35.2441 35.2256 36.5708Z" fill="#7421B0"/>
<path d="M80 28.6031V51.3966L63.2753 61.0785L63.3398 38.2849L80 28.6031Z" fill="#7421B0"/>
<path d="M17.5087 37.2534L17.4441 60.047C17.443 60.4318 17.178 60.8036 16.7045 61.0787L16.7692 38.2851C17.2427 38.01 17.5077 37.6381 17.5087 37.2534Z" fill="#7421B0"/>
<path d="M16.7692 38.285L16.7045 61.0787L0 51.3968V28.6034L16.7692 38.285Z" fill="#C0A9F0"/>
<path d="M57.5399 43.1456L57.4752 65.9392C57.4763 65.5458 57.2122 65.1651 56.726 64.8845L56.7906 42.0909C57.2769 42.3716 57.541 42.7522 57.5399 43.1456Z" fill="#7421B0"/>
<path d="M75.2513 43.8612L75.1866 66.6548C75.183 67.9266 74.3783 69.1953 72.7664 70.1769C69.3199 72.277 63.5759 72.307 60.0411 70.2661C58.2883 69.2542 57.4131 67.9258 57.4169 66.6L57.4816 43.8064C57.4778 45.1325 58.353 46.4606 60.1058 47.4725C63.6406 49.5133 69.3847 49.4834 72.8311 47.3834C74.443 46.4014 75.2477 45.1326 75.2513 43.8612Z" fill="#C0A9F0"/>
<path d="M56.7905 42.0909L56.726 64.8844L40.1305 74.5663V51.7727L56.7905 42.0909Z" fill="#7421B0"/>
<path d="M72.3163 9.64677C75.9534 11.7447 75.9728 15.0068 72.5108 17.0186C70.5456 18.1607 67.88 18.654 65.305 18.4988C64.5369 18.4519 63.7734 18.6049 63.2298 18.9208L80 28.6032L63.3398 38.2849C63.8825 38.5982 64.6387 38.7554 65.3992 38.7086C67.9791 38.5497 70.658 39.0427 72.6417 40.188C76.0484 42.1663 76.128 45.3755 72.8311 47.3833C69.3845 49.4835 63.6406 49.5135 60.1058 47.4724C58.1269 46.3299 57.2666 44.7843 57.527 43.2938C57.6038 42.8491 57.3378 42.4068 56.7908 42.0908L40.1306 51.7725L23.3606 42.0904C23.9044 41.7744 24.6677 41.6213 25.4358 41.6683C28.0106 41.8235 30.6763 41.3302 32.6416 40.1882C36.1031 38.1766 36.0853 34.9147 32.6014 32.9033C28.9689 30.9007 23.4278 30.9358 20.0427 32.8925C18.0588 34.0393 17.2106 35.5941 17.4941 37.0922C17.5775 37.5329 17.3086 37.9715 16.7695 38.2849L0 28.6035L16.6602 18.9218C17.2072 19.2377 17.4733 19.6797 17.3964 20.1247C17.137 21.6157 17.9963 23.1608 19.9753 24.3033C23.5102 26.3441 29.2542 26.3143 32.7006 24.2141C35.9975 22.2063 35.918 18.9969 32.5286 17.0288C30.5278 15.8735 27.8486 15.3807 25.2689 15.5394C24.5084 15.5863 23.7522 15.4291 23.2095 15.1157L39.8697 5.43396L56.6388 15.1157C57.178 14.8024 57.4459 14.3643 57.3633 13.923C57.0798 12.4249 57.928 10.8699 59.9111 9.7238C63.2972 7.7663 68.8381 7.73115 72.3163 9.64677Z" fill="#E7DBFF"/>
<path d="M40.1305 51.7726V74.5662L23.2958 64.8841L23.3603 42.0905L40.1305 51.7726Z" fill="#C0A9F0"/>
</g>
<defs>
<clipPath id="clip0_131_167">
<rect width="80" height="80" fill="white"/>
</clipPath>
</defs>
</svg>
