<svg width="80" height="80" viewBox="0 0 80 80" fill="none" xmlns="http://www.w3.org/2000/svg">
<path d="M63.8983 41.203L14.671 12.7429C14.5087 12.6342 14.3408 12.5366 14.1669 12.4518L14.1364 12.4334L14.1351 12.4365C12.6471 11.7193 10.766 11.8615 8.71765 13.0444C3.9032 15.8239 0 23.2818 0 29.7015C0 33.2983 1.22559 35.805 3.15002 36.8268L52.9944 65.6048C54.5496 66.6174 56.6254 66.5863 58.9069 65.2697C63.728 62.4859 67.6361 55.0189 67.6361 48.5913C67.6355 44.6386 66.1572 42.0031 63.8983 41.203Z" fill="#7421B0"/>
<path d="M53.2056 65.7353L10.4535 41.0436C8.52905 40.0224 7.33398 37.4492 7.33398 33.8524C7.33398 27.4327 11.2366 19.9748 16.0516 17.1953C17.8821 16.1388 19.5782 15.9148 20.9802 16.3902L63.9319 41.2224L53.2056 65.7353Z" fill="#E7DBFF"/>
<path d="M50.1776 58.6708C50.1776 65.0984 54.0857 68.0531 58.9069 65.2699C63.7274 62.4861 67.6355 55.019 67.6355 48.5914C67.6355 42.1632 63.7274 39.2091 58.9069 41.9923C54.0857 44.7755 50.1776 52.2425 50.1776 58.6708Z" fill="#C0A9F0"/>
<path d="M40.8698 58.6109C40.2454 57.2241 40.2454 55.755 40.2454 54.6765C40.2454 47.1503 44.7583 38.6493 50.52 35.3229C51.0889 34.9951 51.6504 34.7052 52.2058 34.4434L58.4692 38.064C56.7255 38.2031 48.2324 44.5068 46.4722 54.6765C46.0718 56.9904 46.2848 60.0067 47.63 62.5153L40.8698 58.6109Z" fill="#E7DBFF"/>
<path d="M11.8115 41.799C11.1871 40.4116 11.1871 38.9431 11.1871 37.8646C11.1871 30.3384 15.7001 21.8374 21.4612 18.511C22.03 18.1826 22.5922 17.8927 23.1476 17.6309L29.411 21.2521C27.6666 21.3912 19.1736 27.6943 17.4133 37.8646C17.0129 40.1785 17.2266 43.1942 18.5712 45.7034L11.8115 41.799Z" fill="#E7DBFF"/>
<path d="M52.744 59.0239C52.744 53.33 56.2059 46.715 60.4766 44.2492C62.9686 42.8106 65.1836 43.1048 66.5978 44.7289C66.5978 44.7283 66.5996 44.7271 66.5996 44.7271L66.6362 44.7722C66.66 44.7997 66.6832 44.8278 66.7064 44.8565L79.1295 60.5663C80.0731 61.7968 80.2648 63.4459 79.6294 64.8601C78.9196 66.4403 77.271 67.3821 75.5492 67.1917L57.3467 65.797V65.7946C54.6355 65.7567 52.744 63.2323 52.744 59.0239Z" fill="#7421B0"/>
</svg>
