<svg width="80" height="80" viewBox="0 0 80 80" fill="none" xmlns="http://www.w3.org/2000/svg">
<path d="M31.8314 0L47.9272 9.35391C48.9822 10.2606 69.0269 27.487 69.0647 40.8305C69.1025 54.1672 59.7256 70.4155 48.1191 77.1164C42.108 80.5869 36.6838 80.8108 32.84 78.3761C32.9477 78.4442 33.0524 78.5175 33.1625 78.5817L17.0667 69.2277C13.293 67.0347 10.9536 62.3713 10.935 55.7448C10.8974 42.4017 30.7847 2.12016 31.8314 0Z" fill="#7421B0"/>
<path d="M47.9272 9.35352C46.8805 11.4737 26.9931 51.7551 27.0309 65.0984C27.0687 78.4351 36.5069 83.8204 48.1194 77.1159C59.7258 70.4149 69.1026 54.1667 69.0648 40.8299C69.0269 27.4868 48.9822 10.2601 47.9272 9.35352Z" fill="#E7DBFF"/>
</svg>
