<svg width="80" height="80" viewBox="0 0 80 80" fill="none" xmlns="http://www.w3.org/2000/svg">
<g clip-path="url(#clip0_131_154)">
<path d="M65.2655 13.7164L58.2099 5.34299C57.9804 5.07077 57.7204 4.85593 57.4384 4.69174L57.4396 4.6893L50.0391 0.368622C49.0619 -0.199005 47.8028 -0.114776 46.4832 0.646943L19.018 16.5039C16.0224 18.2336 13.5938 22.8735 13.5938 26.8676V70.9259C13.5938 73.1677 14.3592 74.729 15.5597 75.3625L22.7704 79.5758L22.7747 79.5782L22.8705 79.6344C23.8214 80.1831 25.0611 80.1324 26.4173 79.3493L60.9381 59.4183C63.9337 57.6892 66.3623 53.0487 66.3623 49.0551V17.4438C66.3623 15.8697 65.9772 14.5611 65.2655 13.7164Z" fill="#551981"/>
<path d="M62.5004 59.8749L27.4996 79.3638C24.4624 81.0546 22 79.2593 22 75.3538V32.2735C22 28.3674 24.4624 23.831 27.4996 22.1396L55.3466 6.63447C57.0707 5.6748 58.6945 5.80968 59.7342 6.99912L66.888 15.1868C67.6095 16.0128 68 17.2923 68 18.8315V49.7416C68 53.6465 65.5376 58.1841 62.5004 59.8749Z" fill="#7421B0"/>
<path d="M31 20.6652V39.146C31 41.621 33.6788 43.1676 35.8218 41.9304L51.6421 32.7965C53.4548 31.7497 54.5712 29.8155 54.5712 27.7227V7L31 20.6652Z" fill="#E7DBFF"/>
<path d="M54.5 7L44.9481 1.5332L21.3281 15.1703L30.9288 20.6652L42.7144 13.8326L54.5 7Z" fill="#C0A9F0"/>
<path d="M32.8906 22.3273V35.6183L40.9058 30.9906V17.6996L32.8906 22.3273Z" fill="#7421B0"/>
<path d="M31.5442 49.9945L55.9442 35.907C57.1521 35.21 58.6615 36.0816 58.6615 37.4762V51.5137C58.6615 53.504 57.5995 55.3436 55.8759 56.3385L31.4758 70.426C30.2679 71.1231 28.7585 70.2515 28.7585 68.8574V54.8194C28.7585 52.829 29.8206 50.99 31.5442 49.9945Z" fill="#E7DBFF"/>
<path d="M53.9936 44.8847L33.3618 56.8665C32.6239 57.2925 32.0258 56.8403 32.0258 55.8564C32.0258 54.8719 32.6239 53.7293 33.3618 53.3033L53.9936 41.3215C54.7315 40.8954 55.3302 41.3477 55.3302 42.3316C55.3302 43.3155 54.7315 44.4587 53.9936 44.8847Z" fill="#7421B0"/>
<path d="M53.9936 52.8174L33.3618 64.7992C32.6239 65.2253 32.0258 64.773 32.0258 63.7891C32.0258 62.8052 32.6239 61.662 33.3618 61.236L53.9936 49.2542C54.7315 48.8282 55.3302 49.2804 55.3302 50.2643C55.3302 51.2482 54.7315 52.3914 53.9936 52.8174Z" fill="#7421B0"/>
</g>
<defs>
<clipPath id="clip0_131_154">
<rect width="80" height="80" fill="white"/>
</clipPath>
</defs>
</svg>
