<svg width="80" height="80" viewBox="0 0 80 80" fill="none" xmlns="http://www.w3.org/2000/svg">
<g clip-path="url(#clip0_131_714)">
<path d="M56.955 0L73.525 9.62937V50.8553L51.3428 63.6622L48.2982 70.027L44.3214 67.7161L23.045 80L6.47496 70.3706V29.1447L56.955 0Z" fill="#58948E"/>
<path d="M45.2277 67.1928L28.6577 57.5635L31.7283 60.3975L48.2983 70.0271L45.2277 67.1928Z" fill="#58948E"/>
<path d="M23.045 38.7744L6.47498 29.145V70.371L23.045 80.0003V38.7744Z" fill="#7421B0"/>
<path d="M73.525 9.62937L56.955 0L6.47496 29.1447L23.045 38.7741L73.525 9.62937Z" fill="#C0A9F0"/>
<path d="M23.045 38.7741V80L45.2276 67.1928L48.2982 70.0271L51.3428 63.6622L73.525 50.8553V9.62939L23.045 38.7741Z" fill="#E7DBFF"/>
<path d="M64.6053 30.1811C65.8397 29.4683 66.9583 29.4022 67.766 29.8716L71.1742 31.835C71.1716 31.8336 71.1689 31.8324 71.1663 31.8308C71.968 32.2922 72.4656 33.2788 72.4697 34.6833C72.4777 37.502 70.4956 40.9352 68.0425 42.3516C66.773 43.0845 65.6272 43.132 64.8149 42.6178C64.8374 42.6322 64.8594 42.6475 64.8825 42.661L61.4742 40.6975C60.6769 40.2342 60.1825 39.2489 60.1786 37.8486C60.1706 35.0302 62.1527 31.5972 64.6053 30.1811Z" fill="#E0E0E2"/>
<path d="M49.3066 39.0141C50.5409 38.3013 51.6595 38.2352 52.4672 38.7046L55.8755 40.668C55.8728 40.6666 55.8703 40.6654 55.8677 40.664C56.6694 41.1254 57.167 42.1119 57.1709 43.5165C57.1789 46.3352 55.1969 49.7683 52.7436 51.1847C51.4736 51.918 50.327 51.9655 49.5148 51.4507C49.5377 51.4652 49.5597 51.4807 49.5831 51.4943L46.1748 49.5308C45.3777 49.0676 44.8833 48.0822 44.8792 46.6819C44.8714 43.8635 46.8534 40.4304 49.3066 39.0141Z" fill="#E0E0E2"/>
<path d="M34.0072 47.8471C35.2416 47.1343 36.3602 47.0682 37.1678 47.5376L40.5761 49.501C40.5734 49.4996 40.5708 49.4984 40.5683 49.4968C41.37 49.9582 41.8677 50.9448 41.8716 52.3493C41.8795 55.1681 39.8975 58.6012 37.4444 60.0176C36.1748 60.7507 35.0287 60.7981 34.2164 60.2837C34.2391 60.2981 34.2611 60.3134 34.2844 60.327L30.8761 58.3635C30.0787 57.9003 29.5844 56.9149 29.5805 55.5146C29.5725 52.6963 31.5547 49.2631 34.0072 47.8471Z" fill="#E0E0E2"/>
<path d="M68.0138 32.1444C65.561 33.5604 63.5789 36.9936 63.5871 39.8119C63.595 42.6307 65.59 43.7677 68.0427 42.3514C70.4958 40.9352 72.4779 37.5021 72.4699 34.6832C72.4619 31.8651 70.4669 30.7282 68.0138 32.1444Z" fill="#F9F7FF"/>
<path d="M52.715 40.977C50.2619 42.3933 48.2799 45.8264 48.2877 48.6448C48.2956 51.4636 50.2906 52.6006 52.7438 51.1842C55.1969 49.768 57.1789 46.3348 57.1711 43.5159C57.1632 40.6976 55.168 39.5606 52.715 40.977Z" fill="#F9F7FF"/>
<path d="M64.6053 30.1811C65.8397 29.4683 66.9583 29.4022 67.7659 29.8716L71.1742 31.835C70.3665 31.3656 69.2481 31.4317 68.0136 32.1445C65.5608 33.5605 63.5787 36.9938 63.5869 39.812C63.5908 41.2125 64.0853 42.1977 64.8825 42.661L61.4742 40.6975C60.6769 40.2342 60.1825 39.2489 60.1786 37.8486C60.1706 35.0302 62.1526 31.5972 64.6053 30.1811Z" fill="#C0A9F0"/>
<path d="M49.3065 39.0141C50.5409 38.3013 51.6595 38.2352 52.4671 38.7046L55.8754 40.668C55.0678 40.1986 53.9493 40.2647 52.7148 40.9776C50.2617 42.3938 48.2796 45.8269 48.2875 48.6454C48.2914 50.0457 48.7857 51.031 49.5831 51.4943L46.1748 49.5308C45.3776 49.0676 44.8832 48.0822 44.8792 46.6819C44.8714 43.8635 46.8534 40.4304 49.3065 39.0141Z" fill="#C0A9F0"/>
<path d="M34.0071 47.8471C35.2415 47.1343 36.3601 47.0682 37.1678 47.5376L40.576 49.501C39.7684 49.0317 38.65 49.0978 37.4154 49.8106C34.9626 51.2265 32.9806 54.6596 32.9887 57.4781C32.9926 58.8785 33.4871 59.8637 34.2843 60.327L30.876 58.3635C30.0787 57.9003 29.5843 56.9149 29.5804 55.5146C29.5724 52.6963 31.5546 49.2631 34.0071 47.8471Z" fill="#C0A9F0"/>
<path d="M37.4157 49.8105C34.9629 51.2265 32.9808 54.6596 32.989 57.478C32.9969 60.2968 34.9919 61.4338 37.4446 60.0176C39.8977 58.6013 41.8797 55.1682 41.8719 52.3493C41.864 49.531 39.8688 48.3941 37.4157 49.8105Z" fill="#F9F7FF"/>
</g>
<defs>
<clipPath id="clip0_131_714">
<rect width="80" height="80" fill="white" transform="matrix(-1 0 0 1 80 0)"/>
</clipPath>
</defs>
</svg>
