<svg width="80" height="80" viewBox="0 0 80 80" fill="none" xmlns="http://www.w3.org/2000/svg">
<path d="M63.2959 55.1474L61.5094 39.8648C61.46 39.4394 61.2903 39.1727 61.0596 39.0512L61.0608 39.0488L55.0232 35.593C55.0079 35.5832 54.9921 35.5747 54.9762 35.5661L54.9432 35.5472L54.9414 35.5508C54.4586 35.3348 53.7305 35.7291 53.2349 36.6769L51.1444 40.6705C51.0638 40.6155 50.9802 40.5679 50.8948 40.527L44.9457 37.1115L44.9463 37.1127C43.4351 36.2399 41.1481 37.6437 39.7125 40.3861C38.2111 43.2553 38.2111 46.5018 39.7125 47.637L45.2911 51.8546L42.7856 56.6415C42.1667 57.8238 42.3468 59.0286 43.017 59.1928L48.9008 62.59C49.0814 62.7109 49.3158 62.7365 49.5947 62.6297L61.8298 57.9477C62.6862 57.6205 63.421 56.2167 63.2959 55.1474Z" fill="#551981"/>
<path d="M49.5947 62.6304L61.8304 57.9484C62.6862 57.6206 63.421 56.2168 63.2959 55.1475L61.5094 39.8649C61.3556 38.5508 60.0684 38.7248 59.3164 40.1615L56.8109 44.9485L51.2329 40.7316C49.7308 39.5964 47.2961 41.002 45.7947 43.8713C44.2926 46.7405 44.2926 49.987 45.7947 51.1222L51.3727 55.3391L48.8672 60.1261C48.1158 61.5629 48.5425 63.0326 49.5947 62.6304Z" fill="#C0A9F0"/>
<path d="M40.1593 32.3604L34.5813 28.1435L37.0868 23.3565C37.6477 22.2842 37.5519 21.1935 37.03 20.8767L37.027 20.8749C37.0233 20.8724 37.0196 20.8706 37.0166 20.8688L30.9503 17.394C30.943 17.3891 30.9344 17.3843 30.9265 17.38L30.9082 17.3696V17.3708C30.7373 17.2829 30.5249 17.2732 30.2777 17.3678L18.042 22.0504C17.1863 22.3775 16.4514 23.782 16.5765 24.8507L18.363 40.1333C18.4155 40.5813 18.6011 40.8523 18.8507 40.9634L18.8489 40.967L24.8364 44.399L24.8383 44.3966C25.3162 44.7146 26.109 44.3319 26.6376 43.3211L28.7274 39.3282C28.7689 39.3557 28.8104 39.3813 28.8531 39.4057L34.8633 42.8493C34.8755 42.8573 34.8883 42.8634 34.9005 42.8707L34.9853 42.9189H34.9847C36.496 43.7221 38.7427 42.3189 40.1599 39.6114C41.6614 36.7422 41.6614 33.4957 40.1593 32.3604Z" fill="#551981"/>
<path d="M62.8564 3.56929L62.8571 3.56746L56.8024 0.0982223L56.8005 0.101274C56.5283 -0.0702348 56.153 -0.0323929 55.7489 0.280107L43.5132 9.72652C42.4609 10.5383 42.0343 12.5018 42.7863 13.07L45.2911 14.9639L39.7131 25.6225C38.2117 28.4918 38.2117 31.7382 39.7131 32.8735C39.8492 32.9766 39.9933 33.0578 40.144 33.1201L45.9357 36.455C45.9485 36.463 45.9613 36.4697 45.9741 36.477L45.976 36.4782C47.486 37.3791 49.79 35.9747 51.2329 33.2177L56.8109 22.5598L59.3164 24.4537C60.0684 25.0219 61.3556 23.7091 61.5094 22.2174L63.2959 4.87239C63.3643 4.21321 63.1775 3.75057 62.8564 3.56929Z" fill="#551981"/>
<path d="M40.1595 47.1247C40.0924 47.074 40.0228 47.0301 39.9526 46.9892L39.9532 46.988L33.9492 43.5517C33.893 43.5157 33.8363 43.4827 33.7777 43.4534L33.7765 43.4528C32.2664 42.6929 30.0454 44.0961 28.6403 46.7805L23.0617 57.439L20.5569 55.5451C19.8049 54.9763 18.5171 56.2891 18.3632 57.7808L16.5768 75.1264C16.509 75.7856 16.6958 76.2482 17.0168 76.4295L17.0162 76.4314L23.1191 79.9274V79.9262C23.3871 80.0648 23.7435 80.0129 24.1244 79.7187L36.3595 70.2723C37.4117 69.4599 37.839 67.4964 37.087 66.9282L34.5815 65.0343L40.1595 54.3763C41.6616 51.5064 41.6616 48.26 40.1595 47.1247Z" fill="#551981"/>
<path d="M36.3593 20.8521L24.1235 25.5341C23.2678 25.8618 22.533 27.2656 22.6581 28.335L24.4446 43.617C24.5984 44.9317 25.8856 44.7571 26.6376 43.3209L29.1431 38.5339L34.7211 42.7509C36.2231 43.8861 38.6578 42.4805 40.1593 39.6112C41.6614 36.742 41.6614 33.4955 40.1593 32.3602L34.5813 28.1433L37.0868 23.3563C37.8387 21.9196 37.4115 20.4498 36.3593 20.8521Z" fill="#C0A9F0"/>
<path d="M61.5094 22.2181L63.2965 4.87249C63.421 3.65912 62.6862 3.10308 61.8304 3.7641L49.5953 13.2105C48.5431 14.0229 48.1158 15.9864 48.8678 16.5546L51.3733 18.4485L45.7947 29.1071C44.2932 31.9764 44.2932 35.2222 45.7947 36.3575C47.2968 37.4933 49.7314 36.0871 51.2329 33.2178L56.8115 22.5599L59.317 24.4538C60.0684 25.022 61.3556 23.7092 61.5094 22.2181Z" fill="#C0A9F0"/>
<path d="M24.4446 61.2643L22.6581 78.6099C22.533 79.8233 23.2678 80.3787 24.1235 79.7177L36.3593 70.2713C37.4115 69.4595 37.8387 67.496 37.0862 66.9278L34.5813 65.0339L40.1593 54.3753C41.6614 51.506 41.6614 48.2596 40.1593 47.1243C38.6578 45.9891 36.2231 47.3947 34.7211 50.264L29.1431 60.9225L26.6376 59.0286C25.8856 58.4604 24.5984 59.7726 24.4446 61.2643Z" fill="#C0A9F0"/>
</svg>
