<svg width="141" height="22" viewBox="0 0 141 22" fill="none" xmlns="http://www.w3.org/2000/svg">
<g clip-path="url(#clip0_301_439)">
<path d="M33.2563 8.9646C33.2693 9.50967 33.1566 10.0502 32.9273 10.543C32.714 10.9834 32.3979 11.3639 32.0067 11.651C31.5798 11.956 31.0999 12.1754 30.5925 12.2977C30.0084 12.4434 29.4088 12.5145 28.8074 12.5093C28.2532 12.5104 27.6995 12.4765 27.1494 12.4079C26.6119 12.3401 26.0809 12.2266 25.562 12.0684V10.011C25.8174 10.1021 26.083 10.1873 26.3615 10.2667C26.64 10.346 26.9185 10.4136 27.1999 10.4739C27.4813 10.5341 27.7598 10.5797 28.0368 10.6208C28.305 10.6538 28.5748 10.6705 28.8449 10.6708C29.1786 10.6768 29.5119 10.6427 29.8378 10.5694C30.0744 10.5164 30.3001 10.4214 30.5044 10.2887C30.664 10.1838 30.7934 10.0378 30.8796 9.86547C30.9587 9.69564 30.9987 9.50966 30.9965 9.32171C31.0044 9.07305 30.9228 8.83001 30.7671 8.63835C30.5961 8.43989 30.3912 8.27459 30.1624 8.15044C29.8889 7.99858 29.6031 7.87076 29.3082 7.76834C28.9892 7.65518 28.6631 7.5332 28.3327 7.40241C28.0004 7.27218 27.6749 7.12503 27.3572 6.96153C27.0444 6.80166 26.7565 6.59566 26.5029 6.35017C26.2491 6.10203 26.0444 5.80671 25.8997 5.48016C25.7411 5.09096 25.6682 4.67109 25.6861 4.2501C25.6844 3.82575 25.7632 3.40505 25.9184 3.01122C26.0775 2.61258 26.3296 2.25947 26.653 1.9825C27.0314 1.66654 27.4673 1.42982 27.9358 1.28591C28.5477 1.10175 29.1839 1.015 29.8219 1.02873C30.0398 1.02873 30.2649 1.03901 30.5016 1.05812C30.7382 1.07722 30.972 1.10368 31.2014 1.13454C31.4309 1.1654 31.6545 1.20361 31.8681 1.24623C32.0817 1.28885 32.2779 1.33147 32.4569 1.37702V3.28751C32.2679 3.21474 32.0752 3.15243 31.8797 3.10087C31.669 3.04307 31.4511 2.99408 31.226 2.95391C31.0008 2.91374 30.7743 2.88141 30.5463 2.85692C30.3183 2.83487 30.1018 2.82312 29.8969 2.82312C29.5886 2.81734 29.2807 2.84742 28.9791 2.91276C28.7616 2.95858 28.5533 3.04156 28.363 3.15819C28.2124 3.25048 28.0908 3.38455 28.0123 3.54469C27.9388 3.70362 27.9018 3.87751 27.9041 4.05318C27.9005 4.27592 27.9829 4.4912 28.1335 4.65277C28.31 4.83676 28.5159 4.98883 28.7425 5.10247C29.0199 5.24586 29.3062 5.37055 29.5997 5.47575C29.92 5.59136 30.2481 5.71579 30.5838 5.84903C30.9195 5.98263 31.248 6.13421 31.568 6.30314C31.8807 6.46884 32.1696 6.67752 32.4266 6.92332C32.6785 7.17072 32.8822 7.46441 33.0269 7.78891C33.1877 8.15874 33.2661 8.56025 33.2563 8.9646Z" fill="#7421B0"/>
<path d="M41.6377 11.9832C41.2373 12.1479 40.8215 12.2705 40.3967 12.3491C39.9536 12.429 39.5045 12.4689 39.0546 12.4681C38.4403 12.4771 37.8288 12.3823 37.245 12.1874C36.7375 12.0161 36.2736 11.732 35.8871 11.3556C35.5041 10.972 35.212 10.5047 35.0328 9.98892C34.8254 9.38372 34.7252 8.74579 34.737 8.10488C34.7281 7.46446 34.8368 6.82799 35.0574 6.2282C35.2537 5.69032 35.5616 5.20185 35.96 4.79609C36.3585 4.39032 36.8381 4.07678 37.3663 3.87683C37.9514 3.6553 38.5718 3.54618 39.196 3.55498C39.6603 3.54924 40.1243 3.57871 40.5842 3.64316C40.9253 3.69621 41.2627 3.77131 41.5944 3.86801V5.87843C41.2374 5.69886 40.8611 5.56225 40.4731 5.47135C40.098 5.37791 39.7135 5.3286 39.3274 5.32439C38.9811 5.31905 38.6374 5.38555 38.3172 5.51985C38.0281 5.64161 37.769 5.82676 37.5582 6.06213C37.3448 6.30726 37.1841 6.59508 37.0863 6.90715C36.9746 7.25932 36.9196 7.62755 36.9232 7.9976C36.9163 8.37628 36.9744 8.75328 37.095 9.11156C37.2018 9.42229 37.3708 9.70704 37.5914 9.94777C37.8073 10.1785 38.0704 10.358 38.362 10.4739C38.6808 10.5991 39.0203 10.6609 39.362 10.6561C39.5502 10.656 39.7382 10.6432 39.9248 10.6179C40.1239 10.5927 40.3214 10.5559 40.5164 10.5077C40.7141 10.4592 40.9089 10.4048 41.1009 10.3431C41.2928 10.2814 41.4717 10.2123 41.6377 10.1388V11.9832Z" fill="#7421B0"/>
<path d="M49.1113 7.04382C49.1247 6.76811 49.1093 6.49173 49.0651 6.21937C49.0339 6.02142 48.9658 5.83138 48.8645 5.65945C48.7838 5.5221 48.6668 5.41059 48.5268 5.33761C48.3846 5.26665 48.2278 5.23137 48.0694 5.23474C47.7269 5.25131 47.3997 5.38428 47.1401 5.61242C46.7287 5.9707 46.3731 6.39038 46.0852 6.85718V12.3153H44.0015V3.69018H45.8442L45.9193 4.94669C46.0541 4.7335 46.2119 4.53633 46.3897 4.35885C46.5625 4.18323 46.7564 4.03064 46.9669 3.90474C47.19 3.77355 47.4299 3.67462 47.6798 3.61082C47.9607 3.5408 48.2492 3.50674 48.5384 3.50942C48.9288 3.50194 49.3163 3.57856 49.6755 3.73427C50.0039 3.88214 50.2907 4.11154 50.5096 4.40147C50.7506 4.73067 50.9211 5.10764 51.0103 5.50808C51.1261 6.01303 51.1747 6.53156 51.1546 7.0497L49.1113 7.04382Z" fill="#7421B0"/>
<path d="M59.9095 7.34803C59.9095 7.48911 59.9052 7.67281 59.8965 7.89913C59.8879 8.12545 59.8763 8.34001 59.859 8.53547H54.2917C54.2849 8.87759 54.3427 9.21784 54.462 9.53774C54.5679 9.81349 54.733 10.0616 54.9454 10.2637C55.1627 10.4623 55.4183 10.6124 55.6958 10.7046C56.0094 10.8077 56.3375 10.8573 56.667 10.8516C57.1092 10.8493 57.5508 10.8169 57.9888 10.7546C58.4838 10.683 58.9733 10.5759 59.4535 10.4342V12.086C59.237 12.1478 59.0009 12.2041 58.745 12.255C58.4891 12.306 58.2279 12.3511 57.9614 12.3902C57.6959 12.4299 57.426 12.4608 57.1533 12.4799C56.8805 12.499 56.6165 12.5093 56.3611 12.5093C55.7724 12.5184 55.1865 12.424 54.6294 12.2301C54.1409 12.0572 53.697 11.7744 53.3307 11.4027C52.9633 11.0182 52.6843 10.5554 52.5139 10.0477C52.3131 9.44708 52.2154 8.8157 52.2253 8.1813C52.2194 7.53277 52.3169 6.88756 52.5139 6.27081C52.6854 5.73328 52.9568 5.23436 53.3133 4.8012C53.6564 4.39231 54.0855 4.06733 54.5688 3.85037C55.0876 3.62125 55.6484 3.50704 56.2139 3.5153C56.756 3.50597 57.2949 3.60276 57.8012 3.8004C58.2388 3.97503 58.633 4.24603 58.9556 4.59399C59.2734 4.94309 59.5149 5.35681 59.6642 5.80788C59.8308 6.30347 59.9137 6.82422 59.9095 7.34803ZM57.8416 7.05411C57.8521 6.75501 57.8101 6.4564 57.7175 6.17235C57.6401 5.9415 57.5168 5.72939 57.3553 5.54923C57.2067 5.38788 57.0241 5.26279 56.8214 5.1833C56.6125 5.10296 56.3909 5.0626 56.1677 5.06426C55.9334 5.05643 55.7001 5.09897 55.483 5.18912C55.266 5.27926 55.07 5.41499 54.9079 5.58744C54.5808 5.93427 54.3884 6.42414 54.3307 7.05705L57.8416 7.05411Z" fill="#7421B0"/>
<path d="M68.7827 7.34803C68.7827 7.48911 68.7784 7.67281 68.7698 7.89913C68.7611 8.12545 68.7496 8.34001 68.7322 8.53547H63.165C63.1582 8.87758 63.216 9.21784 63.3353 9.53774C63.4411 9.81348 63.6063 10.0616 63.8187 10.2637C64.0359 10.4623 64.2915 10.6124 64.5691 10.7046C64.8826 10.8077 65.2108 10.8573 65.5402 10.8516C65.982 10.8494 66.4231 10.817 66.8606 10.7546C67.3552 10.683 67.8441 10.5759 68.3239 10.4342V12.086C68.1074 12.1478 67.8712 12.2041 67.6153 12.255C67.3594 12.306 67.0982 12.3511 66.8317 12.3902C66.5648 12.4299 66.2964 12.4608 66.0236 12.4799C65.7509 12.499 65.4868 12.5093 65.2314 12.5093C64.6427 12.5185 64.0569 12.4241 63.4998 12.2301C63.0111 12.0576 62.5671 11.7747 62.201 11.4027C61.8336 11.0181 61.5547 10.5554 61.3843 10.0477C61.1834 9.44708 61.0858 8.8157 61.0956 8.18129C61.0898 7.53276 61.1873 6.88756 61.3843 6.27081C61.555 5.73296 61.8265 5.23389 62.1837 4.8012C62.5266 4.39267 62.9551 4.06774 63.4377 3.85037C63.9554 3.61776 64.5155 3.49955 65.0813 3.50354C65.6235 3.49422 66.1624 3.591 66.6687 3.78864C67.1062 3.96328 67.5005 4.23427 67.8231 4.58223C68.1455 4.9301 68.3915 5.34391 68.5446 5.79612C68.7101 6.29588 68.7906 6.8207 68.7827 7.34803ZM66.7149 7.05411C66.7254 6.75501 66.6833 6.4564 66.5908 6.17234C66.5132 5.94124 66.3894 5.72905 66.2271 5.54923C66.0792 5.38763 65.8971 5.26248 65.6946 5.1833C65.4853 5.10281 65.2632 5.06245 65.0395 5.06426C64.8068 5.05467 64.5748 5.09483 64.3583 5.18216C64.1418 5.26949 63.9457 5.40204 63.7826 5.57128C63.4555 5.9181 63.2631 6.40797 63.2054 7.04088L66.7149 7.05411Z" fill="#7421B0"/>
<path d="M75.327 12.3153V6.69552C75.327 5.75106 74.9826 5.27833 74.2938 5.27735C73.9242 5.28803 73.5719 5.4396 73.3067 5.70207C72.9354 6.05035 72.6012 6.43753 72.3096 6.85718V12.3153H70.2764V3.69018H72.0354L72.0845 4.96433C72.2505 4.75096 72.4303 4.54917 72.6227 4.36032C72.8053 4.18224 73.0083 4.0273 73.2274 3.89886C73.4471 3.77023 73.6824 3.67142 73.9273 3.60494C74.2022 3.53418 74.485 3.50009 74.7685 3.50354C75.1577 3.49452 75.5445 3.56809 75.9042 3.71957C76.2164 3.85703 76.493 4.06629 76.7123 4.33093C76.9384 4.61009 77.1054 4.93379 77.203 5.28176C77.316 5.686 77.3709 6.10477 77.366 6.52505V12.3153H75.327Z" fill="#7421B0"/>
<path d="M86.1369 9.77729C86.1498 10.2196 86.0387 10.6565 85.8166 11.0367C85.6029 11.3841 85.3117 11.6752 84.9666 11.8862C84.595 12.1111 84.1893 12.2716 83.766 12.3609C83.3156 12.4601 82.8559 12.5094 82.3951 12.5078C81.8326 12.5111 81.2703 12.4817 80.7111 12.4196C80.2337 12.3644 79.7603 12.2775 79.294 12.1595V10.2946C79.7971 10.5094 80.3209 10.67 80.8568 10.7737C81.3414 10.8691 81.8337 10.9183 82.3273 10.9206C82.8612 10.9206 83.2595 10.8354 83.5236 10.662C83.642 10.5964 83.7411 10.4999 83.8108 10.3824C83.8806 10.2649 83.9184 10.1306 83.9204 9.99332C83.9213 9.86914 83.8926 9.74659 83.8367 9.63621C83.7599 9.50783 83.6521 9.40159 83.5236 9.32759C83.3195 9.20329 83.1033 9.10085 82.8785 9.02191C82.5995 8.9161 82.2354 8.79853 81.7861 8.66921C81.4102 8.56581 81.0433 8.43063 80.6894 8.26507C80.4027 8.13394 80.1393 7.95515 79.9102 7.73601C79.7078 7.53604 79.5503 7.29391 79.4484 7.02619C79.3399 6.72316 79.2875 6.40225 79.294 6.07976C79.2927 5.73432 79.3729 5.39362 79.5278 5.08631C79.6932 4.75994 79.9314 4.47758 80.2233 4.26186C80.5719 4.00707 80.9631 3.81885 81.3778 3.70635C81.9049 3.56129 82.4495 3.49252 82.9954 3.50207C83.4691 3.49818 83.9425 3.52666 84.4125 3.58731C84.8223 3.64315 85.1874 3.70635 85.5034 3.77395V5.464C85.0588 5.31555 84.6033 5.20351 84.1412 5.12893C83.7232 5.06482 83.3012 5.0324 82.8785 5.03193C82.5277 5.0145 82.1787 5.09369 81.8684 5.26119C81.7532 5.32066 81.6565 5.41177 81.5895 5.52422C81.5224 5.63666 81.4876 5.76597 81.4889 5.89753C81.4866 6.01803 81.5123 6.13738 81.5639 6.24583C81.634 6.36721 81.7333 6.46838 81.8525 6.53975C82.0483 6.65733 82.2546 6.75575 82.4687 6.83367C82.7323 6.9385 83.081 7.05313 83.5149 7.17756C83.9425 7.29662 84.3596 7.45197 84.7617 7.64195C85.06 7.77689 85.3342 7.96167 85.5727 8.18865C85.7677 8.38382 85.9159 8.6222 86.0056 8.88524C86.0977 9.17311 86.142 9.47458 86.1369 9.77729Z" fill="#7421B0"/>
<path d="M93.0765 12.3153V6.69553C93.0765 5.75106 92.7321 5.27834 92.0433 5.27736C91.6738 5.2886 91.3217 5.44008 91.0563 5.70207C90.6858 6.05081 90.3521 6.43794 90.0606 6.85718V12.3153H88.0259V0.320377H90.0591V3.27428L89.9596 4.83648C90.1199 4.63651 90.2934 4.44796 90.479 4.27215C90.6533 4.10785 90.8472 3.96663 91.0563 3.85184C91.2667 3.73686 91.4907 3.64993 91.7229 3.59319C91.9825 3.53086 92.2485 3.50076 92.5152 3.50354C92.9053 3.4939 93.2932 3.56749 93.6537 3.71958C93.9665 3.85665 94.2436 4.06596 94.4633 4.33093C94.6888 4.61022 94.8554 4.93392 94.9525 5.28177C95.065 5.68608 95.1194 6.10485 95.1141 6.52505V12.3153H93.0765Z" fill="#7421B0"/>
<path d="M104.526 7.93587C104.531 8.569 104.434 9.19868 104.237 9.79933C104.065 10.3336 103.787 10.8263 103.42 11.2469C103.058 11.6535 102.612 11.9724 102.113 12.1801C101.551 12.409 100.95 12.5214 100.345 12.5108C99.7719 12.5203 99.2016 12.4257 98.661 12.2315C98.1844 12.0552 97.7546 11.7684 97.4056 11.3939C97.0443 10.9948 96.7738 10.5197 96.6133 10.0021C96.4198 9.37177 96.3273 8.71378 96.3392 8.05344C96.3315 7.41872 96.4291 6.78723 96.6278 6.18557C96.8027 5.65453 97.0837 5.16615 97.4532 4.75124C97.8191 4.35024 98.2668 4.03572 98.7649 3.8298C99.3221 3.60473 99.9174 3.49386 100.517 3.50354C101.093 3.49409 101.666 3.59068 102.208 3.78865C102.686 3.96684 103.117 4.25561 103.466 4.6322C103.826 5.03203 104.095 5.5077 104.254 6.02539C104.444 6.64332 104.536 7.28836 104.526 7.93587ZM102.409 7.98731C102.409 7.09183 102.243 6.41973 101.912 5.97101C101.581 5.52229 101.093 5.29548 100.449 5.29058C100.134 5.28103 99.8211 5.35388 99.5413 5.50221C99.2916 5.64416 99.0796 5.84592 98.9236 6.09005C98.7555 6.3529 98.6357 6.64471 98.5701 6.95124C98.4932 7.29644 98.4554 7.6495 98.4575 8.00347C98.4575 8.90385 98.635 9.58183 98.99 10.0374C99.1628 10.2607 99.3851 10.4391 99.6387 10.5579C99.8923 10.6767 100.17 10.7325 100.449 10.7208C100.756 10.7279 101.061 10.6561 101.334 10.5121C101.581 10.3756 101.79 10.1768 101.941 9.93454C102.106 9.66711 102.225 9.37284 102.292 9.06453C102.372 8.71085 102.411 8.34882 102.409 7.98584V7.98731Z" fill="#7421B0"/>
<path d="M112.757 12.2301C112.39 12.3153 112.021 12.3829 111.648 12.4329C111.298 12.4825 110.944 12.5081 110.589 12.5093C110.102 12.5192 109.617 12.4593 109.146 12.3315C108.776 12.2307 108.434 12.0446 108.146 11.7877C107.876 11.5349 107.674 11.2148 107.562 10.8589C107.429 10.4234 107.365 9.96883 107.374 9.51276V5.30381H105.106V3.68724H107.38V1.48283L109.464 0.931732V3.69018H112.757V5.30675H109.464V9.36286C109.464 9.85273 109.575 10.225 109.797 10.4798C110.019 10.7345 110.392 10.8604 110.914 10.8574C111.241 10.8583 111.567 10.8298 111.889 10.7722C112.181 10.7222 112.47 10.657 112.755 10.5768L112.757 12.2301Z" fill="#7421B0"/>
<path d="M122.021 7.34803C122.021 7.48911 122.017 7.67281 122.008 7.89913C122.008 8.12545 121.988 8.34001 121.971 8.53547H116.403C116.397 8.87768 116.455 9.21795 116.575 9.53774C116.68 9.81405 116.845 10.0624 117.058 10.2637C117.275 10.4626 117.53 10.6128 117.807 10.7046C118.121 10.8077 118.449 10.8573 118.779 10.8516C119.221 10.8493 119.662 10.8169 120.1 10.7546C120.594 10.6828 121.083 10.5758 121.562 10.4342V12.086C121.346 12.1478 121.111 12.2036 120.854 12.255C120.597 12.3065 120.337 12.352 120.072 12.3902C119.806 12.4285 119.535 12.4608 119.262 12.4799C118.989 12.499 118.727 12.5093 118.471 12.5093C117.882 12.5184 117.297 12.4239 116.74 12.2301C116.251 12.0572 115.807 11.7744 115.441 11.4027C115.074 11.0178 114.795 10.5551 114.624 10.0477C114.423 9.44707 114.326 8.81569 114.335 8.18129C114.33 7.53277 114.427 6.88757 114.624 6.27081C114.795 5.73287 115.067 5.23382 115.425 4.8012C115.767 4.392 116.196 4.06695 116.679 3.85037C117.198 3.62126 117.759 3.50706 118.325 3.5153C118.868 3.50594 119.406 3.60273 119.913 3.8004C120.35 3.97559 120.744 4.24651 121.067 4.59399C121.384 4.94385 121.625 5.35735 121.776 5.80788C121.942 6.30365 122.025 6.82428 122.021 7.34803ZM119.955 7.05411C119.965 6.75488 119.923 6.45614 119.829 6.17234C119.752 5.94124 119.629 5.72901 119.467 5.54923C119.318 5.3876 119.136 5.26247 118.933 5.1833C118.724 5.10283 118.502 5.06247 118.279 5.06426C118.045 5.05645 117.812 5.09901 117.595 5.18916C117.378 5.27931 117.183 5.41503 117.021 5.58744C116.692 5.93427 116.499 6.42512 116.444 7.05705L119.955 7.05411Z" fill="#7421B0"/>
<path d="M128.969 7.04382C128.984 6.76811 128.968 6.49165 128.923 6.21937C128.891 6.02122 128.822 5.83116 128.72 5.65945C128.639 5.5225 128.523 5.41107 128.384 5.33761C128.241 5.26706 128.083 5.23181 127.925 5.23473C127.582 5.25131 127.255 5.38428 126.995 5.61242C126.584 5.9707 126.228 6.39038 125.94 6.85718V12.3153H123.86V3.69018H125.702L125.777 4.94669C125.912 4.7335 126.07 4.53633 126.248 4.35885C126.421 4.18323 126.615 4.03064 126.825 3.90474C127.048 3.77378 127.288 3.67487 127.538 3.61082C127.819 3.5408 128.107 3.50674 128.397 3.50942C128.787 3.50195 129.175 3.57857 129.535 3.73427C129.863 3.88219 130.149 4.1116 130.368 4.40147C130.609 4.73038 130.78 5.10745 130.868 5.50808C130.984 6.01303 131.033 6.53156 131.013 7.0497L128.969 7.04382Z" fill="#7421B0"/>
<path d="M137.892 8.54576V11.848H136.016V8.54576H132.905V6.83955H136.013V3.55498H137.889V6.83955H141V8.54576H137.892Z" fill="#7421B0"/>
<path d="M28.1106 20.1968C28.1122 20.2276 28.1122 20.2585 28.1106 20.2894C28.1093 20.3128 28.1055 20.3359 28.099 20.3584C28.0947 20.3769 28.0879 20.3947 28.0788 20.4114C28.0655 20.4317 28.0501 20.4504 28.0326 20.4672C27.9907 20.5049 27.9453 20.5384 27.897 20.5671C27.8155 20.6191 27.7296 20.6634 27.6401 20.6994C27.5256 20.7459 27.4073 20.7823 27.2866 20.8081C27.1442 20.8385 26.9991 20.8532 26.8537 20.8522C26.6018 20.8562 26.3517 20.8092 26.1177 20.7141C25.9023 20.6244 25.7105 20.4845 25.5578 20.3055C25.3943 20.1106 25.2728 19.8828 25.2014 19.6369C25.1132 19.3407 25.0708 19.0323 25.0758 18.7228C25.0709 18.402 25.1162 18.0826 25.21 17.7764C25.2893 17.5182 25.4178 17.2785 25.5881 17.0709C25.7451 16.8812 25.9425 16.7304 26.1653 16.6301C26.4021 16.5281 26.6573 16.478 26.9143 16.4831C27.033 16.4828 27.1514 16.4946 27.2678 16.5184C27.3753 16.5404 27.4814 16.5694 27.5853 16.6051C27.6751 16.6377 27.7616 16.679 27.8436 16.7285C27.9002 16.7599 27.953 16.7978 28.0009 16.8417C28.022 16.8621 28.0409 16.8847 28.0572 16.9093C28.0666 16.9264 28.0739 16.9447 28.0788 16.9637C28.0853 16.9882 28.0896 17.0133 28.0918 17.0386C28.0935 17.0724 28.0935 17.1062 28.0918 17.14C28.0943 17.1772 28.0943 17.2145 28.0918 17.2517C28.0884 17.2784 28.0816 17.3046 28.0716 17.3296C28.065 17.3473 28.0546 17.3634 28.0413 17.3766C28.0283 17.3863 28.0126 17.3914 27.9966 17.3913C27.949 17.3828 27.9048 17.3603 27.8696 17.3267C27.8026 17.2737 27.7327 17.2246 27.6603 17.1797C27.561 17.1202 27.4561 17.071 27.3472 17.0327C27.2045 16.9868 27.0553 16.965 26.9056 16.9681C26.7294 16.9658 26.5551 17.005 26.3962 17.0827C26.2412 17.1598 26.1069 17.2744 26.0052 17.4163C25.889 17.5787 25.8034 17.7615 25.7526 17.9556C25.6888 18.195 25.6587 18.4424 25.6632 18.6904C25.6599 18.9323 25.6885 19.1735 25.7483 19.4076C25.7962 19.5966 25.8806 19.7739 25.9965 19.9293C26.1004 20.0665 26.2363 20.1751 26.3919 20.2453C26.5593 20.3194 26.7404 20.356 26.9229 20.3526C27.0695 20.3549 27.2156 20.3341 27.3559 20.2908C27.4667 20.2528 27.5735 20.2036 27.6748 20.1439C27.7628 20.0924 27.835 20.0454 27.8912 20.0043C27.9288 19.9701 27.9755 19.9481 28.0254 19.9411C28.0402 19.94 28.0548 19.9443 28.0667 19.9531C28.0786 19.962 28.087 19.9749 28.0904 19.9896C28.0986 20.0142 28.1035 20.04 28.1048 20.066C28.1077 20.1042 28.1106 20.1454 28.1106 20.1968Z" fill="#484848"/>
<path d="M30.9649 20.7406C30.9648 20.7533 30.9607 20.7656 30.9533 20.7758C30.9418 20.7875 30.9273 20.7957 30.9115 20.7993C30.8852 20.8075 30.8581 20.8125 30.8307 20.814C30.7879 20.8167 30.745 20.8167 30.7022 20.814C30.6542 20.8167 30.606 20.8167 30.5579 20.814C30.5267 20.811 30.4958 20.805 30.4656 20.7964C30.4462 20.791 30.4284 20.7809 30.4136 20.767C30.4032 20.7551 30.3953 20.7411 30.3905 20.7259L30.0803 19.9573C30.0459 19.8687 30.0044 19.7832 29.9562 19.7015C29.9156 19.6346 29.8632 19.5758 29.8018 19.5281C29.7425 19.4837 29.6754 19.4513 29.6041 19.4326C29.5214 19.4121 29.4366 19.4023 29.3515 19.4032H29.125V20.7391C29.124 20.7515 29.1183 20.7631 29.1091 20.7714C29.0954 20.7845 29.0784 20.7937 29.0601 20.7979C29.0327 20.8059 29.0047 20.8113 28.9764 20.814C28.9365 20.8165 28.8965 20.8165 28.8566 20.814C28.8167 20.8166 28.7767 20.8166 28.7368 20.814C28.708 20.8113 28.6795 20.8059 28.6517 20.7979C28.6339 20.7944 28.6177 20.7851 28.6055 20.7714C28.5967 20.763 28.5915 20.7514 28.5911 20.7391V17.7235C28.5911 17.7173 28.5925 17.7113 28.5949 17.7057C28.5974 17.7002 28.601 17.6952 28.6055 17.6911C28.6189 17.6795 28.6347 17.671 28.6517 17.6661C28.6797 17.6594 28.7082 17.6545 28.7368 17.6514C28.7714 17.6514 28.8104 17.6514 28.8566 17.6514C28.9028 17.6514 28.9417 17.6514 28.9764 17.6514C29.0045 17.6545 29.0325 17.6594 29.0601 17.6661C29.0776 17.6717 29.0942 17.6802 29.1091 17.6911C29.1138 17.6951 29.1176 17.7001 29.1203 17.7056C29.1231 17.7112 29.1247 17.7172 29.125 17.7235V18.9667H29.3515C29.4274 18.9671 29.5031 18.9577 29.5767 18.9388C29.6438 18.92 29.707 18.8886 29.7628 18.8462C29.8204 18.7996 29.8692 18.7429 29.9071 18.6787C29.9566 18.6011 29.9977 18.5184 30.0298 18.4318L30.3011 17.7499C30.3049 17.7325 30.3128 17.7164 30.3242 17.7029C30.3369 17.688 30.3534 17.6768 30.3718 17.6705C30.3998 17.6605 30.4288 17.6541 30.4584 17.6514C30.4944 17.6514 30.5406 17.6514 30.6027 17.6514C30.6647 17.6514 30.6979 17.6514 30.7311 17.6514C30.7574 17.6543 30.7835 17.6592 30.809 17.6661C30.8234 17.671 30.8364 17.6796 30.8465 17.6911C30.8527 17.7008 30.8562 17.712 30.8566 17.7235C30.8564 17.7443 30.8535 17.7651 30.848 17.7852C30.8414 17.8111 30.8332 17.8367 30.8235 17.8616L30.5435 18.517C30.5055 18.6147 30.4572 18.7079 30.3992 18.7948C30.3543 18.8619 30.3026 18.924 30.2448 18.98C30.1975 19.0261 30.1441 19.0652 30.0861 19.0961C30.036 19.1221 29.9839 19.1437 29.9302 19.1607C30.0028 19.1857 30.0728 19.2177 30.1395 19.2563C30.2042 19.2949 30.2638 19.3419 30.3169 19.3959C30.3758 19.4546 30.4276 19.5202 30.4714 19.5913C30.5231 19.6749 30.5675 19.7629 30.6041 19.8544L30.9245 20.6053C30.9324 20.6189 30.9391 20.6332 30.9447 20.648C30.9488 20.6604 30.9517 20.6732 30.9533 20.6862C30.9533 20.6994 30.9533 20.7082 30.9533 20.7156C30.9533 20.7229 30.9649 20.7347 30.9649 20.7406Z" fill="#484848"/>
<path d="M34.1467 19.1872C34.1496 19.423 34.1219 19.6582 34.0645 19.8867C34.0174 20.0762 33.9351 20.2548 33.822 20.4128C33.7174 20.554 33.5814 20.6678 33.4252 20.745C33.2559 20.8255 33.0708 20.8657 32.884 20.8625C32.8035 20.8632 32.7231 20.8543 32.6445 20.8361C32.5697 20.8178 32.4975 20.7902 32.4295 20.7538C32.3548 20.7124 32.2847 20.6632 32.2202 20.6068C32.151 20.551 32.0759 20.4834 31.9995 20.4069V21.8971C31.9996 21.9133 31.9951 21.9291 31.9865 21.9427C31.9757 21.9571 31.9612 21.9683 31.9446 21.975C31.9188 21.9857 31.8916 21.9926 31.8638 21.9956C31.8196 21.9982 31.7753 21.9982 31.731 21.9956C31.6878 21.9982 31.6444 21.9982 31.6012 21.9956C31.573 21.9926 31.5453 21.9857 31.5189 21.975C31.5019 21.9692 31.4872 21.9578 31.4771 21.9427C31.4689 21.929 31.4649 21.9131 31.4655 21.8971V17.7499C31.4644 17.7331 31.4679 17.7163 31.4756 17.7014C31.4847 17.6869 31.4985 17.676 31.5146 17.6705C31.5381 17.6607 31.5629 17.6543 31.5882 17.6514C31.6185 17.6514 31.6546 17.6514 31.6979 17.6514C31.7412 17.6514 31.7816 17.6514 31.8104 17.6514C31.8352 17.6544 31.8595 17.6609 31.8826 17.6705C31.8988 17.6764 31.9129 17.6872 31.923 17.7014C31.9318 17.7159 31.9359 17.7329 31.9345 17.7499V18.1482C32.0155 18.0634 32.1008 17.9829 32.1899 17.9071C32.2671 17.8428 32.3503 17.7862 32.4381 17.7381C32.5191 17.6939 32.6048 17.6594 32.6936 17.6353C32.7841 17.6119 32.8772 17.6006 32.9706 17.6015C33.1585 17.5954 33.3448 17.6384 33.5118 17.7264C33.6593 17.8082 33.7847 17.9258 33.8769 18.0688C33.9744 18.224 34.0438 18.3957 34.0818 18.5758C34.126 18.7765 34.1478 18.9815 34.1467 19.1872ZM33.5926 19.2504C33.5927 19.1028 33.5816 18.9554 33.5594 18.8095C33.5397 18.678 33.4997 18.5506 33.4411 18.4318C33.39 18.3264 33.3136 18.2359 33.2188 18.1687C33.1153 18.0996 32.9934 18.0646 32.8696 18.0688C32.8001 18.0685 32.7309 18.0794 32.6647 18.1011C32.5918 18.1241 32.5223 18.1572 32.4583 18.1996C32.3806 18.252 32.3076 18.3115 32.2404 18.3774C32.1547 18.4629 32.0742 18.5537 31.9995 18.6493V19.825C32.1213 19.9822 32.2625 20.123 32.4194 20.2438C32.5394 20.337 32.6856 20.3885 32.8364 20.3908C32.9595 20.3946 33.0807 20.3603 33.1842 20.2923C33.2822 20.225 33.3625 20.1341 33.418 20.0278C33.4804 19.9124 33.5252 19.788 33.5507 19.6589C33.578 19.525 33.592 19.3886 33.5926 19.2518V19.2504Z" fill="#484848"/>
<path d="M37.3447 20.7214C37.3446 20.7366 37.3401 20.7515 37.3317 20.7641C37.3215 20.7788 37.3068 20.7897 37.2898 20.7949C37.2636 20.8039 37.2365 20.8098 37.209 20.8126C37.1658 20.8153 37.1224 20.8153 37.0791 20.8126C37.0364 20.8153 36.9935 20.8153 36.9507 20.8126C36.9218 20.8096 36.8933 20.8037 36.8656 20.7949C36.8477 20.7901 36.8319 20.7792 36.8208 20.7641C36.8124 20.7515 36.8079 20.7366 36.8078 20.7214V19.0123C36.8078 18.9271 36.8078 18.8389 36.8078 18.7507C36.8078 18.6625 36.818 18.5743 36.8252 18.4876C36.7747 18.5758 36.7198 18.6625 36.6607 18.7463C36.6015 18.8301 36.5409 18.9153 36.4817 18.9991L35.2494 20.7214L35.2089 20.767C35.1968 20.7809 35.1814 20.7915 35.1642 20.7979C35.1421 20.807 35.1187 20.8125 35.0949 20.814C35.0604 20.8166 35.0256 20.8166 34.991 20.814C34.9521 20.8168 34.9131 20.8168 34.8742 20.814C34.8491 20.8109 34.8244 20.805 34.8006 20.7964C34.7859 20.7909 34.7733 20.7808 34.7645 20.7677C34.7557 20.7545 34.7511 20.7388 34.7515 20.7229V17.7455C34.7511 17.7304 34.7551 17.7156 34.763 17.7029C34.7728 17.6874 34.7876 17.6759 34.8049 17.6705C34.8313 17.6605 34.859 17.654 34.8871 17.6514C34.9218 17.6514 34.9636 17.6514 35.0141 17.6514C35.0862 17.6475 35.1584 17.656 35.2277 17.6764C35.2438 17.6808 35.258 17.6903 35.2684 17.7035C35.2788 17.7167 35.2848 17.733 35.2854 17.7499V19.4693C35.2854 19.5546 35.2854 19.6398 35.2854 19.7236C35.2854 19.8073 35.2753 19.8926 35.2681 19.9763C35.3186 19.8926 35.3691 19.8118 35.4124 19.7309C35.4557 19.6501 35.5178 19.5722 35.5755 19.4958L36.8295 17.7499C36.841 17.7334 36.854 17.7182 36.8685 17.7043C36.8836 17.6907 36.9013 17.6802 36.9204 17.6735C36.9442 17.6647 36.9689 17.6588 36.994 17.6558C37.0214 17.6558 37.0589 17.6558 37.1037 17.6558C37.1484 17.6558 37.1874 17.6558 37.2191 17.6558C37.2449 17.6585 37.2702 17.6649 37.2942 17.6749C37.3096 17.6817 37.3226 17.6929 37.3317 17.7073C37.34 17.7215 37.344 17.7378 37.3432 17.7543L37.3447 20.7214Z" fill="#484848"/>
<path d="M40.6938 20.7214C40.6941 20.7376 40.6896 20.7535 40.6808 20.767C40.6695 20.7806 40.6551 20.7912 40.639 20.7979C40.613 20.808 40.5858 20.8144 40.5581 20.817C40.5149 20.8197 40.4715 20.8197 40.4283 20.817C40.3841 20.8197 40.3397 20.8197 40.2955 20.817C40.2678 20.8146 40.2406 20.8082 40.2147 20.7979C40.1981 20.792 40.1835 20.7813 40.1729 20.767C40.1634 20.7539 40.1588 20.7377 40.1599 20.7214V19.4194H38.6735V20.7214C38.6737 20.7374 38.6697 20.7531 38.662 20.767C38.6501 20.7806 38.6353 20.7912 38.6187 20.7979C38.5928 20.8082 38.5656 20.8146 38.5379 20.817C38.4937 20.8197 38.4493 20.8197 38.4051 20.817C38.3619 20.8197 38.3185 20.8197 38.2752 20.817C38.2471 20.8144 38.2195 20.8079 38.193 20.7979C38.1767 20.7935 38.1625 20.7834 38.1528 20.7695C38.143 20.7555 38.1384 20.7385 38.1396 20.7214V17.7499C38.1393 17.7339 38.1432 17.7182 38.1511 17.7043C38.1621 17.6901 38.1765 17.6789 38.193 17.672C38.2191 17.6607 38.2469 17.6537 38.2752 17.6514C38.3099 17.6514 38.3532 17.6514 38.4051 17.6514C38.4585 17.6514 38.5032 17.6514 38.5379 17.6514C38.5658 17.6535 38.5931 17.6605 38.6187 17.672C38.6351 17.6797 38.6498 17.6907 38.662 17.7043C38.6699 17.7182 38.6739 17.7339 38.6735 17.7499V18.9579H40.1613V17.7514C40.1601 17.7351 40.1647 17.7189 40.1743 17.7058C40.1852 17.6915 40.1997 17.6804 40.2161 17.6735C40.2417 17.6619 40.2691 17.655 40.297 17.6529C40.3316 17.6529 40.3749 17.6529 40.4297 17.6529C40.4845 17.6529 40.525 17.6529 40.5596 17.6529C40.5875 17.6552 40.6148 17.6621 40.6404 17.6735C40.6564 17.6812 40.6707 17.6922 40.6822 17.7058C40.6912 17.7192 40.6958 17.7352 40.6952 17.7514L40.6938 20.7214Z" fill="#484848"/>
<path d="M45.3247 20.6083C45.3271 20.6346 45.3244 20.6611 45.3167 20.6863C45.3091 20.7116 45.2965 20.735 45.2799 20.7552C45.2643 20.7712 45.2456 20.7837 45.225 20.7918C45.2043 20.7999 45.1822 20.8035 45.1602 20.8023H41.6492C41.6269 20.8039 41.6045 20.8005 41.5835 20.7924C41.5626 20.7842 41.5437 20.7716 41.528 20.7552C41.4955 20.7138 41.48 20.6611 41.4847 20.6083V17.7499C41.4837 17.7339 41.4877 17.7179 41.4963 17.7043C41.5075 17.6897 41.5224 17.6785 41.5395 17.672C41.5663 17.6609 41.5945 17.654 41.6232 17.6514C41.6579 17.6514 41.7012 17.6514 41.7531 17.6514C41.8051 17.6514 41.8484 17.6514 41.883 17.6514C41.9109 17.6537 41.9382 17.6607 41.9638 17.672C41.9798 17.6797 41.9941 17.6907 42.0057 17.7043C42.0146 17.7177 42.0192 17.7337 42.0186 17.7499V20.332H43.1471V17.7499C43.1461 17.7339 43.1501 17.7179 43.1586 17.7043C43.169 17.6901 43.183 17.6789 43.1991 17.672C43.2237 17.6606 43.25 17.6537 43.277 17.6514C43.3087 17.6514 43.352 17.6514 43.4054 17.6514C43.4588 17.6514 43.4978 17.6514 43.5324 17.6514C43.5603 17.6537 43.5876 17.6607 43.6132 17.672C43.6292 17.6797 43.6435 17.6907 43.6551 17.7043C43.664 17.7177 43.6686 17.7337 43.668 17.7499V20.332H44.7951V17.7499C44.7947 17.7339 44.7987 17.7182 44.8066 17.7043C44.8176 17.6901 44.832 17.6789 44.8485 17.672C44.8741 17.6608 44.9014 17.6539 44.9293 17.6514C44.9625 17.6514 45.0057 17.6514 45.0577 17.6514C45.1096 17.6514 45.1558 17.6514 45.1905 17.6514C45.2188 17.6537 45.2466 17.6607 45.2727 17.672C45.2894 17.6793 45.3042 17.6904 45.316 17.7043C45.325 17.7177 45.3295 17.7337 45.329 17.7499L45.3247 20.6083Z" fill="#484848"/>
<path d="M48.8284 19.2004C48.8305 19.4264 48.7989 19.6513 48.7346 19.8676C48.6754 20.0615 48.5771 20.2407 48.446 20.3937C48.3192 20.5443 48.1596 20.6626 47.9799 20.7391C47.7741 20.8252 47.553 20.8673 47.3305 20.8625C47.1169 20.867 46.9044 20.8301 46.7043 20.7538C46.5331 20.6861 46.3802 20.5777 46.2584 20.4378C46.1358 20.2903 46.0453 20.118 45.9928 19.9323C45.9322 19.7133 45.903 19.4866 45.9063 19.2592C45.9038 19.0333 45.935 18.8084 45.9986 18.592C46.0544 18.3987 46.1492 18.2195 46.2771 18.0659C46.4075 17.9149 46.5712 17.7975 46.7548 17.7234C46.9611 17.6376 47.1827 17.596 47.4056 17.6015C47.6193 17.5963 47.8319 17.6332 48.0319 17.7102C48.2032 17.7776 48.3561 17.886 48.4778 18.0262C48.6007 18.1731 48.6917 18.3449 48.7447 18.5303C48.8048 18.7482 48.833 18.974 48.8284 19.2004ZM48.2743 19.2371C48.2754 19.0841 48.2604 18.9314 48.2296 18.7816C48.204 18.6483 48.1551 18.5209 48.0852 18.4053C48.0165 18.2974 47.9216 18.2093 47.8096 18.1496C47.6771 18.0901 47.5338 18.0593 47.389 18.0593C47.2441 18.0593 47.1009 18.0901 46.9683 18.1496C46.8536 18.2044 46.7543 18.2878 46.6797 18.3921C46.6027 18.5041 46.5469 18.6297 46.5152 18.7625C46.4782 18.9158 46.4602 19.0733 46.4618 19.2313C46.4611 19.3852 46.4756 19.5388 46.5051 19.6898C46.5305 19.8221 46.5794 19.9486 46.6494 20.0631C46.7182 20.1706 46.8132 20.2582 46.925 20.3173C47.0595 20.3847 47.2082 20.417 47.358 20.4114C47.4987 20.4151 47.6384 20.386 47.7663 20.3261C47.8808 20.2715 47.98 20.1887 48.0549 20.0851C48.1328 19.9742 48.1887 19.8489 48.2195 19.7162C48.2568 19.5594 48.2752 19.3985 48.2743 19.2371Z" fill="#484848"/>
<path d="M51.407 17.9116C51.4095 17.9487 51.4095 17.9861 51.407 18.0232C51.4041 18.0493 51.3968 18.0747 51.3854 18.0982C51.3779 18.1157 51.3665 18.1313 51.3522 18.1438C51.3377 18.1536 51.3206 18.1587 51.3031 18.1584H50.4286V20.7214C50.429 20.7376 50.4244 20.7535 50.4157 20.767C50.4044 20.7806 50.39 20.7912 50.3738 20.7979C50.3479 20.808 50.3207 20.8144 50.293 20.817C50.2488 20.8197 50.2045 20.8197 50.1602 20.817C50.117 20.8197 50.0736 20.8197 50.0304 20.817C50.0022 20.8144 49.9746 20.8079 49.9481 20.7979C49.9315 20.792 49.9169 20.7813 49.9063 20.767C49.8979 20.7534 49.8939 20.7375 49.8947 20.7214V18.1584H49.0202C49.0033 18.1581 48.9869 18.153 48.9726 18.1438C48.9575 18.1322 48.9459 18.1163 48.9394 18.0982C48.9293 18.0737 48.9221 18.048 48.9178 18.0218C48.9121 17.9839 48.9097 17.9455 48.9106 17.9071C48.9098 17.8717 48.9122 17.8363 48.9178 17.8013C48.922 17.7749 48.9298 17.7492 48.9409 17.7249C48.9481 17.7068 48.9595 17.6906 48.9741 17.6779C48.9877 17.6685 49.0038 17.6634 49.0202 17.6632H51.3031C51.32 17.6636 51.3365 17.6686 51.3507 17.6779C51.3658 17.6902 51.3773 17.7065 51.3839 17.7249C51.394 17.7505 51.4012 17.7771 51.4056 17.8043C51.4093 17.8399 51.4098 17.8758 51.407 17.9116Z" fill="#484848"/>
<path d="M55.6308 20.7214C55.6307 20.7366 55.6262 20.7515 55.6178 20.7641C55.6073 20.7785 55.5927 20.7893 55.5759 20.7949C55.5497 20.8037 55.5226 20.8096 55.4951 20.8126C55.4088 20.8224 55.3217 20.8224 55.2354 20.8126C55.207 20.8095 55.1789 20.8035 55.1517 20.7949C55.1336 20.7905 55.1177 20.7795 55.1069 20.7641C55.0979 20.7518 55.0933 20.7368 55.0939 20.7214V19.0123C55.0939 18.9271 55.0939 18.8389 55.0939 18.7507C55.0939 18.6625 55.104 18.5744 55.1098 18.4876C55.0601 18.5768 55.0056 18.6631 54.9467 18.7463C54.8876 18.8315 54.827 18.9153 54.7664 18.9991L53.5369 20.7214L53.4965 20.767C53.484 20.7805 53.4687 20.7911 53.4518 20.7979C53.4292 20.8072 53.4053 20.8126 53.381 20.814C53.3469 20.8166 53.3127 20.8166 53.2786 20.814C53.2397 20.8168 53.2006 20.8168 53.1617 20.814C53.1366 20.8109 53.1119 20.805 53.0881 20.7964C53.072 20.7911 53.0582 20.7802 53.0491 20.7655C53.0418 20.7526 53.0378 20.7379 53.0376 20.7229V17.7455C53.0378 17.7305 53.0418 17.7159 53.0491 17.7029C53.0592 17.6877 53.0739 17.6764 53.091 17.6705C53.118 17.6607 53.1461 17.6542 53.1747 17.6514C53.2093 17.6514 53.2512 17.6514 53.3002 17.6514C53.3723 17.6474 53.4445 17.6558 53.5138 17.6764C53.53 17.6807 53.5445 17.6902 53.5551 17.7034C53.5657 17.7166 53.572 17.7329 53.573 17.7499V19.4693C53.573 19.5546 53.573 19.6398 53.5658 19.7236C53.5585 19.8074 53.5571 19.8926 53.5499 19.9764C53.5989 19.8926 53.6494 19.8118 53.6942 19.7309C53.7389 19.6501 53.7995 19.5722 53.8587 19.4958L55.1113 17.7499C55.1236 17.7337 55.1371 17.7185 55.1517 17.7043C55.1668 17.6907 55.1845 17.6802 55.2036 17.6735C55.2273 17.6645 55.2521 17.6586 55.2772 17.6558C55.3046 17.6558 55.3421 17.6558 55.3869 17.6558C55.4316 17.6558 55.4706 17.6558 55.5023 17.6558C55.5276 17.6585 55.5524 17.6649 55.5759 17.675C55.5919 17.6812 55.6056 17.6926 55.6149 17.7073C55.6226 17.7217 55.6265 17.7379 55.6264 17.7543L55.6308 20.7214Z" fill="#484848"/>
<path d="M59.7421 19.8955C59.746 20.0326 59.7174 20.1685 59.6586 20.2919C59.5998 20.4152 59.5126 20.5222 59.4045 20.6039C59.2846 20.6937 59.1489 20.7591 59.0047 20.7964C58.829 20.8427 58.648 20.8649 58.4665 20.8625C58.3606 20.8628 58.255 20.8545 58.1504 20.8375C58.0597 20.8231 57.97 20.8025 57.882 20.7758C57.8118 20.7545 57.7436 20.7264 57.6786 20.6921C57.6371 20.6719 57.5979 20.6473 57.5617 20.6186C57.5422 20.6032 57.5252 20.5849 57.5112 20.5642C57.4999 20.5479 57.4921 20.5294 57.4881 20.5098C57.4881 20.4892 57.4809 20.4657 57.4765 20.4378C57.4722 20.4099 57.4765 20.3746 57.4765 20.3349C57.4764 20.3049 57.4788 20.2749 57.4838 20.2453C57.4859 20.2249 57.4912 20.2051 57.4996 20.1865C57.5044 20.1734 57.5118 20.1614 57.5213 20.1512C57.5318 20.1437 57.5445 20.1401 57.5573 20.141C57.5938 20.1464 57.6281 20.1616 57.6569 20.185C57.7108 20.222 57.7672 20.2549 57.8258 20.2835C57.9106 20.3252 57.999 20.3592 58.0898 20.3849C58.2165 20.4182 58.3472 20.4335 58.478 20.4305C58.5752 20.4311 58.6721 20.4197 58.7666 20.3967C58.8454 20.3765 58.9198 20.3417 58.986 20.2938C59.0468 20.2495 59.0962 20.1911 59.1303 20.1233C59.1645 20.0494 59.1813 19.9684 59.1793 19.8867C59.1806 19.8142 59.1642 19.7425 59.1317 19.678C59.095 19.6134 59.0422 19.5597 58.9788 19.5222C58.8961 19.4743 58.8065 19.4401 58.7132 19.4208C58.5844 19.3954 58.4534 19.3835 58.3222 19.3856H57.9975C57.9795 19.3862 57.9616 19.3821 57.9455 19.3738C57.9317 19.3645 57.9203 19.3519 57.9123 19.3371C57.901 19.3169 57.8946 19.2942 57.8936 19.2709C57.8911 19.2387 57.8911 19.2062 57.8936 19.1739C57.8919 19.1431 57.8919 19.1122 57.8936 19.0814C57.8972 19.0599 57.904 19.039 57.9138 19.0196C57.9208 19.005 57.9318 18.9927 57.9455 18.9844C57.9607 18.9764 57.9775 18.9723 57.9946 18.9726H58.2991C58.4168 18.9746 58.5343 18.9637 58.6497 18.9403C58.7371 18.9228 58.8207 18.8895 58.8965 18.8418C58.9575 18.8035 59.0074 18.7492 59.0408 18.6846C59.0729 18.6174 59.0888 18.5433 59.087 18.4685C59.0888 18.402 59.0734 18.3361 59.0422 18.2775C59.0126 18.2227 58.9712 18.1755 58.921 18.1393C58.8642 18.1009 58.8012 18.0731 58.7349 18.057C58.6573 18.0385 58.5779 18.0291 58.4982 18.0291C58.3821 18.0285 58.2666 18.0444 58.1548 18.0762C58.0642 18.102 57.9759 18.1354 57.8907 18.1761C57.8157 18.2128 57.755 18.2452 57.7074 18.2745C57.6777 18.2975 57.6431 18.3131 57.6064 18.3201C57.5957 18.3202 57.5852 18.3171 57.5761 18.3113C57.5647 18.3044 57.5556 18.2942 57.5501 18.2819C57.5409 18.2636 57.5355 18.2436 57.5343 18.2231C57.5318 18.1928 57.5318 18.1623 57.5343 18.132C57.5337 18.0826 57.5385 18.0333 57.5487 17.985C57.5576 17.9489 57.5761 17.9158 57.6021 17.8895C57.6435 17.8525 57.6896 17.8214 57.7392 17.7969C57.8117 17.7575 57.8881 17.726 57.9672 17.7029C58.0617 17.673 58.1581 17.6499 58.2558 17.6338C58.3601 17.6148 58.4659 17.6054 58.5718 17.6059C58.7176 17.6044 58.863 17.6212 59.0047 17.6558C59.126 17.6855 59.2406 17.7383 59.3424 17.8116C59.435 17.8779 59.5103 17.9662 59.5617 18.0688C59.6157 18.1797 59.6424 18.3022 59.6397 18.4259C59.6437 18.5856 59.5927 18.7416 59.4954 18.8668C59.4441 18.9305 59.3838 18.9859 59.3164 19.0314C59.2434 19.0803 59.1636 19.1179 59.0798 19.1431C59.1668 19.1525 59.2513 19.1779 59.3294 19.218C59.4115 19.2576 59.4862 19.3113 59.5502 19.3768C59.6162 19.4431 59.6695 19.5213 59.7075 19.6075C59.7384 19.7 59.7502 19.7981 59.7421 19.8955Z" fill="#484848"/>
<path d="M62.5242 20.7214C62.5248 20.7326 62.5227 20.7438 62.5182 20.754C62.5137 20.7643 62.5069 20.7732 62.4983 20.7802C62.4772 20.7954 62.453 20.8054 62.4276 20.8096C62.3838 20.8179 62.3393 20.8213 62.2948 20.8199C62.2498 20.8211 62.2049 20.8176 62.1606 20.8096C62.134 20.8062 62.1087 20.7961 62.087 20.7802C62.0795 20.7725 62.0737 20.7633 62.07 20.7532C62.0662 20.7431 62.0647 20.7322 62.0653 20.7214V20.4275C61.9419 20.5612 61.7951 20.6703 61.6324 20.7494C61.4774 20.8265 61.3071 20.8662 61.1346 20.8655C60.9934 20.8669 60.8528 20.8466 60.7175 20.8052C60.6014 20.7684 60.4939 20.7079 60.4015 20.6274C60.3132 20.5503 60.2432 20.4538 60.1966 20.3452C60.1471 20.2237 60.1226 20.0932 60.1244 19.9617C60.1198 19.8084 60.1541 19.6565 60.224 19.5208C60.2936 19.3955 60.3928 19.2899 60.5126 19.2136C60.6543 19.1257 60.8102 19.064 60.973 19.0314C61.1741 18.9881 61.3793 18.9674 61.5848 18.9697H61.986V18.7389C61.9878 18.6368 61.9756 18.5349 61.9499 18.4362C61.9297 18.3545 61.8906 18.2789 61.8359 18.2158C61.7788 18.1555 61.7079 18.1105 61.6295 18.085C61.5294 18.0519 61.4245 18.0365 61.3193 18.0394C61.1993 18.0378 61.0797 18.0542 60.9643 18.0879C60.8696 18.1151 60.7774 18.1505 60.6887 18.1937C60.6108 18.2319 60.5444 18.2672 60.491 18.2981C60.4565 18.3237 60.4164 18.3403 60.3741 18.3466C60.3578 18.3469 60.3417 18.3423 60.3279 18.3333C60.3136 18.3233 60.3022 18.3096 60.2947 18.2937C60.2835 18.2727 60.2761 18.2498 60.2731 18.226C60.2683 18.1959 60.2659 18.1655 60.2659 18.1349C60.265 18.0915 60.2689 18.0482 60.2774 18.0056C60.2865 17.97 60.3061 17.9382 60.3337 17.9145C60.3776 17.8754 60.4261 17.8418 60.478 17.8146C60.5568 17.7714 60.6394 17.736 60.7248 17.7087C60.8281 17.676 60.9337 17.6515 61.0408 17.6353C61.1508 17.6148 61.2623 17.6045 61.3741 17.6044C61.5552 17.6001 61.7358 17.6244 61.9095 17.6764C62.0435 17.7171 62.1658 17.7902 62.2659 17.8895C62.3589 17.9867 62.4268 18.1059 62.4636 18.2363C62.5064 18.3942 62.5268 18.5575 62.5242 18.7213V20.7214ZM61.9932 19.365H61.5372C61.4087 19.3633 61.2805 19.3761 61.1548 19.4032C61.0593 19.4233 60.9683 19.4611 60.8864 19.5149C60.8194 19.5589 60.7651 19.6203 60.7291 19.6927C60.6947 19.7676 60.6774 19.8496 60.6786 19.9323C60.6753 20.0005 60.6864 20.0686 60.7113 20.132C60.7363 20.1954 60.7743 20.2526 60.8229 20.2997C60.9345 20.397 61.0788 20.4465 61.2255 20.4378C61.3631 20.4383 61.4983 20.4007 61.6166 20.3291C61.7576 20.2375 61.8846 20.125 61.9932 19.9955V19.365Z" fill="#484848"/>
<path d="M65.7682 20.7214C65.7685 20.7376 65.764 20.7535 65.7552 20.767C65.7439 20.7806 65.7296 20.7912 65.7134 20.7979C65.6874 20.808 65.6602 20.8144 65.6326 20.817C65.5893 20.8197 65.5459 20.8197 65.5027 20.817C65.4585 20.8197 65.4141 20.8197 65.3699 20.817C65.3418 20.8144 65.3141 20.8079 65.2877 20.7979C65.2703 20.7919 65.2548 20.7812 65.2429 20.767C65.2326 20.754 65.2266 20.7381 65.2256 20.7214V18.1247H63.8374V20.7214C63.8378 20.7376 63.8332 20.7535 63.8244 20.767C63.8123 20.7809 63.7969 20.7915 63.7797 20.7979C63.7532 20.8079 63.7256 20.8144 63.6974 20.817C63.6542 20.8197 63.6108 20.8197 63.5676 20.817C63.5248 20.8197 63.4819 20.8197 63.4391 20.817C63.4106 20.8142 63.3825 20.8078 63.3554 20.7979C63.3392 20.7935 63.325 20.7834 63.3152 20.7695C63.3055 20.7555 63.3008 20.7385 63.302 20.7214V17.8587C63.2974 17.8056 63.3135 17.7528 63.3468 17.7117C63.3624 17.6952 63.3813 17.6823 63.4022 17.6739C63.4231 17.6656 63.4456 17.6619 63.468 17.6632H65.6023C65.6245 17.6619 65.6467 17.6656 65.6674 17.674C65.6881 17.6823 65.7067 17.6952 65.722 17.7117C65.7531 17.7538 65.768 17.8061 65.7639 17.8587L65.7682 20.7214Z" fill="#484848"/>
<path d="M69.1552 20.7214C69.1544 20.7365 69.1499 20.7512 69.1422 20.7641C69.1311 20.7785 69.116 20.7893 69.0989 20.7949C69.0727 20.8039 69.0456 20.8098 69.0181 20.8126C68.9322 20.8224 68.8456 20.8224 68.7598 20.8126C68.7309 20.8094 68.7024 20.8035 68.6746 20.7949C68.6567 20.7901 68.641 20.7792 68.6299 20.7641C68.6215 20.7515 68.617 20.7366 68.6169 20.7214V19.0123C68.6169 18.9271 68.6169 18.8389 68.6169 18.7507C68.6169 18.6625 68.627 18.5743 68.6342 18.4876C68.5837 18.5758 68.5289 18.6625 68.4697 18.7463C68.4106 18.8301 68.3514 18.9153 68.2908 18.9991L67.0584 20.7214L67.018 20.767C67.0058 20.7809 66.9905 20.7915 66.9733 20.7979C66.9512 20.807 66.9278 20.8125 66.904 20.814C66.8694 20.8166 66.8347 20.8166 66.8001 20.814C66.7612 20.8168 66.7222 20.8168 66.6832 20.814C66.6586 20.8111 66.6344 20.8052 66.6111 20.7964C66.5949 20.7911 66.5811 20.7802 66.5721 20.7655C66.5642 20.7528 66.5601 20.738 66.5606 20.7229V17.7455C66.5601 17.7304 66.5642 17.7156 66.5721 17.7029C66.5822 17.6877 66.5969 17.6764 66.614 17.6705C66.6404 17.6605 66.6681 17.654 66.6962 17.6514C66.7309 17.6514 66.7727 17.6514 66.8232 17.6514C66.8953 17.6475 66.9675 17.656 67.0368 17.6764C67.0528 17.6808 67.0671 17.6903 67.0775 17.7035C67.0879 17.7167 67.0938 17.733 67.0945 17.7499V19.4693C67.0945 19.5546 67.0945 19.6398 67.0945 19.7236C67.0945 19.8073 67.0844 19.8926 67.0772 19.9763C67.1277 19.8926 67.1782 19.8118 67.2215 19.7309C67.2648 19.6501 67.3268 19.5722 67.3846 19.4958L68.6386 17.7499C68.6505 17.7334 68.664 17.7181 68.679 17.7043C68.6937 17.6901 68.7115 17.6795 68.7309 17.6735C68.7542 17.6647 68.7784 17.6588 68.8031 17.6558C68.8305 17.6558 68.868 17.6558 68.9127 17.6558C68.9575 17.6558 68.9964 17.6558 69.0282 17.6558C69.054 17.6585 69.0792 17.6649 69.1032 17.6749C69.1188 17.682 69.1322 17.6932 69.1422 17.7073C69.1499 17.7217 69.1538 17.7379 69.1537 17.7543L69.1552 20.7214Z" fill="#484848"/>
<path d="M72.0412 20.2659C72.0412 20.3026 72.0412 20.3349 72.0412 20.3629C72.0403 20.3863 72.0364 20.4095 72.0296 20.4319C72.0247 20.4491 72.0184 20.4658 72.0108 20.4819C71.996 20.505 71.9786 20.5262 71.9589 20.5451C71.914 20.5835 71.8657 20.6174 71.8146 20.6465C71.7454 20.6894 71.6724 20.7258 71.5967 20.7552C71.5109 20.7886 71.4226 20.8146 71.3326 20.8331C71.2375 20.8523 71.1409 20.8621 71.044 20.8625C70.8532 20.8662 70.6637 20.8302 70.487 20.7567C70.3288 20.6888 70.1892 20.5829 70.08 20.4481C69.9653 20.3005 69.8804 20.1312 69.8304 19.9499C69.7706 19.7283 69.7419 19.4992 69.7453 19.2695C69.7375 19.0149 69.7706 18.7607 69.8434 18.517C69.9021 18.326 70.0005 18.15 70.132 18.0012C70.252 17.8705 70.4002 17.7699 70.5649 17.7073C70.7364 17.6414 70.9184 17.6085 71.1017 17.6103C71.2762 17.6109 71.4492 17.6432 71.6126 17.7058C71.6811 17.7318 71.7468 17.7648 71.8088 17.8043C71.8529 17.8323 71.8945 17.8642 71.9329 17.8998C71.9532 17.9186 71.9711 17.9398 71.9863 17.963C71.9973 17.9796 72.0056 17.998 72.0108 18.0174C72.0185 18.0401 72.0228 18.0639 72.0238 18.0879C72.0255 18.1207 72.0255 18.1536 72.0238 18.1864C72.0289 18.2481 72.019 18.3102 71.995 18.3671C71.9889 18.3815 71.9792 18.3939 71.9667 18.4029C71.9542 18.412 71.9395 18.4174 71.9243 18.4186C71.8819 18.4136 71.8423 18.3945 71.8117 18.3642C71.7607 18.3208 71.7072 18.2806 71.6515 18.2437C71.5783 18.1948 71.4998 18.1544 71.4178 18.1232C71.3133 18.0846 71.2027 18.0661 71.0916 18.0688C70.9766 18.0623 70.8618 18.0859 70.7582 18.1374C70.6547 18.1888 70.5658 18.2664 70.5 18.3627C70.346 18.6289 70.2745 18.9363 70.2951 19.2445C70.2924 19.4136 70.3103 19.5824 70.3484 19.7471C70.3779 19.8767 70.4313 19.9994 70.5057 20.1086C70.5703 20.2021 70.6579 20.2766 70.7597 20.3247C70.8682 20.3735 70.986 20.3976 71.1046 20.3952C71.2151 20.3978 71.325 20.3778 71.4279 20.3364C71.5128 20.3013 71.594 20.2575 71.6703 20.2056C71.7381 20.1586 71.7944 20.116 71.842 20.0778C71.871 20.0469 71.9089 20.0263 71.9502 20.019C71.9643 20.0189 71.978 20.0235 71.9892 20.0322C72.0017 20.045 72.0111 20.0606 72.0166 20.0778C72.025 20.103 72.0303 20.1291 72.0325 20.1556C72.0383 20.185 72.0412 20.2218 72.0412 20.2659Z" fill="#484848"/>
<path d="M74.9705 19.7736C74.9717 19.9198 74.9437 20.0648 74.8882 20.1997C74.8317 20.3338 74.7435 20.4514 74.6314 20.5422C74.4984 20.6476 74.3464 20.7255 74.184 20.7714C73.9723 20.8319 73.7531 20.8606 73.5332 20.8566H73.3514C73.2893 20.8566 73.2273 20.8566 73.1667 20.8566L72.9892 20.8449L72.8175 20.8287C72.7791 20.8291 72.741 20.8211 72.706 20.8051C72.6709 20.7891 72.6397 20.7655 72.6145 20.7361C72.5892 20.7066 72.5706 20.6719 72.5598 20.6343C72.549 20.5968 72.5463 20.5573 72.5519 20.5186V17.7499C72.5516 17.7339 72.5556 17.7182 72.5635 17.7043C72.5744 17.6901 72.5889 17.6789 72.6053 17.672C72.6315 17.6607 72.6593 17.6537 72.6876 17.6514C72.7222 17.6514 72.7655 17.6514 72.8175 17.6514C72.8694 17.6514 72.9127 17.6514 72.9473 17.6514C72.9757 17.6537 73.0034 17.6607 73.0296 17.672C73.0462 17.6793 73.061 17.6904 73.0729 17.7043C73.0818 17.7177 73.0864 17.7337 73.0859 17.7499V18.7948C73.1667 18.7948 73.2518 18.783 73.3456 18.7801C73.4394 18.7772 73.5332 18.7801 73.6342 18.7801C73.839 18.7768 74.0432 18.801 74.2417 18.8521C74.3924 18.8902 74.5338 18.9592 74.6573 19.0549C74.762 19.1375 74.8444 19.2457 74.8969 19.3694C74.9481 19.4976 74.9731 19.6351 74.9705 19.7736ZM74.4077 19.8103C74.4085 19.7266 74.3943 19.6434 74.3658 19.5649C74.3356 19.4898 74.2857 19.4248 74.2215 19.3768C74.1461 19.3202 74.0602 19.2797 73.969 19.2577C73.8437 19.2283 73.7152 19.2145 73.5866 19.2166C73.4957 19.2166 73.4077 19.2166 73.3196 19.2239C73.2316 19.2313 73.1537 19.2327 73.0815 19.2401V20.3805C73.1566 20.3893 73.2388 20.3981 73.324 20.404C73.4091 20.4099 73.5072 20.4143 73.6126 20.4143C73.8233 20.4311 74.0334 20.3747 74.2085 20.2541C74.2737 20.2013 74.3256 20.1336 74.3602 20.0564C74.3948 19.9793 74.4111 19.895 74.4077 19.8103Z" fill="#484848"/>
<path d="M78.9187 19.1607C78.922 19.4049 78.8914 19.6483 78.8277 19.8838C78.7761 20.0782 78.6857 20.2598 78.5622 20.4172C78.4469 20.5625 78.2982 20.6765 78.1293 20.7494C77.9376 20.8276 77.7326 20.8661 77.5261 20.8625C77.4163 20.8633 77.3067 20.854 77.1985 20.8346C77.107 20.8179 77.0168 20.7944 76.9287 20.7641C76.8587 20.7395 76.7915 20.7075 76.7281 20.6685C76.6868 20.6436 76.6477 20.615 76.6112 20.5833C76.5934 20.5682 76.577 20.5515 76.5622 20.5333C76.5521 20.5181 76.5448 20.5012 76.5405 20.4834C76.534 20.4604 76.5301 20.4367 76.529 20.4128C76.529 20.3849 76.529 20.3496 76.529 20.3085C76.5247 20.2506 76.5326 20.1925 76.552 20.138C76.5576 20.1254 76.5665 20.1146 76.5777 20.1069C76.5889 20.0991 76.602 20.0946 76.6155 20.0939C76.6523 20.1001 76.6858 20.1187 76.7108 20.1468C76.7622 20.1899 76.8173 20.2282 76.8753 20.2615C76.9582 20.3074 77.0452 20.3453 77.135 20.3746C77.2609 20.4129 77.3919 20.4307 77.5232 20.4275C77.6371 20.433 77.7509 20.4129 77.8563 20.3687C77.9618 20.3245 78.0565 20.2573 78.1336 20.1718C78.3015 19.9494 78.3887 19.6748 78.3804 19.3944H76.9143C76.8991 19.3944 76.8842 19.39 76.8714 19.3816C76.8586 19.3733 76.8485 19.3614 76.8421 19.3474C76.8215 19.2977 76.8126 19.2439 76.8161 19.1901C76.8125 19.1368 76.8214 19.0834 76.8421 19.0343C76.8484 19.0201 76.8585 19.008 76.8713 18.9994C76.884 18.9908 76.899 18.9861 76.9143 18.9858H78.3717C78.3608 18.8519 78.3326 18.72 78.288 18.5935C78.248 18.4844 78.1872 18.3845 78.1091 18.2995C78.0337 18.2168 77.9416 18.1517 77.8392 18.1085C77.7257 18.0615 77.6039 18.0385 77.4814 18.0409C77.3675 18.0384 77.2541 18.0568 77.1466 18.0953C77.0599 18.1258 76.9767 18.1657 76.8984 18.2143C76.8401 18.2497 76.7842 18.289 76.731 18.3319C76.7056 18.3597 76.6723 18.3788 76.6357 18.3862C76.6238 18.3869 76.6121 18.3833 76.6026 18.376C76.5914 18.3664 76.5825 18.3543 76.5766 18.3407C76.5669 18.3199 76.5611 18.2975 76.5593 18.2745C76.5575 18.2393 76.5575 18.204 76.5593 18.1687C76.5576 18.1374 76.5576 18.106 76.5593 18.0747C76.5593 18.0497 76.5665 18.0291 76.5708 18.0115C76.5745 17.9958 76.5798 17.9805 76.5867 17.9659C76.5968 17.9502 76.6089 17.9358 76.6228 17.9233C76.6562 17.8946 76.6914 17.8681 76.7281 17.844C76.7919 17.8025 76.859 17.7666 76.9287 17.7367C77.0222 17.6977 77.1187 17.6667 77.2173 17.6441C77.3333 17.6173 77.4519 17.6045 77.5708 17.6059C77.7585 17.6035 77.9447 17.6385 78.1192 17.7087C78.2843 17.7755 78.4323 17.8795 78.5521 18.013C78.6771 18.1547 78.772 18.3214 78.8306 18.5023C78.895 18.7155 78.9247 18.9378 78.9187 19.1607Z" fill="#484848"/>
<path d="M81.8841 20.7406C81.884 20.7533 81.8799 20.7656 81.8725 20.7758C81.861 20.7875 81.8465 20.7957 81.8307 20.7993C81.8044 20.8075 81.7773 20.8125 81.7499 20.814C81.7071 20.8167 81.6642 20.8167 81.6214 20.814C81.5734 20.8167 81.5252 20.8167 81.4771 20.814C81.4459 20.8108 81.415 20.8049 81.3848 20.7964C81.3654 20.791 81.3476 20.7809 81.3328 20.767C81.3228 20.755 81.3155 20.741 81.3112 20.7259L80.9995 19.9573C80.9651 19.8687 80.9236 19.7832 80.8754 19.7015C80.8352 19.6343 80.7828 19.5755 80.721 19.5281C80.6617 19.4837 80.5945 19.4513 80.5233 19.4326C80.4406 19.4121 80.3558 19.4023 80.2707 19.4032H80.0442V20.7391C80.0432 20.7515 80.0375 20.7631 80.0283 20.7714C80.0146 20.7845 79.9976 20.7937 79.9792 20.7979C79.9519 20.8059 79.9239 20.8113 79.8955 20.814C79.8557 20.8165 79.8157 20.8165 79.7758 20.814C79.7359 20.8166 79.6959 20.8166 79.656 20.814C79.6276 20.8115 79.5996 20.806 79.5723 20.7979C79.5541 20.7944 79.5374 20.7851 79.5247 20.7714C79.5159 20.763 79.5107 20.7514 79.5103 20.7391V17.7235C79.5103 17.7173 79.5116 17.7113 79.5141 17.7057C79.5166 17.7002 79.5202 17.6952 79.5247 17.6911C79.5387 17.6796 79.5549 17.671 79.5723 17.6661C79.5998 17.6593 79.6278 17.6544 79.656 17.6514C79.6906 17.6514 79.7296 17.6514 79.7758 17.6514C79.822 17.6514 79.8609 17.6514 79.8955 17.6514C79.9237 17.6545 79.9517 17.6594 79.9792 17.6661C79.9968 17.6717 80.0134 17.6802 80.0283 17.6911C80.033 17.6951 80.0368 17.7001 80.0395 17.7056C80.0423 17.7112 80.0438 17.7172 80.0442 17.7235V18.9667H80.2707C80.3466 18.9671 80.4223 18.9577 80.4959 18.9388C80.563 18.92 80.6262 18.8886 80.682 18.8462C80.7391 18.7992 80.7879 18.7425 80.8263 18.6787C80.8747 18.6007 80.9153 18.518 80.9475 18.4318L81.2188 17.7499C81.2226 17.7325 81.2305 17.7164 81.2419 17.7029C81.2553 17.688 81.2722 17.6769 81.291 17.6705C81.3184 17.6603 81.347 17.6539 81.3761 17.6514C81.4122 17.6514 81.4584 17.6514 81.5204 17.6514C81.5825 17.6514 81.6142 17.6514 81.6474 17.6514C81.6737 17.654 81.6998 17.6589 81.7253 17.6661C81.7397 17.671 81.7527 17.6796 81.7628 17.6911C81.769 17.7008 81.7725 17.712 81.7729 17.7235C81.7727 17.7443 81.7698 17.7651 81.7643 17.7852C81.7577 17.8111 81.7495 17.8367 81.7398 17.8616L81.4627 18.517C81.4247 18.6147 81.3763 18.7079 81.3184 18.7948C81.2739 18.8622 81.2221 18.9244 81.164 18.98C81.1167 19.0261 81.0633 19.0652 81.0052 19.0961C80.9552 19.1221 80.9031 19.1437 80.8494 19.1607C80.922 19.1857 80.992 19.2177 81.0586 19.2563C81.1261 19.2953 81.1882 19.3433 81.2433 19.3988C81.3022 19.4575 81.354 19.5231 81.3978 19.5943C81.4495 19.6778 81.4939 19.7658 81.5305 19.8573L81.8509 20.6083C81.8588 20.6219 81.8655 20.6361 81.8711 20.6509C81.8711 20.6641 81.8711 20.6774 81.8812 20.6891C81.8913 20.7009 81.8812 20.7112 81.8812 20.7185C81.8828 20.7258 81.8837 20.7331 81.8841 20.7406Z" fill="#484848"/>
<path d="M85.0661 19.1872C85.069 19.423 85.0413 19.6582 84.9839 19.8867C84.9368 20.0762 84.8545 20.2548 84.7415 20.4128C84.6369 20.554 84.5008 20.6678 84.3446 20.745C84.1754 20.8258 83.9903 20.866 83.8035 20.8625C83.7229 20.8632 83.6425 20.8543 83.5639 20.8361C83.4892 20.8178 83.417 20.7902 83.3489 20.7538C83.2743 20.7124 83.2041 20.6632 83.1397 20.6068C83.0704 20.551 82.9954 20.4834 82.9189 20.4069V21.8971C82.919 21.9133 82.9145 21.9291 82.9059 21.9427C82.8954 21.9575 82.8809 21.9687 82.8641 21.975C82.8382 21.9858 82.811 21.9927 82.7832 21.9956C82.739 21.9982 82.6947 21.9982 82.6505 21.9956C82.6072 21.9982 82.5639 21.9982 82.5206 21.9956C82.4924 21.9926 82.4647 21.9857 82.4384 21.975C82.4213 21.9692 82.4066 21.9578 82.3965 21.9427C82.389 21.9287 82.385 21.9131 82.385 21.8971V17.7499C82.3839 17.7331 82.3874 17.7163 82.3951 17.7014C82.4042 17.6869 82.4179 17.676 82.434 17.6705C82.4576 17.6607 82.4823 17.6543 82.5076 17.6514C82.5379 17.6514 82.5755 17.6514 82.6187 17.6514C82.662 17.6514 82.701 17.6514 82.7299 17.6514C82.7551 17.6546 82.7798 17.6611 82.8034 17.6705C82.8191 17.6768 82.8326 17.6875 82.8424 17.7014C82.8513 17.7159 82.8553 17.7329 82.854 17.7499V18.1482C82.9354 18.0633 83.0211 17.9829 83.1108 17.9071C83.1873 17.8425 83.27 17.7859 83.3576 17.7381C83.4389 17.6937 83.5251 17.6592 83.6144 17.6353C83.7045 17.6119 83.7971 17.6005 83.8901 17.6015C84.0779 17.5954 84.2642 17.6384 84.4312 17.7264C84.579 17.8078 84.7044 17.9255 84.7963 18.0688C84.8918 18.2244 84.9592 18.3961 84.9954 18.5758C85.0416 18.7762 85.0653 18.9813 85.0661 19.1872ZM84.512 19.2504C84.5121 19.1028 84.501 18.9554 84.4788 18.8095C84.4591 18.678 84.4191 18.5506 84.3605 18.4318C84.3094 18.3264 84.233 18.2359 84.1383 18.1687C84.0348 18.0996 83.9128 18.0646 83.789 18.0688C83.7195 18.0685 83.6503 18.0794 83.5841 18.1011C83.5116 18.1238 83.4426 18.157 83.3792 18.1996C83.3007 18.2516 83.2273 18.3111 83.1599 18.3774C83.0741 18.4629 82.9936 18.5537 82.9189 18.6493V19.825C83.0416 19.982 83.1832 20.1227 83.3403 20.2438C83.4596 20.3371 83.6054 20.3887 83.7559 20.3908C83.8789 20.3946 84.0002 20.3603 84.1036 20.2923C84.2016 20.2245 84.2823 20.1338 84.3388 20.0278C84.4002 19.9121 84.4444 19.7878 84.4702 19.6589C84.4981 19.5251 84.5121 19.3887 84.512 19.2518V19.2504Z" fill="#484848"/>
<path d="M87.8655 20.7214C87.8661 20.7326 87.864 20.7438 87.8595 20.754C87.855 20.7643 87.8482 20.7732 87.8396 20.7802C87.8185 20.7954 87.7943 20.8054 87.7688 20.8096C87.7251 20.8179 87.6806 20.8213 87.6361 20.8199C87.5911 20.8211 87.5462 20.8176 87.5019 20.8096C87.4753 20.8062 87.45 20.7961 87.4283 20.7802C87.4208 20.7725 87.415 20.7633 87.4113 20.7532C87.4075 20.7431 87.406 20.7322 87.4067 20.7214V20.4275C87.2832 20.5612 87.1364 20.6703 86.9737 20.7494C86.8187 20.8265 86.6484 20.8662 86.4759 20.8655C86.3352 20.867 86.195 20.8467 86.0603 20.8052C85.9436 20.7688 85.8355 20.7082 85.7428 20.6274C85.6545 20.5503 85.5845 20.4538 85.5379 20.3452C85.4885 20.2237 85.4639 20.0932 85.4658 19.9617C85.4611 19.8084 85.4954 19.6565 85.5653 19.5208C85.6349 19.3955 85.7341 19.2899 85.8539 19.2136C85.9956 19.1257 86.1515 19.064 86.3143 19.0314C86.5154 18.9882 86.7206 18.9675 86.9261 18.9697H87.3273V18.7389C87.3288 18.6369 87.3172 18.5351 87.2926 18.4362C87.2719 18.3544 87.2324 18.2788 87.1772 18.2158C87.1201 18.1555 87.0492 18.1105 86.9708 18.085C86.8707 18.0519 86.7658 18.0364 86.6606 18.0394C86.5406 18.0378 86.421 18.0542 86.3056 18.0879C86.2113 18.1148 86.1196 18.1503 86.0314 18.1937C85.9521 18.2319 85.8871 18.2672 85.8337 18.2981C85.7986 18.3235 85.7581 18.3401 85.7154 18.3466C85.6991 18.3469 85.683 18.3423 85.6692 18.3333C85.6553 18.3229 85.644 18.3093 85.636 18.2937C85.6248 18.2727 85.6174 18.2498 85.6144 18.226C85.6121 18.1957 85.6121 18.1653 85.6144 18.1349C85.6128 18.0915 85.6167 18.048 85.6259 18.0056C85.6349 17.9704 85.654 17.9387 85.6808 17.9145C85.7247 17.8754 85.7732 17.8418 85.8251 17.8146C85.9038 17.7714 85.9865 17.736 86.0718 17.7087C86.1712 17.6745 86.273 17.648 86.3763 17.6294C86.4863 17.6088 86.5979 17.5985 86.7097 17.5985C86.8902 17.5943 87.0703 17.6186 87.2436 17.6705C87.3775 17.7112 87.4998 17.7843 87.6 17.8836C87.693 17.9809 87.7609 18.1 87.7977 18.2305C87.8405 18.3884 87.8609 18.5517 87.8583 18.7154L87.8655 20.7214ZM87.3345 19.365H86.8785C86.75 19.3633 86.6218 19.3761 86.4961 19.4032C86.4006 19.4233 86.3096 19.4611 86.2277 19.5149C86.1607 19.5589 86.1064 19.6203 86.0704 19.6927C86.036 19.7676 86.0187 19.8495 86.0199 19.9323C86.0166 20.0005 86.0277 20.0686 86.0527 20.132C86.0776 20.1954 86.1156 20.2526 86.1642 20.2997C86.2766 20.3965 86.4212 20.4459 86.5682 20.4378C86.7054 20.4384 86.8401 20.4008 86.9579 20.3291C87.0989 20.2375 87.2259 20.125 87.3345 19.9955V19.365Z" fill="#484848"/>
<path d="M91.2004 20.7214C91.2008 20.7376 91.1962 20.7535 91.1874 20.767C91.1761 20.7806 91.1618 20.7912 91.1456 20.7979C91.1196 20.808 91.0924 20.8144 91.0648 20.817C91.0215 20.8197 90.9781 20.8197 90.9349 20.817C90.8907 20.8197 90.8464 20.8197 90.8021 20.817C90.7744 20.8146 90.7472 20.8082 90.7213 20.7979C90.7049 20.7916 90.6905 20.7809 90.6795 20.767C90.6707 20.7535 90.6662 20.7376 90.6665 20.7214V19.4194H89.1802V20.7214C89.1805 20.7376 89.176 20.7535 89.1672 20.767C89.1559 20.7806 89.1415 20.7912 89.1253 20.7979C89.0989 20.8079 89.0712 20.8144 89.0431 20.817C88.9989 20.8197 88.9545 20.8197 88.9103 20.817C88.8675 20.8196 88.8247 20.8196 88.7819 20.817C88.7533 20.8142 88.7252 20.8078 88.6982 20.7979C88.6818 20.7916 88.6673 20.7809 88.6563 20.767C88.6486 20.7531 88.6447 20.7374 88.6448 20.7214V17.7499C88.6444 17.7339 88.6484 17.7182 88.6563 17.7043C88.6676 17.6904 88.6819 17.6793 88.6982 17.672C88.7249 17.6609 88.7531 17.654 88.7819 17.6514C88.8165 17.6514 88.8598 17.6514 88.9103 17.6514C88.9608 17.6514 89.0084 17.6514 89.0431 17.6514C89.0714 17.6537 89.0992 17.6607 89.1253 17.672C89.1413 17.6797 89.1556 17.6907 89.1672 17.7043C89.1761 17.7177 89.1807 17.7337 89.1802 17.7499V18.9579H90.6665V17.7514C90.666 17.7352 90.6705 17.7192 90.6795 17.7058C90.6907 17.6918 90.7051 17.6808 90.7213 17.6735C90.7469 17.6619 90.7742 17.655 90.8021 17.6529C90.8368 17.6529 90.8815 17.6529 90.9349 17.6529C90.9883 17.6529 91.0301 17.6529 91.0648 17.6529C91.0926 17.6552 91.12 17.6621 91.1456 17.6735C91.1616 17.6812 91.1758 17.6922 91.1874 17.7058C91.1964 17.7192 91.2009 17.7352 91.2004 17.7514V20.7214Z" fill="#484848"/>
<path d="M94.192 20.7214C94.1926 20.7326 94.1905 20.7438 94.186 20.754C94.1815 20.7643 94.1747 20.7732 94.1661 20.7802C94.1445 20.7954 94.1198 20.8054 94.0939 20.8096C94.0501 20.8179 94.0056 20.8214 93.9611 20.8199C93.9162 20.8211 93.8712 20.8176 93.8269 20.8096C93.8007 20.8067 93.7757 20.7966 93.7548 20.7802C93.7468 20.7729 93.7406 20.7637 93.7366 20.7536C93.7326 20.7434 93.7309 20.7324 93.7317 20.7214V20.4275C93.6107 20.5608 93.4663 20.67 93.306 20.7494C93.1511 20.8266 92.9807 20.8664 92.8081 20.8655C92.6674 20.867 92.5273 20.8467 92.3925 20.8052C92.276 20.7684 92.168 20.7079 92.0751 20.6274C91.9872 20.5502 91.9177 20.4537 91.8716 20.3452C91.821 20.224 91.7959 20.0933 91.798 19.9617C91.7934 19.8082 91.8282 19.6563 91.899 19.5208C91.9684 19.3954 92.0677 19.2897 92.1876 19.2136C92.3293 19.1257 92.4852 19.064 92.648 19.0314C92.8491 18.9882 93.0543 18.9675 93.2598 18.9697H93.6624V18.7389C93.6635 18.6369 93.6514 18.5351 93.6264 18.4362C93.6062 18.3542 93.5666 18.2785 93.5109 18.2158C93.4543 18.1555 93.3839 18.1106 93.306 18.085C93.2054 18.0519 93.1 18.0365 92.9943 18.0394C92.8747 18.0377 92.7556 18.0541 92.6407 18.0879C92.5459 18.1146 92.4537 18.15 92.3651 18.1937C92.2858 18.2319 92.2208 18.2672 92.1674 18.2981C92.1323 18.3235 92.0917 18.3401 92.0491 18.3466C92.0332 18.3469 92.0176 18.3423 92.0044 18.3333C91.99 18.323 91.9782 18.3094 91.9697 18.2937C91.9585 18.2727 91.9511 18.2498 91.9481 18.226C91.9458 18.1957 91.9458 18.1653 91.9481 18.1349C91.9465 18.0915 91.9504 18.048 91.9596 18.0056C91.9686 17.9704 91.9877 17.9387 92.0145 17.9145C92.0584 17.8754 92.1069 17.8418 92.1588 17.8146C92.2378 17.7719 92.3204 17.7365 92.4055 17.7087C92.505 17.6747 92.6067 17.6482 92.71 17.6294C92.82 17.6088 92.9316 17.5985 93.0434 17.5985C93.2239 17.5942 93.4041 17.6185 93.5773 17.6705C93.7112 17.7112 93.8335 17.7843 93.9337 17.8836C94.0272 17.9805 94.0952 18.0998 94.1314 18.2305C94.1747 18.3883 94.1956 18.5516 94.1935 18.7154L94.192 20.7214ZM93.661 19.365H93.2035C93.0751 19.3633 92.9468 19.3761 92.8211 19.4032C92.7257 19.4233 92.6347 19.4611 92.5527 19.5149C92.4861 19.5594 92.4319 19.6206 92.3954 19.6927C92.361 19.7676 92.3437 19.8495 92.3449 19.9323C92.342 20.0004 92.3533 20.0684 92.3782 20.1318C92.4031 20.1951 92.4409 20.2524 92.4892 20.2997C92.6017 20.3965 92.7462 20.4459 92.8933 20.4378C93.0305 20.4384 93.1652 20.4008 93.2829 20.3291C93.4241 20.2371 93.5515 20.1247 93.661 19.9955V19.365Z" fill="#484848"/>
<path d="M98.6669 19.8632C98.6695 20.0072 98.6399 20.1499 98.5803 20.2806C98.521 20.4039 98.4315 20.5096 98.3206 20.5877C98.189 20.6772 98.0422 20.741 97.8877 20.7758C97.6922 20.8209 97.4921 20.8421 97.2917 20.839H97.0839H96.8905L96.7044 20.8273L96.5211 20.8111C96.4849 20.8107 96.4492 20.8026 96.4162 20.7872C96.3833 20.7718 96.354 20.7495 96.3302 20.7218C96.3063 20.694 96.2885 20.6614 96.2779 20.6262C96.2673 20.5909 96.2641 20.5538 96.2686 20.5172V17.9601C96.264 17.8861 96.285 17.8128 96.3277 17.7528C96.3754 17.7009 96.4413 17.6702 96.511 17.6676C96.5673 17.6603 96.6279 17.6544 96.6914 17.65L96.8876 17.6397C96.954 17.6397 97.0233 17.6397 97.094 17.6309C97.1647 17.622 97.2383 17.6309 97.3119 17.6309C97.4946 17.6282 97.677 17.646 97.8559 17.6838C97.9909 17.7116 98.1199 17.7639 98.2369 17.8381C98.3334 17.899 98.4113 17.986 98.462 18.0894C98.5128 18.1949 98.5381 18.3113 98.5356 18.4289C98.5393 18.5827 98.4931 18.7335 98.4043 18.858C98.3059 18.9829 98.1701 19.0717 98.0175 19.1108C98.2033 19.1416 98.3733 19.236 98.4995 19.3782C98.6096 19.5148 98.6689 19.6865 98.6669 19.8632ZM98.0233 18.4847C98.0245 18.4179 98.0112 18.3517 97.9843 18.2907C97.9561 18.2303 97.9115 18.1793 97.8559 18.1438C97.7855 18.0998 97.7077 18.0694 97.6265 18.0541C97.5137 18.033 97.3991 18.0232 97.2845 18.0247C97.1835 18.0247 97.0897 18.0247 97.006 18.0335C96.9223 18.0424 96.8501 18.0453 96.7924 18.0512V18.9741H97.3364C97.5154 18.986 97.6936 18.9419 97.8473 18.8477C97.9042 18.8072 97.9503 18.7527 97.981 18.6892C98.0118 18.6258 98.0263 18.5554 98.0233 18.4847ZM98.12 19.8735C98.122 19.7937 98.1067 19.7144 98.0753 19.6413C98.0437 19.5727 97.9936 19.5146 97.931 19.4737C97.8534 19.4254 97.7678 19.392 97.6784 19.3753C97.5582 19.3513 97.4358 19.3399 97.3133 19.3415H96.7924V20.3937C96.8328 20.3937 96.8761 20.4055 96.9208 20.4099L97.0565 20.4187L97.2008 20.4275H97.3292C97.45 20.4294 97.5707 20.4166 97.6885 20.3893C97.7773 20.3689 97.8616 20.3315 97.9367 20.2791C97.9993 20.2343 98.0491 20.1735 98.081 20.1027C98.112 20.0304 98.1277 19.9523 98.1272 19.8735H98.12Z" fill="#484848"/>
<path d="M103.059 20.5745C103.06 20.61 103.056 20.6454 103.049 20.6803C103.044 20.7046 103.036 20.7279 103.023 20.7494C103.014 20.7652 103.001 20.7784 102.986 20.7876C102.972 20.7946 102.958 20.7981 102.943 20.7979H100.753C100.739 20.7983 100.724 20.7947 100.712 20.7876C100.697 20.7775 100.684 20.7645 100.674 20.7494C100.661 20.7283 100.651 20.7049 100.647 20.6803C100.639 20.6456 100.636 20.61 100.637 20.5745C100.636 20.5399 100.639 20.5054 100.647 20.4716C100.651 20.447 100.66 20.4233 100.671 20.4011C100.679 20.3842 100.691 20.3696 100.706 20.3584C100.72 20.3486 100.736 20.3434 100.753 20.3437H101.628V17.0989L100.818 17.5912C100.787 17.6093 100.754 17.6227 100.719 17.6309C100.708 17.6333 100.698 17.6332 100.687 17.6307C100.677 17.6281 100.668 17.6231 100.66 17.6162C100.641 17.5964 100.63 17.5711 100.628 17.5442C100.623 17.5027 100.62 17.461 100.621 17.4192C100.619 17.3874 100.619 17.3555 100.621 17.3237C100.623 17.3012 100.628 17.279 100.635 17.2576C100.642 17.2409 100.651 17.2255 100.663 17.212C100.677 17.1974 100.693 17.1841 100.71 17.1723L101.676 16.5419C101.685 16.535 101.696 16.5296 101.707 16.5257L101.756 16.5125C101.779 16.5076 101.801 16.5047 101.824 16.5037H101.921C101.964 16.501 102.007 16.501 102.051 16.5037C102.078 16.5064 102.105 16.5123 102.132 16.5213C102.148 16.5258 102.162 16.5362 102.171 16.5507C102.177 16.5623 102.181 16.5755 102.181 16.5889V20.3393H102.938C102.956 20.3392 102.973 20.3443 102.987 20.354C103.003 20.365 103.016 20.3796 103.025 20.3967C103.035 20.4193 103.042 20.4429 103.046 20.4672C103.054 20.5024 103.059 20.5384 103.059 20.5745Z" fill="#484848"/>
<path d="M107.393 20.7406C107.393 20.7533 107.389 20.7656 107.381 20.7758C107.37 20.7875 107.355 20.7957 107.339 20.7993C107.313 20.8075 107.286 20.8125 107.259 20.814C107.216 20.8167 107.173 20.8167 107.13 20.814C107.082 20.8167 107.034 20.8167 106.986 20.814C106.955 20.8108 106.924 20.8049 106.894 20.7964C106.874 20.7913 106.856 20.7812 106.842 20.767C106.831 20.7551 106.823 20.7411 106.818 20.7259L106.508 19.9573C106.474 19.8687 106.432 19.7832 106.384 19.7015C106.343 19.6346 106.291 19.5758 106.23 19.5281C106.17 19.4837 106.103 19.4513 106.032 19.4326C105.948 19.4103 105.862 19.3989 105.775 19.3988H105.549V20.7347C105.548 20.7471 105.542 20.7587 105.533 20.767C105.519 20.7801 105.502 20.7893 105.484 20.7935C105.456 20.8015 105.428 20.8069 105.4 20.8096C105.36 20.8121 105.32 20.8121 105.28 20.8096C105.24 20.8122 105.2 20.8122 105.16 20.8096C105.132 20.8069 105.103 20.8015 105.075 20.7935C105.057 20.79 105.041 20.7807 105.029 20.767C105.02 20.7586 105.015 20.747 105.015 20.7347V17.7235C105.015 17.7173 105.016 17.7113 105.019 17.7057C105.021 17.7002 105.025 17.6952 105.029 17.6911C105.043 17.6795 105.058 17.671 105.075 17.6661C105.103 17.6594 105.132 17.6545 105.16 17.6514C105.194 17.6514 105.234 17.6514 105.28 17.6514C105.326 17.6514 105.365 17.6514 105.4 17.6514C105.428 17.6545 105.456 17.6594 105.484 17.6661C105.501 17.6717 105.518 17.6802 105.533 17.6911C105.537 17.6951 105.541 17.7001 105.544 17.7056C105.547 17.7112 105.548 17.7172 105.549 17.7235V18.9667H105.775C105.851 18.9671 105.927 18.9577 106 18.9388C106.067 18.92 106.131 18.8886 106.186 18.8462C106.244 18.7996 106.293 18.7429 106.331 18.6787C106.38 18.6011 106.421 18.5184 106.453 18.4318L106.725 17.7499C106.728 17.7325 106.736 17.7164 106.748 17.7029C106.761 17.688 106.778 17.6769 106.797 17.6705C106.824 17.6603 106.853 17.6539 106.882 17.6514C106.918 17.6514 106.964 17.6514 107.026 17.6514C107.088 17.6514 107.12 17.6514 107.153 17.6514C107.18 17.6543 107.206 17.6592 107.231 17.6661C107.246 17.671 107.259 17.6796 107.269 17.6911C107.275 17.7008 107.278 17.712 107.279 17.7235C107.279 17.7443 107.276 17.7651 107.27 17.7852C107.264 17.8111 107.255 17.8367 107.246 17.8616L106.971 18.517C106.934 18.615 106.886 18.7082 106.827 18.7948C106.783 18.8622 106.732 18.9243 106.674 18.98C106.627 19.0261 106.573 19.0652 106.515 19.0961C106.465 19.1221 106.413 19.1437 106.36 19.1607C106.432 19.1857 106.502 19.2177 106.569 19.2563C106.634 19.2949 106.693 19.3419 106.746 19.3959C106.805 19.4546 106.857 19.5202 106.901 19.5913C106.952 19.6749 106.997 19.7629 107.033 19.8544L107.354 20.6053C107.362 20.6189 107.369 20.6332 107.374 20.648C107.378 20.6604 107.381 20.6732 107.383 20.6862V20.7156C107.387 20.7235 107.39 20.7319 107.393 20.7406Z" fill="#484848"/>
<path d="M110.286 20.7214C110.287 20.7376 110.282 20.7535 110.273 20.767C110.262 20.7809 110.248 20.7916 110.231 20.7979C110.206 20.8082 110.178 20.8146 110.151 20.817C110.107 20.8197 110.064 20.8197 110.021 20.817C109.977 20.8197 109.932 20.8197 109.888 20.817C109.86 20.8144 109.832 20.8079 109.806 20.7979C109.789 20.7915 109.774 20.7809 109.762 20.767C109.754 20.7535 109.749 20.7376 109.749 20.7214V18.1246H108.95C108.915 18.4744 108.874 18.7855 108.826 19.0578C108.784 19.2983 108.73 19.5362 108.663 19.7706C108.612 19.9478 108.543 20.1192 108.458 20.282C108.393 20.4062 108.309 20.5193 108.21 20.6171C108.127 20.698 108.029 20.7601 107.921 20.7993C107.814 20.8381 107.7 20.8575 107.586 20.8566C107.569 20.8563 107.552 20.8528 107.536 20.8464C107.521 20.8379 107.51 20.8251 107.503 20.8096C107.492 20.7863 107.485 20.7616 107.482 20.7361C107.48 20.6945 107.48 20.6528 107.482 20.6112C107.482 20.5598 107.482 20.5157 107.482 20.4834C107.484 20.4563 107.49 20.4297 107.498 20.404C107.504 20.3878 107.515 20.3739 107.529 20.3643C107.542 20.3575 107.557 20.3539 107.572 20.354C107.643 20.3543 107.712 20.3371 107.775 20.3041C107.848 20.2623 107.91 20.2046 107.957 20.1351C108.022 20.0398 108.076 19.9366 108.116 19.8279C108.173 19.6765 108.218 19.5207 108.252 19.3621C108.293 19.1769 108.331 18.9609 108.368 18.714C108.406 18.4671 108.439 18.182 108.472 17.8616C108.473 17.8089 108.489 17.7576 108.519 17.7146C108.533 17.6983 108.551 17.6854 108.571 17.677C108.591 17.6686 108.612 17.6649 108.634 17.6661H110.13C110.153 17.6648 110.175 17.6685 110.196 17.6769C110.217 17.6852 110.236 17.6981 110.252 17.7146C110.284 17.7564 110.299 17.8088 110.295 17.8616L110.286 20.7214Z" fill="#484848"/>
<path d="M113.673 20.7214C113.673 20.7367 113.668 20.7515 113.66 20.7641C113.649 20.7785 113.635 20.7893 113.618 20.7949C113.592 20.8036 113.565 20.8095 113.537 20.8126C113.451 20.8224 113.364 20.8224 113.278 20.8126C113.249 20.8095 113.221 20.8035 113.194 20.7949C113.176 20.79 113.159 20.7792 113.148 20.7641C113.139 20.7515 113.135 20.7367 113.135 20.7214V19.0123C113.135 18.9271 113.135 18.8389 113.135 18.7507C113.135 18.6625 113.143 18.5744 113.151 18.4876C113.1 18.5758 113.047 18.6625 112.988 18.7463L112.807 18.9991L111.578 20.7214L111.537 20.767C111.524 20.7806 111.508 20.7911 111.491 20.7979C111.469 20.807 111.446 20.8125 111.422 20.814C111.387 20.8167 111.352 20.8167 111.318 20.814C111.279 20.8168 111.24 20.8168 111.201 20.814C111.176 20.8107 111.152 20.8048 111.129 20.7964C111.113 20.7911 111.099 20.7802 111.09 20.7655C111.083 20.7526 111.079 20.7379 111.078 20.7229V17.7455C111.079 17.7305 111.083 17.7159 111.09 17.7029C111.1 17.6877 111.115 17.6764 111.132 17.6705C111.158 17.6605 111.186 17.654 111.214 17.6514C111.249 17.6514 111.292 17.6514 111.341 17.6514C111.413 17.6474 111.485 17.6558 111.555 17.6764C111.571 17.6808 111.585 17.6903 111.595 17.7035C111.606 17.7167 111.612 17.733 111.612 17.7499V19.4693C111.612 19.5546 111.612 19.6398 111.612 19.7236C111.612 19.8074 111.602 19.8926 111.596 19.9764C111.645 19.8926 111.696 19.8118 111.741 19.7309C111.785 19.6501 111.846 19.5722 111.904 19.4958L113.158 17.7499C113.17 17.7334 113.183 17.7181 113.198 17.7043C113.213 17.6907 113.231 17.6802 113.25 17.6735C113.273 17.6647 113.298 17.6588 113.322 17.6558C113.351 17.6558 113.387 17.6558 113.433 17.6558C113.48 17.6558 113.517 17.6558 113.547 17.6558C113.573 17.6585 113.598 17.6649 113.622 17.675C113.638 17.6812 113.652 17.6926 113.661 17.7073C113.669 17.7217 113.673 17.7379 113.673 17.7543V20.7214Z" fill="#484848"/>
<path d="M116.842 20.7406C116.842 20.7533 116.838 20.7656 116.831 20.7758C116.819 20.7875 116.804 20.7957 116.789 20.7993C116.762 20.8075 116.735 20.8125 116.708 20.814C116.665 20.8167 116.622 20.8167 116.579 20.814C116.531 20.8167 116.483 20.8167 116.435 20.814C116.404 20.811 116.373 20.805 116.343 20.7964C116.323 20.791 116.306 20.7809 116.291 20.767C116.28 20.7551 116.273 20.7411 116.268 20.7259L115.957 19.9573C115.923 19.8687 115.882 19.7832 115.833 19.7015C115.793 19.6346 115.74 19.5758 115.679 19.5281C115.62 19.4837 115.553 19.4513 115.481 19.4326C115.399 19.4121 115.314 19.4023 115.229 19.4032H115.002V20.7391C115.001 20.7515 114.995 20.7631 114.986 20.7714C114.973 20.7845 114.956 20.7937 114.937 20.7979C114.91 20.8059 114.882 20.8113 114.854 20.814C114.814 20.8165 114.774 20.8165 114.734 20.814C114.694 20.8166 114.654 20.8166 114.614 20.814C114.585 20.8113 114.557 20.8059 114.529 20.7979C114.511 20.7944 114.495 20.7851 114.483 20.7714C114.474 20.763 114.469 20.7514 114.468 20.7391V17.7235C114.468 17.7173 114.47 17.7113 114.472 17.7057C114.475 17.7002 114.478 17.6952 114.483 17.6911C114.496 17.6795 114.512 17.671 114.529 17.6661C114.557 17.6594 114.585 17.6545 114.614 17.6514C114.649 17.6514 114.688 17.6514 114.734 17.6514C114.78 17.6514 114.819 17.6514 114.854 17.6514C114.882 17.6545 114.91 17.6594 114.937 17.6661C114.955 17.6717 114.971 17.6802 114.986 17.6911C114.991 17.6951 114.995 17.7001 114.998 17.7056C115 17.7112 115.002 17.7172 115.002 17.7235V18.9667H115.229C115.305 18.9671 115.38 18.9577 115.454 18.9388C115.521 18.92 115.584 18.8886 115.64 18.8462C115.698 18.7996 115.746 18.7429 115.784 18.6787C115.834 18.6011 115.875 18.5184 115.907 18.4318L116.178 17.7499C116.182 17.7325 116.19 17.7164 116.201 17.7029C116.214 17.688 116.231 17.6768 116.249 17.6705C116.277 17.6605 116.306 17.6541 116.336 17.6514C116.372 17.6514 116.418 17.6514 116.48 17.6514C116.542 17.6514 116.575 17.6514 116.608 17.6514C116.635 17.6543 116.661 17.6592 116.686 17.6661C116.701 17.671 116.714 17.6796 116.724 17.6911C116.73 17.7008 116.733 17.712 116.734 17.7235C116.734 17.7443 116.731 17.7651 116.725 17.7852C116.719 17.8111 116.71 17.8367 116.701 17.8616L116.421 18.517C116.383 18.6147 116.334 18.7079 116.276 18.7948C116.231 18.8619 116.18 18.924 116.122 18.98C116.075 19.0261 116.021 19.0652 115.963 19.0961C115.913 19.1219 115.861 19.1435 115.807 19.1607C115.88 19.186 115.95 19.218 116.017 19.2563C116.081 19.2949 116.141 19.3419 116.194 19.3959C116.253 19.4546 116.305 19.5202 116.349 19.5913C116.4 19.6749 116.445 19.7629 116.481 19.8544L116.802 20.6053C116.81 20.6189 116.816 20.6332 116.822 20.648C116.826 20.6604 116.829 20.6732 116.831 20.6862V20.7156C116.841 20.7214 116.842 20.7347 116.842 20.7406Z" fill="#484848"/>
<path d="M6.94394 0V3.36687H3.30602V7.07175H0V0H6.94394Z" fill="#7421B0"/>
<path d="M0 14.3713H3.30602V18.0747H6.94394V21.4416H0V14.3713Z" fill="#7421B0"/>
<path d="M14.1116 21.4416V18.0747H17.748V14.3713H21.0541V21.4416H14.1116Z" fill="#7421B0"/>
<path d="M21.0541 7.07175H17.748V3.36687H14.1116V0H21.0541V7.07175Z" fill="#7421B0"/>
</g>
<defs>
<clipPath id="clip0_301_439">
<rect width="141" height="22" fill="white"/>
</clipPath>
</defs>
</svg>
