<svg width="80" height="80" viewBox="0 0 80 80" fill="none" xmlns="http://www.w3.org/2000/svg">
<g clip-path="url(#clip0_151_0)">
<path d="M53.3334 10.2972V24.992L40.0433 32.7153L26.6666 24.9923V10.2975L40.0433 2.57422L53.3334 10.2972Z" fill="#E7DBFF"/>
<path d="M53.3335 10.2969V24.9917L40.0433 32.715V18.0202L53.3335 10.2969Z" fill="#551981"/>
<path d="M40.0433 18.0203V32.7152L26.6666 24.9922V10.2974L40.0433 18.0203Z" fill="#C0A9F0"/>
<path d="M53.3334 55.0071V69.702L40.0433 77.4253L26.6666 69.7023V55.0075L40.0433 47.2842L53.3334 55.0071Z" fill="#E7DBFF"/>
<path d="M53.3335 55.0073V69.7022L40.0433 77.4254V62.7306L53.3335 55.0073Z" fill="#551981"/>
<path d="M40.0433 62.7308V77.4256L26.6666 69.7027V55.0078L40.0433 62.7308Z" fill="#C0A9F0"/>
<path d="M26.6666 55.0071V69.702L13.3767 77.4253L0 69.7023V55.0075L13.3767 47.2842L26.6666 55.0071Z" fill="#E7DBFF"/>
<path d="M26.6666 55.0073V69.7022L13.3768 77.4254V62.7306L26.6666 55.0073Z" fill="#551981"/>
<path d="M13.3767 62.7308V77.4256L0 69.7027V55.0078L13.3767 62.7308Z" fill="#C0A9F0"/>
<path d="M80.0001 55.0071V69.702L66.7101 77.4253L53.3335 69.7023V55.0075L66.7101 47.2842L80.0001 55.0071Z" fill="#E7DBFF"/>
<path d="M79.9999 55.0073V69.7022L66.7099 77.4254V62.7306L79.9999 55.0073Z" fill="#551981"/>
<path d="M66.7101 62.7308V77.4256L53.3335 69.7027V55.0078L66.7101 62.7308Z" fill="#C0A9F0"/>
<path d="M66.6668 32.5765V47.2715L53.3768 54.9948L40.0433 47.2718V32.5768L53.3768 24.8535L66.6668 32.5765Z" fill="#E7DBFF"/>
<path d="M66.6668 32.5762V47.2712L53.3768 54.9945V40.2995L66.6668 32.5762Z" fill="#551981"/>
<path d="M53.3768 40.2996V54.9946L40.0433 47.2717V32.5767L53.3768 40.2996Z" fill="#C0A9F0"/>
<path d="M40.0433 32.5765V47.2715L26.71 54.9948L13.3334 47.2718V32.5768L26.71 24.8535L40.0433 32.5765Z" fill="#E7DBFF"/>
<path d="M40.0433 32.5762V47.2712L26.71 54.9945V40.2995L40.0433 32.5762Z" fill="#551981"/>
<path d="M26.71 40.2996V54.9946L13.3334 47.2717V32.5767L26.71 40.2996Z" fill="#C0A9F0"/>
</g>
<defs>
<clipPath id="clip0_151_0">
<rect width="80" height="80" fill="white"/>
</clipPath>
</defs>
</svg>
