<svg width="80" height="80" viewBox="0 0 80 80" fill="none" xmlns="http://www.w3.org/2000/svg">
<path d="M40.2793 13.3913L54.6399 0L62.8861 4.78516V55.6394L47.7229 80L23.2649 78.5145L17.1139 72.5198V21.6656L40.2793 13.3913Z" fill="#ACABB1"/>
<path d="M47.7229 18.9244V80L62.8861 55.6394V4.78516L47.7229 18.9244Z" fill="#E7DBFF"/>
<path d="M23.2648 27.6604V78.5148L47.7228 79.9999V18.9243L23.2648 27.6604Z" fill="#EFE7FF"/>
<path d="M17.1139 21.6655V72.5198L23.2648 78.5148V27.6604L17.1139 21.6655Z" fill="#C0A9F0"/>
<path d="M17.1139 21.6656L23.2649 27.6605L47.7229 18.9244L62.8861 4.78516L54.6399 0L40.2793 13.3913L17.1139 21.6656Z" fill="#E7DBFF"/>
<path d="M47.7729 22.154L60.5738 10.2178V54.6446L47.7729 75.9845L25.6771 74.3701V30.2339L47.7729 22.154Z" fill="#A66206"/>
<path d="M47.7729 75.9845L60.5738 54.6446V10.2178L47.7729 22.154V75.9845Z" fill="#7421B0"/>
<path d="M47.7729 22.1543L25.6771 30.2341V74.3704L47.7729 75.9848V22.1543Z" fill="#852FC2"/>
</svg>
