<svg width="80" height="80" viewBox="0 0 80 80" fill="none" xmlns="http://www.w3.org/2000/svg">
<g clip-path="url(#clip0_151_58)">
<path d="M6.85779 46.2702C6.3195 45.5424 6.00873 44.5094 6.00513 43.2166C5.99419 39.3751 8.69528 34.6966 12.0372 32.7673C13.3901 31.9862 14.6411 31.7762 15.6507 32.0568C18.367 22.0165 25.4393 11.8984 33.7541 7.09761C39.1321 3.99262 44.0047 3.70465 47.5233 5.74934L57.7738 11.7065C59.3602 11.4809 60.7839 11.7326 61.9581 12.4149L76.5856 20.9157C76.5787 20.9118 76.5719 20.9082 76.565 20.9043C78.6781 22.1204 79.9897 24.7213 80.0003 28.4238C80.0214 35.8513 74.7977 44.8991 68.3325 48.6316L23.8928 74.2889C21.2521 75.8134 18.8685 75.9119 17.1798 74.8422C17.2271 74.8722 17.2731 74.9044 17.3215 74.9325L2.69389 66.4319C1.03639 65.4686 0.00888824 63.4206 0.000450134 60.51C-0.0134506 55.5814 2.8992 49.7514 6.85779 46.2702Z" fill="#C3DFF7"/>
<path d="M76.5853 20.916L61.9577 12.4154C59.8293 11.1786 56.8816 11.3529 53.6282 13.2312C53.3288 13.4042 53.0319 13.5921 52.7379 13.7879L67.3655 22.2885C67.6596 22.0928 67.9563 21.9046 68.2558 21.7318C71.5092 19.8535 74.4567 19.679 76.5853 20.916Z" fill="#E7DBFF"/>
<path d="M62.1505 14.2503L47.5229 5.74989C44.0041 3.70505 39.1315 3.99317 33.7537 7.09817L48.3813 15.5986C53.7591 12.4936 58.6318 12.2055 62.1505 14.2503Z" fill="#E7DBFF"/>
<path d="M2.6935 66.4322L17.3211 74.9328C15.6636 73.9695 14.636 71.9216 14.6277 69.0111C14.6136 64.0823 17.5264 58.2522 21.4852 54.7711L6.85755 46.2705C2.89881 49.7518 -0.0138321 55.5819 7.43866e-05 60.5105C0.00851059 63.4211 1.03601 65.4691 2.6935 66.4322Z" fill="#E7DBFF"/>
<path d="M48.3812 15.5988L33.7536 7.09814C25.4386 11.8988 18.3666 22.0169 15.6502 32.0573L30.2778 40.5579C32.9942 30.5175 40.0664 20.3994 48.3812 15.5988Z" fill="#E7DBFF"/>
<path d="M30.2777 40.558L15.6501 32.0574C14.6405 31.7771 13.3895 31.9869 12.0366 32.7678C8.69478 34.6974 5.99369 39.3755 6.00463 43.2172C6.00822 44.5098 6.319 45.543 6.85728 46.2708L21.4849 54.7714C20.9466 54.0436 20.6358 53.0106 20.6323 51.7178C20.6213 47.8762 23.3224 43.1978 26.6643 41.2684C28.0172 40.4874 29.2682 40.2777 30.2777 40.558Z" fill="#E7DBFF"/>
<path d="M48.3815 15.5986C40.0665 20.3993 32.9945 30.5174 30.2781 40.5578C29.2685 40.2775 28.0174 40.4873 26.6646 41.2683C23.3228 43.1978 20.6217 47.8759 20.6326 51.7176C20.6362 53.0104 20.947 54.0434 21.4853 54.7712C17.5265 58.2525 14.6139 64.0826 14.6278 69.0112C14.6445 74.8702 18.7921 77.234 23.8924 74.2895L68.3324 48.632C74.7977 44.8994 80.0212 35.8516 80.0003 28.4241C79.9792 20.9952 74.7214 17.9988 68.2563 21.7316C67.9569 21.9046 67.66 22.0925 67.366 22.2883C65.4875 13.2902 57.6918 10.2233 48.3815 15.5986Z" fill="#C0A9F0"/>
<path d="M36.4 50.5849L48.053 27.6929L53.8064 31.0363L65.5498 40.4203L58.7942 44.321L58.8456 62.4948L48.9606 68.202L43.2073 64.8584L43.1747 53.3389L42.1534 53.9284L36.4 50.5849Z" fill="#1A6FB0"/>
<path d="M48.9092 50.0282L43.1556 46.6846L43.2073 64.8586L48.9606 68.2022L48.9092 50.0282Z" fill="#551981"/>
<path d="M53.8063 31.0363L48.0529 27.6929L36.4 50.5848L42.1534 53.9284L53.8063 31.0363Z" fill="#9247C9"/>
<path d="M53.8064 31.0361L42.1534 53.9283L48.9092 50.0278L48.9606 68.2019L58.8456 62.4947L58.794 44.3208L65.5498 40.4202L53.8064 31.0361Z" fill="#7421B0"/>
</g>
<defs>
<clipPath id="clip0_151_58">
<rect width="80" height="80" fill="white" transform="matrix(-1 0 0 1 80 0)"/>
</clipPath>
</defs>
</svg>
