<svg width="80" height="80" viewBox="0 0 80 80" fill="none" xmlns="http://www.w3.org/2000/svg">
<g clip-path="url(#clip0_151_87)">
<path d="M8.51384 33.0586L20.3538 26.2228C21.7752 25.4022 23.033 23.6209 23.4669 21.8144L27.0894 6.76346C27.7647 3.958 29.5871 1.69785 31.4127 0.643943C32.595 -0.038712 33.7788 -0.215587 34.6535 0.292694L49.9097 9.15862L54.4198 6.55471C55.7548 5.78393 56.8556 5.74315 57.6431 6.20081L74.6793 16.1011C74.6262 16.0703 74.5717 16.0422 74.5159 16.0161C76.4843 16.9406 76.7181 20.7603 74.1604 24.3806L64.6054 37.9062C63.4569 39.5304 62.9801 41.5107 63.4244 42.812L67.1203 53.6374C68.17 56.7118 65.6381 61.3818 62.7897 63.0263C61.8989 63.5405 60.977 63.759 60.1242 63.5399L50.5241 61.0716C49.948 60.9238 49.27 61.0749 48.593 61.4659C47.9159 61.8569 47.2394 62.4876 46.666 63.2991L37.1096 76.8274C36.2611 78.0288 35.3416 78.8732 34.451 79.3875C33.208 80.105 32.0219 80.1782 31.1654 79.6777C31.1669 79.6786 31.1683 79.6799 31.1699 79.6807L14.134 69.7804C13.0252 69.136 12.466 67.5324 13.046 65.1212L16.5858 50.4135L5.25868 43.8307C2.519 42.239 4.374 35.4487 8.51384 33.0586Z" fill="#FED322"/>
<path d="M74.6794 16.1008L57.6435 6.20051C56.8558 5.74285 55.7552 5.78363 54.4202 6.55441L71.4561 16.4547C72.7911 15.6839 73.8919 15.6431 74.6794 16.1008Z" fill="#E7DBFF"/>
<path d="M14.1338 69.7808L31.1697 79.6811C30.061 79.0367 29.5017 77.4331 30.0817 75.0219L13.0459 65.1216C12.4662 67.533 13.0252 69.1366 14.1338 69.7808Z" fill="#C0A9F0"/>
<path d="M71.456 16.455L54.4201 6.55469L42.5801 13.3905L59.6161 23.2907L71.456 16.455Z" fill="#E7DBFF"/>
<path d="M40.2438 13.6178L57.2797 23.5181C57.8847 23.8698 58.7191 23.8082 59.6158 23.2903L42.5801 13.3901C41.6832 13.9081 40.8491 13.9695 40.2438 13.6178Z" fill="#C0A9F0"/>
<path d="M33.7043 59.9706L16.6684 50.0703L13.0459 65.1212L30.0819 75.0215L33.7043 59.9706Z" fill="#C0A9F0"/>
<path d="M32.9063 56.6078L15.8704 46.7075C16.7262 47.2049 17.0486 48.491 16.6684 50.0702L33.7043 59.9705C34.0844 58.3914 33.7621 57.1052 32.9063 56.6078Z" fill="#C0A9F0"/>
<path d="M40.5032 31.7147L23.4673 21.8145C23.0334 23.621 21.7756 25.4023 20.3542 26.2229L37.3901 36.1232C38.8112 35.3026 40.0692 33.5213 40.5032 31.7147Z" fill="#C0A9F0"/>
<path d="M51.6896 10.193L34.6537 0.292694C33.7791 -0.215587 32.5952 -0.038712 31.4129 0.643943L48.4488 10.5442C49.6312 9.86158 50.8149 9.68486 51.6896 10.193Z" fill="#E7DBFF"/>
<path d="M44.1253 16.6638L27.0894 6.76367L23.4669 21.8144L40.5031 31.7147L44.1253 16.6638Z" fill="#C0A9F0"/>
<path d="M48.4488 10.5443L31.4129 0.644043C29.5871 1.6981 27.7649 3.9581 27.0896 6.76356L44.1255 16.6639C44.8007 13.8584 46.623 11.5984 48.4488 10.5443Z" fill="#E7DBFF"/>
<path d="M37.39 36.123L20.3539 26.2227L8.51397 33.0584L25.55 42.9587L37.39 36.123Z" fill="#E7DBFF"/>
<path d="M5.25837 43.8309L22.2943 53.7312C19.5549 52.1392 21.4099 45.349 25.5497 42.9589L8.51383 33.0586C4.374 35.4486 2.519 42.2389 5.25837 43.8309Z" fill="#E7DBFF"/>
<path d="M48.4488 10.5443C46.623 11.5983 44.8008 13.8583 44.1257 16.6638L40.5032 31.7147C40.0693 33.5213 38.8114 35.3025 37.39 36.1231L25.5501 42.9589C21.1363 45.5072 19.3198 53.057 22.8993 53.9762L32.4994 56.4426C33.6533 56.7373 34.1397 58.1619 33.7043 59.9709L30.0818 75.0218C29.0541 79.2953 31.6036 81.0317 34.4508 79.3879C35.3414 78.8737 36.261 78.0292 37.1094 76.8278L46.6658 63.2995C47.2394 62.4879 47.9158 61.857 48.5928 61.4662C49.2699 61.0755 49.9477 60.9242 50.5239 61.072L60.1241 63.5403C60.9767 63.7592 61.8987 63.5409 62.7895 63.0267C65.638 61.3822 68.1698 56.7123 67.1201 53.6378L63.4244 42.8122C62.9801 41.5109 63.4569 39.5305 64.6055 37.9064L74.1604 24.381C77.7231 19.3383 75.8698 13.9072 71.4561 16.4555L59.6161 23.2913C58.1947 24.1119 56.9309 23.7864 56.4867 22.4871L52.7924 11.6605C52.1036 9.64209 50.2744 9.49021 48.4488 10.5443Z" fill="#7421B0"/>
</g>
<defs>
<clipPath id="clip0_151_87">
<rect width="80" height="80" fill="white" transform="matrix(-1 0 0 1 80 0)"/>
</clipPath>
</defs>
</svg>
