<svg width="180" height="28" viewBox="0 0 180 28" fill="none" xmlns="http://www.w3.org/2000/svg">
<g clip-path="url(#clip0_301_204)">
<path d="M42.4551 11.4095C42.4716 12.1032 42.3278 12.7912 42.0351 13.4183C41.7627 13.9789 41.3592 14.4631 40.8598 14.8286C40.3149 15.2167 39.7022 15.496 39.0544 15.6516C38.3088 15.8371 37.5433 15.9276 36.7756 15.9209C36.0681 15.9223 35.3612 15.8792 34.659 15.7919C33.9728 15.7056 33.295 15.5611 32.6326 15.3598V12.7412C32.9586 12.8572 33.2976 12.9657 33.6531 13.0667C34.0087 13.1677 34.3642 13.2537 34.7234 13.3304C35.0827 13.4071 35.4382 13.4651 35.7919 13.5174C36.1342 13.5594 36.4787 13.5806 36.8235 13.581C37.2495 13.5886 37.6749 13.5453 38.091 13.452C38.3931 13.3845 38.6812 13.2636 38.9421 13.0947C39.1457 12.9612 39.311 12.7754 39.421 12.556C39.522 12.3399 39.573 12.1032 39.5702 11.864C39.5803 11.5475 39.4762 11.2382 39.2773 10.9943C39.059 10.7417 38.7975 10.5313 38.5055 10.3733C38.1562 10.18 37.7914 10.0173 37.4149 9.88698C37.0078 9.74296 36.5914 9.58771 36.1696 9.42124C35.7455 9.2555 35.3298 9.06823 34.9242 8.86012C34.525 8.65666 34.1575 8.39447 33.8337 8.08203C33.5098 7.76622 33.2484 7.39036 33.0636 6.97475C32.8612 6.47941 32.7681 5.94502 32.791 5.40922C32.7887 4.86913 32.8895 4.3337 33.0876 3.83247C33.2906 3.3251 33.6125 2.87569 34.0253 2.52318C34.5083 2.12106 35.0649 1.81977 35.663 1.63661C36.4441 1.40223 37.2563 1.29182 38.0707 1.30929C38.3489 1.30929 38.6362 1.32238 38.9384 1.3467C39.2405 1.37101 39.5389 1.40468 39.8318 1.44396C40.1247 1.48324 40.4103 1.53187 40.6829 1.58611C40.9556 1.64035 41.2061 1.69459 41.4345 1.75258V4.1841C41.1933 4.09149 40.9473 4.01219 40.6977 3.94656C40.4287 3.87299 40.1505 3.81065 39.8631 3.75952C39.5758 3.7084 39.2865 3.66725 38.9955 3.63608C38.7044 3.60802 38.4281 3.59306 38.1665 3.59306C37.7729 3.5857 37.3799 3.62398 36.9949 3.70715C36.7172 3.76546 36.4512 3.87107 36.2082 4.01951C36.016 4.13698 35.8608 4.30761 35.7606 4.51143C35.6667 4.71369 35.6195 4.93501 35.6224 5.15859C35.6179 5.44209 35.7231 5.71608 35.9153 5.92171C36.1406 6.15588 36.4035 6.34942 36.6927 6.49406C37.0469 6.67654 37.4124 6.83525 37.787 6.96914C38.196 7.11628 38.6148 7.27464 39.0434 7.44422C39.4719 7.61425 39.8913 7.80717 40.2997 8.02218C40.699 8.23307 41.0678 8.49866 41.3958 8.81149C41.7174 9.12637 41.9774 9.50016 42.1622 9.91316C42.3675 10.3838 42.4675 10.8949 42.4551 11.4095Z" fill="#7421B0"/>
<path d="M53.1545 15.2513C52.6434 15.4609 52.1126 15.617 51.5702 15.717C51.0047 15.8188 50.4314 15.8694 49.857 15.8685C49.0728 15.88 48.2922 15.7593 47.5469 15.5113C46.8989 15.2932 46.3068 14.9316 45.8134 14.4526C45.3245 13.9644 44.9515 13.3696 44.7228 12.7132C44.458 11.9429 44.3301 11.131 44.3452 10.3153C44.3339 9.50022 44.4726 8.69017 44.7542 7.92679C45.0048 7.24222 45.3978 6.62054 45.9065 6.10411C46.4151 5.58768 47.0274 5.18862 47.7017 4.93414C48.4487 4.6522 49.2407 4.51331 50.0375 4.52452C50.6302 4.51721 51.2226 4.55472 51.8097 4.63675C52.2451 4.70426 52.6758 4.79985 53.0993 4.92292V7.48164C52.6436 7.25309 52.1632 7.07922 51.6679 6.96353C51.189 6.84461 50.6982 6.78185 50.2052 6.77649C49.7632 6.7697 49.3244 6.85434 48.9157 7.02526C48.5466 7.18023 48.2158 7.41588 47.9467 7.71544C47.6743 8.02741 47.4691 8.39374 47.3443 8.79092C47.2017 9.23913 47.1314 9.70778 47.1361 10.1788C47.1272 10.6607 47.2014 11.1405 47.3553 11.5965C47.4917 11.992 47.7075 12.3544 47.989 12.6608C48.2647 12.9544 48.6005 13.183 48.9728 13.3304C49.3798 13.4897 49.8132 13.5685 50.2494 13.5623C50.4897 13.5622 50.7297 13.5459 50.9679 13.5137C51.2221 13.4816 51.4742 13.4348 51.7231 13.3734C51.9755 13.3117 52.2242 13.2425 52.4692 13.1639C52.7142 13.0854 52.9427 12.9975 53.1545 12.9039V15.2513Z" fill="#7421B0"/>
<path d="M62.695 8.96486C62.7122 8.61396 62.6925 8.2622 62.6361 7.91556C62.5962 7.66363 62.5093 7.42175 62.38 7.20294C62.2769 7.02813 62.1276 6.88621 61.949 6.79332C61.7674 6.703 61.5671 6.65811 61.365 6.66239C60.9277 6.68348 60.5101 6.85272 60.1786 7.14308C59.6535 7.59907 59.1995 8.13321 58.832 8.72732V15.674H56.1719V4.69659H58.5243L58.6201 6.29579C58.7922 6.02446 58.9937 5.77351 59.2207 5.54763C59.4413 5.32411 59.6889 5.12991 59.9576 4.96967C60.2423 4.8027 60.5486 4.67679 60.8676 4.59559C61.2263 4.50648 61.5945 4.46312 61.9637 4.46653C62.462 4.45701 62.9567 4.55453 63.4153 4.7527C63.8346 4.94091 64.2007 5.23287 64.4801 5.60187C64.7878 6.02085 65.0055 6.50063 65.1194 7.01029C65.2672 7.65295 65.3292 8.31289 65.3036 8.97234L62.695 8.96486Z" fill="#7421B0"/>
<path d="M76.4802 9.35204C76.4802 9.5316 76.4747 9.7654 76.4636 10.0534C76.4525 10.3415 76.4378 10.6146 76.4157 10.8633H69.3086C69.2999 11.2987 69.3737 11.7318 69.5259 12.1389C69.6611 12.4899 69.8719 12.8056 70.1431 13.0629C70.4204 13.3156 70.7467 13.5068 71.101 13.624C71.5013 13.7552 71.9202 13.8184 72.3408 13.8111C72.9054 13.8082 73.4691 13.767 74.0282 13.6876C74.6602 13.5965 75.285 13.4602 75.8981 13.2799V15.3822C75.6217 15.4608 75.3202 15.5325 74.9935 15.5973C74.6669 15.6622 74.3334 15.7195 73.9932 15.7694C73.6543 15.8199 73.3098 15.8592 72.9616 15.8835C72.6134 15.9078 72.2763 15.9209 71.9502 15.9209C71.1987 15.9325 70.4509 15.8123 69.7396 15.5655C69.116 15.3456 68.5493 14.9856 68.0817 14.5125C67.6127 14.0231 67.2565 13.4341 67.039 12.788C66.7826 12.0236 66.658 11.22 66.6705 10.4126C66.6631 9.58715 66.7875 8.76599 67.039 7.98103C67.2579 7.2969 67.6044 6.66191 68.0596 6.11062C68.4976 5.59021 69.0453 5.1766 69.6622 4.90047C70.3246 4.60886 71.0405 4.4635 71.7623 4.47401C72.4545 4.46215 73.1424 4.58533 73.7887 4.83687C74.3473 5.05913 74.8506 5.40404 75.2625 5.84689C75.6681 6.2912 75.9764 6.81776 76.167 7.39185C76.3797 8.0226 76.4856 8.68537 76.4802 9.35204ZM73.8403 8.97795C73.8537 8.59728 73.8001 8.21724 73.6819 7.85571C73.5831 7.56191 73.4257 7.29195 73.2195 7.06266C73.0297 6.8573 72.7967 6.69809 72.5379 6.59693C72.2713 6.49467 71.9884 6.44331 71.7034 6.44542C71.4043 6.43545 71.1065 6.4896 70.8294 6.60433C70.5523 6.71906 70.3021 6.8918 70.0952 7.11129C69.6776 7.5527 69.432 8.17617 69.3583 8.9817L73.8403 8.97795Z" fill="#7421B0"/>
<path d="M87.8078 9.35204C87.8078 9.53159 87.8023 9.7654 87.7913 10.0534C87.7802 10.3415 87.7655 10.6146 87.7434 10.8633H80.6362C80.6275 11.2987 80.7013 11.7318 80.8536 12.1389C80.9887 12.4899 81.1996 12.8056 81.4707 13.0629C81.7481 13.3156 82.0744 13.5067 82.4287 13.624C82.829 13.7552 83.2479 13.8184 83.6684 13.8111C84.2324 13.8083 84.7955 13.767 85.354 13.6876C85.9854 13.5965 86.6096 13.4603 87.222 13.2799V15.3822C86.9457 15.4608 86.6442 15.5325 86.3175 15.5973C85.9908 15.6622 85.6574 15.7195 85.3172 15.7694C84.9764 15.8199 84.6338 15.8592 84.2856 15.8835C83.9374 15.9078 83.6003 15.9209 83.2742 15.9209C82.5227 15.9327 81.7748 15.8124 81.0636 15.5655C80.4398 15.346 79.873 14.986 79.4056 14.5125C78.9366 14.0231 78.5805 13.4341 78.363 12.788C78.1066 12.0236 77.982 11.22 77.9945 10.4126C77.9871 9.58715 78.1115 8.76599 78.363 7.98103C78.581 7.29649 78.9276 6.66132 79.3835 6.11062C79.8212 5.59067 80.3683 5.17712 80.9844 4.90047C81.6452 4.60442 82.3603 4.45398 83.0826 4.45905C83.7747 4.44719 84.4627 4.57037 85.109 4.82191C85.6676 5.04417 86.1709 5.38907 86.5828 5.83193C86.9944 6.27467 87.3084 6.80134 87.5039 7.37689C87.7151 8.01293 87.8179 8.68089 87.8078 9.35204ZM85.168 8.97795C85.1814 8.59728 85.1277 8.21724 85.0096 7.85571C84.9106 7.56157 84.7525 7.29152 84.5453 7.06266C84.3565 6.85698 84.1241 6.6977 83.8656 6.59693C83.5984 6.49449 83.3148 6.44312 83.0292 6.44542C82.7322 6.43322 82.436 6.48433 82.1596 6.59548C81.8832 6.70662 81.6329 6.87532 81.4247 7.09071C81.0071 7.53213 80.7615 8.1556 80.6878 8.96112L85.168 8.97795Z" fill="#7421B0"/>
<path d="M96.162 15.674V8.52157C96.162 7.31953 95.7223 6.71788 94.843 6.71663C94.3711 6.73022 93.9214 6.92312 93.5829 7.25718C93.1089 7.70045 92.6822 8.19322 92.31 8.72732V15.674H89.7144V4.69659H91.96L92.0226 6.31823C92.2345 6.04668 92.464 5.78986 92.7097 5.5495C92.9428 5.32285 93.2019 5.12565 93.4816 4.96219C93.7621 4.79848 94.0624 4.67272 94.3751 4.58811C94.726 4.49805 95.0871 4.45467 95.4491 4.45905C95.9459 4.44757 96.4396 4.54121 96.8988 4.734C97.2973 4.90895 97.6504 5.17528 97.9305 5.51209C98.2191 5.86738 98.4323 6.27937 98.5568 6.72224C98.7011 7.23672 98.7712 7.76971 98.765 8.30461V15.674H96.162Z" fill="#7421B0"/>
<path d="M109.962 12.4438C109.978 13.0067 109.837 13.5628 109.553 14.0468C109.28 14.4889 108.908 14.8593 108.468 15.1279C107.994 15.4142 107.476 15.6183 106.935 15.732C106.36 15.8583 105.773 15.921 105.185 15.919C104.467 15.9232 103.749 15.8857 103.035 15.8068C102.426 15.7365 101.822 15.6259 101.226 15.4758V13.1022C101.869 13.3756 102.537 13.5799 103.221 13.712C103.84 13.8334 104.468 13.8961 105.099 13.899C105.78 13.899 106.289 13.7905 106.626 13.5698C106.777 13.4863 106.903 13.3635 106.992 13.2139C107.081 13.0644 107.13 12.8935 107.132 12.7188C107.133 12.5607 107.097 12.4048 107.025 12.2643C106.927 12.1009 106.79 11.9657 106.626 11.8715C106.365 11.7133 106.089 11.5829 105.802 11.4824C105.446 11.3478 104.981 11.1981 104.408 11.0335C103.928 10.9019 103.459 10.7299 103.008 10.5192C102.642 10.3523 102.305 10.1247 102.013 9.84583C101.755 9.59133 101.553 9.28316 101.423 8.94242C101.285 8.55676 101.218 8.14832 101.226 7.73788C101.225 7.29823 101.327 6.86461 101.525 6.47348C101.736 6.05811 102.04 5.69874 102.413 5.42418C102.858 5.09991 103.357 4.86035 103.886 4.71717C104.559 4.53255 105.255 4.44503 105.951 4.45718C106.556 4.45224 107.161 4.48848 107.761 4.56567C108.284 4.63674 108.75 4.71717 109.153 4.80321V6.95418C108.586 6.76525 108.004 6.62265 107.414 6.52773C106.881 6.44613 106.342 6.40487 105.802 6.40428C105.354 6.38209 104.909 6.48289 104.513 6.69606C104.366 6.77175 104.242 6.88771 104.157 7.03082C104.071 7.17394 104.027 7.33851 104.028 7.50595C104.025 7.65931 104.058 7.81121 104.124 7.94924C104.213 8.10373 104.34 8.23249 104.492 8.32332C104.742 8.47297 105.006 8.59823 105.279 8.6974C105.616 8.83082 106.061 8.97671 106.615 9.13507C107.161 9.28661 107.693 9.48432 108.206 9.72612C108.587 9.89786 108.937 10.133 109.242 10.4219C109.491 10.6703 109.68 10.9737 109.794 11.3085C109.912 11.6749 109.968 12.0586 109.962 12.4438Z" fill="#7421B0"/>
<path d="M118.821 15.674V8.52158C118.821 7.31953 118.381 6.71788 117.502 6.71664C117.03 6.73095 116.581 6.92374 116.242 7.25718C115.769 7.70103 115.343 8.19375 114.971 8.72733V15.674H112.373V0.407753H114.969V4.16727L114.842 6.15552C115.046 5.90101 115.268 5.66104 115.505 5.43728C115.727 5.22817 115.975 5.04844 116.242 4.90234C116.51 4.756 116.797 4.64536 117.093 4.57315C117.424 4.49382 117.764 4.45551 118.104 4.45906C118.602 4.44678 119.097 4.54044 119.558 4.73401C119.957 4.90847 120.311 5.17485 120.591 5.51209C120.879 5.86755 121.092 6.27953 121.216 6.72225C121.359 7.23683 121.429 7.76981 121.422 8.30461V15.674H118.821Z" fill="#7421B0"/>
<path d="M133.437 10.1002C133.444 10.906 133.319 11.7074 133.068 12.4719C132.848 13.1519 132.494 13.7789 132.026 14.3142C131.564 14.8317 130.993 15.2376 130.357 15.5019C129.64 15.7933 128.872 15.9363 128.1 15.9228C127.368 15.9349 126.64 15.8145 125.95 15.5674C125.342 15.3429 124.793 14.978 124.348 14.5013C123.886 13.9934 123.541 13.3887 123.336 12.73C123.089 11.9277 122.971 11.0903 122.986 10.2498C122.976 9.44201 123.101 8.63829 123.355 7.87255C123.578 7.19668 123.937 6.57511 124.408 6.04703C124.875 5.53667 125.447 5.13638 126.083 4.87429C126.794 4.58784 127.554 4.44674 128.319 4.45906C129.055 4.44703 129.786 4.56996 130.478 4.82192C131.088 5.04871 131.638 5.41623 132.085 5.89553C132.544 6.40441 132.888 7.0098 133.091 7.66867C133.333 8.45514 133.45 9.2761 133.437 10.1002ZM130.734 10.1657C130.734 9.02597 130.523 8.17057 130.101 7.59947C129.678 7.02837 129.056 6.73971 128.233 6.73347C127.83 6.72131 127.431 6.81403 127.074 7.00281C126.755 7.18348 126.485 7.44027 126.286 7.75097C126.071 8.08551 125.918 8.45691 125.834 8.84703C125.736 9.28639 125.688 9.73573 125.69 10.1862C125.69 11.3322 125.917 12.1951 126.37 12.7749C126.591 13.0591 126.875 13.2861 127.198 13.4373C127.522 13.5885 127.877 13.6595 128.233 13.6446C128.625 13.6537 129.013 13.5623 129.362 13.379C129.678 13.2053 129.945 12.9522 130.137 12.644C130.348 12.3036 130.499 11.9291 130.585 11.5367C130.688 11.0865 130.738 10.6258 130.734 10.1638V10.1657Z" fill="#7421B0"/>
<path d="M143.945 15.5655C143.477 15.674 143.005 15.7601 142.53 15.8236C142.082 15.8868 141.63 15.9193 141.178 15.9209C140.556 15.9335 139.936 15.8573 139.336 15.6946C138.863 15.5663 138.427 15.3295 138.059 15.0025C137.714 14.6808 137.457 14.2734 137.313 13.8204C137.143 13.2661 137.062 12.6876 137.073 12.1071V6.7503H134.177V4.69285H137.081V1.88724L139.741 1.18584V4.69659H143.945V6.75404H139.741V11.9164C139.741 12.5398 139.883 13.0137 140.166 13.3379C140.45 13.6621 140.925 13.8223 141.592 13.8186C142.01 13.8196 142.426 13.7833 142.838 13.7101C143.21 13.6465 143.579 13.5634 143.943 13.4613L143.945 15.5655Z" fill="#7421B0"/>
<path d="M155.772 9.35204C155.772 9.5316 155.766 9.7654 155.755 10.0534C155.755 10.3415 155.729 10.6146 155.707 10.8633H148.6C148.592 11.2989 148.666 11.7319 148.819 12.1389C148.953 12.4906 149.164 12.8066 149.436 13.0629C149.713 13.316 150.038 13.5072 150.392 13.624C150.793 13.7552 151.212 13.8184 151.632 13.8111C152.197 13.8082 152.761 13.767 153.32 13.6876C153.95 13.5963 154.574 13.4601 155.186 13.2799V15.3822C154.909 15.4608 154.609 15.5319 154.281 15.5973C153.953 15.6628 153.622 15.7208 153.283 15.7694C152.944 15.818 152.598 15.8592 152.249 15.8835C151.901 15.9078 151.566 15.9209 151.24 15.9209C150.488 15.9325 149.74 15.8122 149.029 15.5655C148.406 15.3456 147.839 14.9856 147.371 14.5125C146.903 14.0226 146.547 13.4338 146.329 12.788C146.072 12.0235 145.948 11.22 145.96 10.4126C145.953 9.58716 146.077 8.76599 146.329 7.98103C146.547 7.29638 146.894 6.66122 147.351 6.11062C147.788 5.58982 148.335 5.17611 148.952 4.90047C149.615 4.60888 150.331 4.46353 151.054 4.47401C151.746 4.4621 152.434 4.58529 153.08 4.83687C153.638 5.05984 154.141 5.40465 154.554 5.84689C154.958 6.29218 155.266 6.81844 155.458 7.39185C155.67 8.02283 155.776 8.68544 155.772 9.35204ZM153.134 8.97795C153.147 8.59712 153.093 8.21691 152.973 7.85571C152.875 7.56157 152.718 7.29146 152.511 7.06266C152.321 6.85695 152.088 6.69769 151.829 6.59693C151.563 6.49451 151.28 6.44314 150.995 6.44542C150.696 6.43548 150.398 6.48965 150.122 6.60439C149.845 6.71912 149.595 6.89185 149.388 7.11129C148.968 7.5527 148.722 8.17742 148.652 8.9817L153.134 8.97795Z" fill="#7421B0"/>
<path d="M164.642 8.96486C164.66 8.61396 164.64 8.2621 164.583 7.91556C164.542 7.66337 164.453 7.42148 164.323 7.20294C164.22 7.02864 164.071 6.88682 163.894 6.79332C163.711 6.70353 163.511 6.65867 163.308 6.66239C162.871 6.68348 162.453 6.85272 162.121 7.14308C161.596 7.59907 161.142 8.13321 160.775 8.72732V15.674H158.118V4.69659H160.471L160.567 6.29579C160.739 6.02446 160.94 5.77351 161.167 5.54763C161.388 5.32411 161.635 5.12991 161.904 4.96967C162.189 4.803 162.495 4.67711 162.814 4.59559C163.173 4.50648 163.541 4.46312 163.91 4.46653C164.409 4.45703 164.904 4.55454 165.364 4.7527C165.782 4.94096 166.148 5.23294 166.427 5.60187C166.735 6.02048 166.953 6.5004 167.066 7.01028C167.214 7.65295 167.276 8.31289 167.25 8.97234L164.642 8.96486Z" fill="#7421B0"/>
<path d="M176.032 10.8764V15.0792H173.637V10.8764H169.665V8.70488H173.633V4.52452H176.028V8.70488H180V10.8764H176.032Z" fill="#7421B0"/>
<path d="M35.8859 25.705C35.888 25.7443 35.888 25.7836 35.8859 25.8228C35.8843 25.8526 35.8793 25.8821 35.8711 25.9107C35.8656 25.9343 35.8569 25.9569 35.8453 25.9781C35.8284 26.0039 35.8086 26.0278 35.7864 26.0492C35.7329 26.0972 35.6749 26.1398 35.6132 26.1763C35.5092 26.2425 35.3995 26.2989 35.2853 26.3447C35.1391 26.4039 34.9881 26.4502 34.834 26.4831C34.6522 26.5217 34.467 26.5405 34.2813 26.5392C33.9598 26.5443 33.6404 26.4845 33.3418 26.3634C33.0667 26.2493 32.8219 26.0712 32.627 25.8434C32.4183 25.5953 32.2632 25.3053 32.172 24.9924C32.0594 24.6154 32.0053 24.2229 32.0117 23.829C32.0055 23.4208 32.0633 23.0142 32.1831 22.6244C32.2843 22.2959 32.4483 21.9908 32.6657 21.7267C32.8661 21.4851 33.1181 21.2932 33.4026 21.1655C33.7048 21.0357 34.0306 20.972 34.3587 20.9785C34.5102 20.9781 34.6614 20.9932 34.81 21.0234C34.9473 21.0514 35.0826 21.0883 35.2153 21.1337C35.33 21.1752 35.4404 21.2278 35.5451 21.2908C35.6173 21.3307 35.6847 21.3791 35.7459 21.4349C35.7728 21.4608 35.7969 21.4896 35.8177 21.5209C35.8298 21.5427 35.839 21.566 35.8453 21.5901C35.8536 21.6214 35.8591 21.6533 35.8619 21.6855C35.8641 21.7285 35.8641 21.7716 35.8619 21.8146C35.8651 21.8619 35.8651 21.9094 35.8619 21.9567C35.8576 21.9907 35.8489 22.0241 35.8361 22.0558C35.8277 22.0784 35.8145 22.0988 35.7974 22.1157C35.7809 22.128 35.7609 22.1345 35.7403 22.1344C35.6796 22.1236 35.6232 22.095 35.5782 22.0521C35.4927 21.9847 35.4035 21.9223 35.3111 21.8651C35.1843 21.7894 35.0504 21.7267 34.9113 21.678C34.7291 21.6196 34.5387 21.5918 34.3476 21.5957C34.1227 21.5928 33.9001 21.6427 33.6973 21.7416C33.4994 21.8398 33.328 21.9855 33.1981 22.1662C33.0498 22.3728 32.9405 22.6056 32.8757 22.8526C32.7942 23.1573 32.7558 23.4722 32.7615 23.7878C32.7573 24.0957 32.7939 24.4027 32.8702 24.7006C32.9314 24.9411 33.0391 25.1668 33.1871 25.3646C33.3197 25.5392 33.4932 25.6774 33.6918 25.7667C33.9055 25.8611 34.1367 25.9076 34.3697 25.9033C34.5569 25.9063 34.7433 25.8798 34.9224 25.8247C35.0639 25.7763 35.2003 25.7136 35.3295 25.6377C35.4419 25.5722 35.534 25.5124 35.6059 25.46C35.6538 25.4165 35.7135 25.3885 35.7772 25.3796C35.796 25.3782 35.8146 25.3836 35.8298 25.3949C35.845 25.4062 35.8557 25.4227 35.8601 25.4413C35.8706 25.4727 35.8768 25.5054 35.8785 25.5385C35.8822 25.5872 35.8859 25.6395 35.8859 25.705Z" fill="#484848"/>
<path d="M39.5297 26.3971C39.5295 26.4132 39.5244 26.4289 39.5149 26.4419C39.5002 26.4568 39.4817 26.4672 39.4615 26.4719C39.428 26.4823 39.3933 26.4886 39.3583 26.4906C39.3037 26.494 39.249 26.494 39.1944 26.4906C39.133 26.494 39.0715 26.494 39.0102 26.4906C38.9703 26.4867 38.9308 26.4791 38.8923 26.4681C38.8675 26.4612 38.8448 26.4484 38.8259 26.4307C38.8126 26.4155 38.8026 26.3977 38.7965 26.3784L38.4004 25.4001C38.3565 25.2874 38.3035 25.1785 38.242 25.0747C38.1901 24.9895 38.1233 24.9147 38.0449 24.854C37.9691 24.7975 37.8835 24.7562 37.7925 24.7324C37.687 24.7064 37.5787 24.6938 37.4701 24.695H37.1809V26.3952C37.1796 26.411 37.1723 26.4258 37.1606 26.4363C37.1431 26.453 37.1214 26.4647 37.098 26.47C37.0631 26.4802 37.0273 26.4871 36.9911 26.4906C36.9402 26.4938 36.8891 26.4938 36.8382 26.4906C36.7873 26.4938 36.7362 26.4938 36.6853 26.4906C36.6486 26.4871 36.6122 26.4802 36.5766 26.47C36.5539 26.4656 36.5332 26.4537 36.5177 26.4363C36.5065 26.4256 36.4999 26.4108 36.4993 26.3952V22.5571C36.4994 22.5493 36.501 22.5417 36.5042 22.5346C36.5074 22.5275 36.512 22.5212 36.5177 22.516C36.5349 22.5012 36.555 22.4903 36.5766 22.4842C36.6124 22.4756 36.6487 22.4694 36.6853 22.4655C36.7295 22.4655 36.7793 22.4655 36.8382 22.4655C36.8972 22.4655 36.9469 22.4655 36.9911 22.4655C37.0271 22.4694 37.0628 22.4756 37.098 22.4842C37.1204 22.4913 37.1415 22.502 37.1606 22.516C37.1666 22.5211 37.1715 22.5273 37.1749 22.5344C37.1784 22.5415 37.1804 22.5492 37.1809 22.5571V24.1395H37.4701C37.567 24.1399 37.6635 24.1279 37.7575 24.1039C37.8432 24.0801 37.9238 24.0401 37.9951 23.9861C38.0686 23.9268 38.131 23.8546 38.1793 23.7729C38.2425 23.6742 38.295 23.5688 38.3359 23.4587L38.6823 22.5908C38.6871 22.5687 38.6972 22.5481 38.7117 22.5309C38.7281 22.512 38.749 22.4978 38.7725 22.4898C38.8082 22.477 38.8454 22.4689 38.8831 22.4655C38.9291 22.4655 38.9881 22.4655 39.0673 22.4655C39.1465 22.4655 39.1889 22.4655 39.2312 22.4655C39.2648 22.4691 39.2981 22.4753 39.3307 22.4842C39.3491 22.4904 39.3656 22.5014 39.3786 22.516C39.3864 22.5283 39.3909 22.5425 39.3915 22.5571C39.3912 22.5837 39.3875 22.6101 39.3805 22.6357C39.372 22.6687 39.3615 22.7012 39.3491 22.7329L38.9917 23.5671C38.9433 23.6915 38.8815 23.81 38.8075 23.9206C38.7502 24.0061 38.6841 24.0851 38.6104 24.1563C38.5501 24.215 38.4819 24.2648 38.4078 24.3041C38.3439 24.3372 38.2773 24.3648 38.2088 24.3864C38.3015 24.4182 38.3909 24.4589 38.4759 24.508C38.5586 24.5572 38.6347 24.6169 38.7025 24.6856C38.7777 24.7604 38.8438 24.8439 38.8996 24.9344C38.9657 25.0408 39.0224 25.1528 39.0691 25.2692L39.4781 26.225C39.4882 26.2423 39.4968 26.2604 39.5039 26.2792C39.5091 26.295 39.5128 26.3113 39.5149 26.3279C39.5149 26.3447 39.5149 26.3559 39.5149 26.3653C39.5149 26.3746 39.5297 26.3896 39.5297 26.3971Z" fill="#484848"/>
<path d="M43.5917 24.42C43.5954 24.7202 43.5601 25.0196 43.4867 25.3104C43.4267 25.5516 43.3216 25.7789 43.1772 25.98C43.0437 26.1596 42.8701 26.3045 42.6706 26.4027C42.4545 26.5051 42.2183 26.5563 41.9798 26.5523C41.8769 26.5531 41.7743 26.5418 41.674 26.5186C41.5786 26.4954 41.4864 26.4603 41.3995 26.4139C41.3042 26.3613 41.2147 26.2986 41.1324 26.2269C41.044 26.1558 40.9482 26.0697 40.8506 25.9725V27.8691C40.8508 27.8896 40.845 27.9098 40.834 27.9271C40.8202 27.9454 40.8017 27.9597 40.7806 27.9682C40.7476 27.9818 40.7128 27.9906 40.6774 27.9944C40.621 27.9977 40.5644 27.9977 40.5079 27.9944C40.4527 27.9977 40.3973 27.9977 40.3421 27.9944C40.3061 27.9906 40.2708 27.9818 40.2371 27.9682C40.2154 27.9608 40.1966 27.9463 40.1837 27.9271C40.1732 27.9096 40.1681 27.8895 40.169 27.8691V22.5908C40.1676 22.5694 40.172 22.548 40.1818 22.5291C40.1935 22.5105 40.211 22.4967 40.2316 22.4898C40.2616 22.4772 40.2933 22.4691 40.3255 22.4655C40.3642 22.4655 40.4103 22.4655 40.4655 22.4655C40.5208 22.4655 40.5724 22.4655 40.6092 22.4655C40.6409 22.4693 40.6719 22.4775 40.7013 22.4898C40.7221 22.4973 40.74 22.511 40.7529 22.5291C40.7642 22.5475 40.7694 22.5691 40.7677 22.5908V23.0977C40.871 22.9897 40.9799 22.8874 41.0937 22.7909C41.1923 22.709 41.2984 22.637 41.4106 22.5758C41.5139 22.5195 41.6234 22.4756 41.7367 22.4449C41.8522 22.4152 41.9711 22.4007 42.0904 22.4019C42.3302 22.3942 42.568 22.4489 42.7812 22.5609C42.9695 22.665 43.1296 22.8147 43.2472 22.9967C43.3717 23.1942 43.4603 23.4127 43.5088 23.642C43.5653 23.8973 43.5931 24.1583 43.5917 24.42ZM42.8843 24.5005C42.8845 24.3126 42.8703 24.125 42.842 23.9393C42.8168 23.7721 42.7658 23.6098 42.6909 23.4586C42.6257 23.3245 42.5281 23.2093 42.4072 23.1238C42.2751 23.0358 42.1194 22.9914 41.9614 22.9967C41.8726 22.9963 41.7843 23.0102 41.6998 23.0378C41.6067 23.067 41.5181 23.1092 41.4364 23.1631C41.3371 23.2298 41.244 23.3056 41.1582 23.3894C41.0487 23.4982 40.946 23.6138 40.8506 23.7355V25.2318C41.0062 25.4319 41.1863 25.6111 41.3866 25.7649C41.5398 25.8834 41.7264 25.949 41.919 25.9519C42.0761 25.9568 42.2309 25.9131 42.363 25.8266C42.4881 25.7409 42.5906 25.6253 42.6614 25.4899C42.7411 25.3431 42.7983 25.1848 42.8309 25.0204C42.8657 24.85 42.8836 24.6764 42.8843 24.5023V24.5005Z" fill="#484848"/>
<path d="M47.674 26.3727C47.6739 26.3921 47.6681 26.411 47.6574 26.427C47.6444 26.4458 47.6256 26.4596 47.604 26.4663C47.5705 26.4777 47.5359 26.4852 47.5008 26.4887C47.4456 26.4922 47.3902 26.4922 47.335 26.4887C47.2804 26.4922 47.2257 26.4922 47.1711 26.4887C47.1342 26.4849 47.0978 26.4774 47.0624 26.4663C47.0395 26.4601 47.0194 26.4462 47.0053 26.427C46.9946 26.411 46.9888 26.3921 46.9887 26.3727V24.1975C46.9887 24.089 46.9887 23.9767 46.9887 23.8645C46.9887 23.7523 47.0016 23.6401 47.0108 23.5297C46.9463 23.6419 46.8763 23.7523 46.8008 23.8589C46.7253 23.9655 46.6479 24.074 46.5724 24.1806L44.9991 26.3727L44.9475 26.4307C44.932 26.4484 44.9124 26.4619 44.8904 26.47C44.8622 26.4816 44.8324 26.4886 44.802 26.4906C44.7579 26.4938 44.7135 26.4938 44.6694 26.4906C44.6197 26.4941 44.5698 26.4941 44.5202 26.4906C44.4881 26.4866 44.4566 26.4791 44.4262 26.4681C44.4075 26.4611 44.3913 26.4483 44.3801 26.4316C44.3689 26.4148 44.3631 26.3949 44.3636 26.3746V22.5852C44.363 22.566 44.3681 22.5471 44.3783 22.5309C44.3908 22.5112 44.4097 22.4967 44.4317 22.4898C44.4655 22.4769 44.5008 22.4688 44.5367 22.4655C44.5809 22.4655 44.6344 22.4655 44.6988 22.4655C44.7908 22.4605 44.883 22.4712 44.9715 22.4973C44.992 22.5028 45.0102 22.5149 45.0235 22.5317C45.0367 22.5486 45.0443 22.5692 45.0452 22.5908V24.7792C45.0452 24.8876 45.0452 24.9961 45.0452 25.1027C45.0452 25.2093 45.0323 25.3178 45.0231 25.4244C45.0875 25.3178 45.152 25.215 45.2073 25.1121C45.2626 25.0092 45.3418 24.9101 45.4155 24.8128L47.0163 22.5908C47.031 22.5698 47.0476 22.5504 47.0661 22.5328C47.0854 22.5154 47.108 22.5021 47.1324 22.4935C47.1627 22.4823 47.1943 22.4748 47.2263 22.4711C47.2613 22.4711 47.3092 22.4711 47.3663 22.4711C47.4235 22.4711 47.4732 22.4711 47.5137 22.4711C47.5466 22.4745 47.5789 22.4827 47.6095 22.4954C47.6292 22.5039 47.6459 22.5183 47.6574 22.5365C47.668 22.5546 47.6732 22.5754 47.6721 22.5964L47.674 26.3727Z" fill="#484848"/>
<path d="M51.9496 26.3727C51.9501 26.3933 51.9443 26.4136 51.9331 26.4307C51.9186 26.448 51.9003 26.4615 51.8796 26.47C51.8465 26.4828 51.8118 26.491 51.7765 26.4943C51.7213 26.4978 51.6659 26.4978 51.6107 26.4943C51.5542 26.4979 51.4976 26.4979 51.4412 26.4943C51.4058 26.4913 51.3711 26.4831 51.338 26.47C51.3168 26.4625 51.2982 26.4489 51.2846 26.4307C51.2725 26.414 51.2666 26.3934 51.268 26.3727V24.7156H49.3706V26.3727C49.3708 26.393 49.3657 26.413 49.3558 26.4307C49.3407 26.448 49.3218 26.4615 49.3006 26.47C49.2675 26.4831 49.2328 26.4913 49.1974 26.4943C49.141 26.4978 49.0844 26.4978 49.0279 26.4943C48.9727 26.4978 48.9174 26.4978 48.8621 26.4943C48.8262 26.491 48.7909 26.4828 48.7571 26.47C48.7364 26.4644 48.7182 26.4516 48.7058 26.4338C48.6933 26.4161 48.6874 26.3945 48.689 26.3727V22.5908C48.6885 22.5704 48.6936 22.5504 48.7037 22.5328C48.7177 22.5146 48.7361 22.5004 48.7571 22.4917C48.7905 22.4772 48.826 22.4684 48.8621 22.4655C48.9063 22.4655 48.9616 22.4655 49.0279 22.4655C49.0961 22.4655 49.1532 22.4655 49.1974 22.4655C49.233 22.4681 49.2679 22.4769 49.3006 22.4917C49.3215 22.5015 49.3403 22.5154 49.3558 22.5328C49.3659 22.5504 49.371 22.5704 49.3706 22.5908V24.1283H51.2699V22.5927C51.2683 22.5719 51.2742 22.5513 51.2865 22.5347C51.3004 22.5165 51.3188 22.5023 51.3399 22.4935C51.3725 22.4788 51.4074 22.47 51.443 22.4673C51.4873 22.4673 51.5425 22.4673 51.6125 22.4673C51.6825 22.4673 51.7341 22.4673 51.7783 22.4673C51.8139 22.4702 51.8488 22.4791 51.8815 22.4935C51.9019 22.5033 51.9201 22.5173 51.9349 22.5347C51.9463 22.5517 51.9522 22.572 51.9515 22.5927L51.9496 26.3727Z" fill="#484848"/>
<path d="M57.8611 26.2287C57.8642 26.2622 57.8608 26.2959 57.851 26.3281C57.8412 26.3602 57.8252 26.39 57.804 26.4158C57.7841 26.4361 57.7602 26.4519 57.7339 26.4623C57.7075 26.4726 57.6793 26.4771 57.6511 26.4756H53.1691C53.1405 26.4776 53.1119 26.4733 53.0852 26.463C53.0585 26.4527 53.0343 26.4365 53.0143 26.4158C52.9728 26.363 52.953 26.296 52.9591 26.2287V22.5908C52.9577 22.5704 52.9629 22.55 52.9738 22.5328C52.9881 22.5141 53.0072 22.4999 53.0291 22.4917C53.0632 22.4776 53.0992 22.4687 53.1359 22.4655C53.1801 22.4655 53.2354 22.4655 53.3017 22.4655C53.368 22.4655 53.4233 22.4655 53.4675 22.4655C53.5031 22.4683 53.5379 22.4772 53.5707 22.4917C53.5911 22.5014 53.6093 22.5155 53.6241 22.5328C53.6355 22.5499 53.6413 22.5702 53.6407 22.5908V25.8771H55.0813V22.5908C55.0799 22.5704 55.0851 22.55 55.096 22.5328C55.1092 22.5146 55.127 22.5004 55.1476 22.4917C55.179 22.4772 55.2127 22.4683 55.2471 22.4655C55.2876 22.4655 55.3429 22.4655 55.411 22.4655C55.4792 22.4655 55.5289 22.4655 55.5731 22.4655C55.6087 22.4683 55.6436 22.4772 55.6763 22.4917C55.6967 22.5014 55.7149 22.5155 55.7297 22.5328C55.7412 22.5499 55.747 22.5702 55.7463 22.5908V25.8771H57.185V22.5908C57.1846 22.5704 57.1897 22.5504 57.1998 22.5328C57.2138 22.5146 57.2322 22.5004 57.2532 22.4917C57.286 22.4774 57.3208 22.4686 57.3564 22.4655C57.3987 22.4655 57.454 22.4655 57.5203 22.4655C57.5866 22.4655 57.6456 22.4655 57.6898 22.4655C57.726 22.4684 57.7614 22.4772 57.7948 22.4917C57.8161 22.5009 57.835 22.515 57.8501 22.5328C57.8615 22.5499 57.8673 22.5702 57.8667 22.5908L57.8611 26.2287Z" fill="#484848"/>
<path d="M62.334 24.4369C62.3367 24.7245 62.2963 25.0108 62.2143 25.286C62.1387 25.5329 62.0132 25.7609 61.8458 25.9556C61.684 26.1473 61.4802 26.2978 61.2508 26.3952C60.988 26.5048 60.7058 26.5583 60.4218 26.5523C60.1491 26.558 59.8778 26.511 59.6223 26.4139C59.4038 26.3277 59.2086 26.1899 59.0531 26.0118C58.8967 25.824 58.7811 25.6047 58.7141 25.3683C58.6367 25.0897 58.5994 24.8012 58.6036 24.5117C58.6005 24.2242 58.6402 23.9379 58.7215 23.6625C58.7927 23.4166 58.9138 23.1885 59.077 22.9929C59.2435 22.8007 59.4524 22.6514 59.6868 22.5571C59.9502 22.4478 60.2331 22.3949 60.5176 22.4019C60.7904 22.3953 61.0619 22.4423 61.3171 22.5403C61.5359 22.6261 61.7311 22.764 61.8864 22.9424C62.0434 23.1294 62.1595 23.3481 62.2272 23.584C62.3039 23.8614 62.3399 24.1488 62.334 24.4369ZM61.6266 24.4836C61.628 24.2888 61.6088 24.0945 61.5695 23.9038C61.5369 23.7343 61.4745 23.5721 61.3853 23.425C61.2975 23.2876 61.1763 23.1755 61.0334 23.0995C60.8642 23.0237 60.6814 22.9846 60.4964 22.9846C60.3115 22.9846 60.1286 23.0237 59.9594 23.0995C59.813 23.1692 59.6862 23.2754 59.591 23.4082C59.4927 23.5506 59.4215 23.7105 59.381 23.8795C59.3337 24.0747 59.3108 24.2752 59.3128 24.4762C59.3119 24.6721 59.3304 24.8676 59.3681 25.0597C59.4004 25.2282 59.4629 25.3892 59.5523 25.5348C59.6401 25.6717 59.7613 25.7832 59.9042 25.8584C60.0758 25.9441 60.2657 25.9853 60.4568 25.9781C60.6365 25.9829 60.8148 25.9458 60.9782 25.8696C61.1242 25.8002 61.2509 25.6947 61.3466 25.5629C61.446 25.4217 61.5173 25.2622 61.5566 25.0934C61.6043 24.8938 61.6278 24.689 61.6266 24.4836Z" fill="#484848"/>
<path d="M65.6259 22.7965C65.6291 22.8439 65.6291 22.8913 65.6259 22.9387C65.6222 22.9719 65.6129 23.0041 65.5983 23.0341C65.5887 23.0564 65.5742 23.0762 65.5559 23.092C65.5374 23.1045 65.5155 23.1111 65.4933 23.1108H64.3769V26.3727C64.3773 26.3933 64.3715 26.4136 64.3603 26.4307C64.3459 26.448 64.3276 26.4615 64.3069 26.47C64.2738 26.4829 64.2391 26.491 64.2037 26.4943C64.1473 26.4978 64.0907 26.4978 64.0343 26.4943C63.9791 26.4978 63.9237 26.4978 63.8685 26.4943C63.8326 26.491 63.7972 26.4828 63.7635 26.47C63.7422 26.4625 63.7237 26.4489 63.71 26.4307C63.6994 26.4134 63.6942 26.3932 63.6953 26.3727V23.1108H62.5789C62.5574 23.1103 62.5363 23.1038 62.5181 23.092C62.4988 23.0773 62.4841 23.0571 62.4758 23.0341C62.4629 23.0028 62.4536 22.9702 62.4481 22.9368C62.4409 22.8885 62.4378 22.8397 62.4389 22.7909C62.4379 22.7458 62.441 22.7008 62.4481 22.6562C62.4536 22.6226 62.4635 22.5899 62.4776 22.559C62.4868 22.5359 62.5013 22.5153 62.52 22.4991C62.5374 22.4871 62.5579 22.4806 62.5789 22.4804H65.4933C65.5148 22.4809 65.5359 22.4874 65.5541 22.4991C65.5733 22.5148 65.5879 22.5355 65.5964 22.559C65.6093 22.5915 65.6185 22.6254 65.6241 22.66C65.6288 22.7053 65.6294 22.751 65.6259 22.7965Z" fill="#484848"/>
<path d="M71.0182 26.3727C71.0181 26.3921 71.0123 26.411 71.0016 26.427C70.9882 26.4454 70.9696 26.4591 70.9482 26.4663C70.9147 26.4775 70.8801 26.485 70.845 26.4887C70.7348 26.5012 70.6236 26.5012 70.5134 26.4887C70.4772 26.4848 70.4414 26.4772 70.4066 26.4663C70.3835 26.4607 70.3632 26.4467 70.3495 26.427C70.3379 26.4114 70.3321 26.3922 70.3329 26.3727V24.1975C70.3329 24.089 70.3329 23.9768 70.3329 23.8645C70.3329 23.7523 70.3458 23.6401 70.3531 23.5297C70.2896 23.6432 70.2201 23.7531 70.145 23.8589C70.0694 23.9674 69.9921 24.074 69.9147 24.1806L68.3452 26.3727L68.2936 26.4307C68.2777 26.448 68.2581 26.4614 68.2365 26.47C68.2077 26.4818 68.1772 26.4888 68.1462 26.4906C68.1027 26.4939 68.0589 26.4939 68.0154 26.4906C67.9657 26.4941 67.9159 26.4941 67.8662 26.4906C67.8342 26.4866 67.8027 26.4791 67.7722 26.4681C67.7516 26.4614 67.734 26.4475 67.7225 26.4289C67.7131 26.4123 67.7081 26.3937 67.7078 26.3746V22.5852C67.7081 22.5661 67.7131 22.5474 67.7225 22.5309C67.7354 22.5117 67.7542 22.4972 67.7759 22.4898C67.8104 22.4772 67.8463 22.469 67.8828 22.4655C67.927 22.4655 67.9804 22.4655 68.043 22.4655C68.135 22.4603 68.2272 22.4711 68.3157 22.4973C68.3364 22.5028 68.3548 22.5148 68.3684 22.5316C68.382 22.5484 68.39 22.5691 68.3912 22.5908V24.7792C68.3912 24.8876 68.3912 24.9961 68.382 25.1027C68.3728 25.2094 68.371 25.3178 68.3617 25.4244C68.4244 25.3178 68.4889 25.215 68.546 25.1121C68.6031 25.0092 68.6804 24.9101 68.756 24.8128L70.355 22.5908C70.3708 22.5702 70.388 22.5508 70.4066 22.5328C70.4259 22.5154 70.4485 22.5021 70.4729 22.4935C70.5032 22.4821 70.5347 22.4746 70.5668 22.4711C70.6018 22.4711 70.6497 22.4711 70.7069 22.4711C70.764 22.4711 70.8137 22.4711 70.8542 22.4711C70.8865 22.4744 70.9182 22.4826 70.9482 22.4954C70.9686 22.5034 70.9861 22.5178 70.9979 22.5365C71.0077 22.5549 71.0128 22.5755 71.0127 22.5964L71.0182 26.3727Z" fill="#484848"/>
<path d="M76.2665 25.3216C76.2715 25.496 76.2349 25.669 76.1599 25.826C76.0848 25.983 75.9735 26.1192 75.8355 26.2231C75.6825 26.3374 75.5092 26.4206 75.3252 26.4681C75.1008 26.527 74.8697 26.5553 74.638 26.5523C74.5029 26.5527 74.368 26.542 74.2346 26.5205C74.1188 26.5021 74.0043 26.4759 73.8919 26.442C73.8022 26.4148 73.7153 26.3791 73.6322 26.3353C73.5793 26.3097 73.5292 26.2784 73.483 26.2418C73.4581 26.2223 73.4364 26.1989 73.4185 26.1726C73.4041 26.1518 73.3941 26.1283 73.389 26.1034C73.389 26.0772 73.3798 26.0473 73.3743 26.0118C73.3688 25.9762 73.3743 25.9313 73.3743 25.8808C73.3741 25.8426 73.3771 25.8044 73.3835 25.7667C73.3862 25.7408 73.393 25.7156 73.4038 25.6919C73.4099 25.6752 73.4193 25.6599 73.4314 25.647C73.4448 25.6375 73.4611 25.6328 73.4774 25.6339C73.524 25.6409 73.5678 25.6602 73.6046 25.69C73.6733 25.7371 73.7453 25.779 73.8201 25.8154C73.9285 25.8685 74.0413 25.9117 74.1572 25.9444C74.319 25.9868 74.4857 26.0063 74.6528 26.0024C74.7768 26.0032 74.9005 25.9887 75.0212 25.9594C75.1217 25.9338 75.2167 25.8894 75.3012 25.8285C75.3788 25.7721 75.442 25.6977 75.4854 25.6115C75.5291 25.5174 75.5506 25.4143 75.5481 25.3104C75.5496 25.2181 75.5287 25.1269 75.4873 25.0448C75.4404 24.9625 75.373 24.8941 75.292 24.8465C75.1865 24.7855 75.0721 24.7419 74.953 24.7174C74.7886 24.685 74.6213 24.67 74.4538 24.6725H74.0393C74.0163 24.6733 73.9935 24.6682 73.973 24.6576C73.9553 24.6458 73.9408 24.6297 73.9306 24.6108C73.9162 24.5851 73.908 24.5562 73.9067 24.5267C73.9035 24.4856 73.9035 24.4443 73.9067 24.4032C73.9045 24.364 73.9045 24.3246 73.9067 24.2854C73.9113 24.258 73.92 24.2315 73.9325 24.2068C73.9414 24.1882 73.9555 24.1726 73.973 24.1619C73.9923 24.1517 74.0139 24.1466 74.0356 24.147H74.4243C74.5746 24.1495 74.7246 24.1357 74.872 24.1058C74.9836 24.0836 75.0903 24.0412 75.187 23.9805C75.2649 23.9317 75.3285 23.8626 75.3712 23.7804C75.4123 23.6948 75.4325 23.6005 75.4302 23.5054C75.4325 23.4207 75.4128 23.3368 75.3731 23.2623C75.3353 23.1925 75.2824 23.1324 75.2183 23.0864C75.1458 23.0376 75.0654 23.0021 74.9807 22.9817C74.8817 22.9581 74.7803 22.9461 74.6786 22.9462C74.5304 22.9454 74.3828 22.9656 74.2401 23.006C74.1245 23.0389 74.0117 23.0814 73.903 23.1332C73.8072 23.18 73.7298 23.2211 73.669 23.2585C73.6311 23.2878 73.5869 23.3076 73.5401 23.3165C73.5264 23.3166 73.513 23.3127 73.5014 23.3053C73.4868 23.2965 73.4753 23.2835 73.4682 23.2679C73.4564 23.2446 73.4495 23.2192 73.448 23.1931C73.4449 23.1545 73.4449 23.1157 73.448 23.0771C73.4472 23.0142 73.4534 22.9515 73.4664 22.89C73.4778 22.844 73.5014 22.802 73.5346 22.7685C73.5874 22.7214 73.6463 22.6818 73.7096 22.6506C73.8022 22.6004 73.8997 22.5603 74.0006 22.5309C74.1213 22.4929 74.2444 22.4635 74.3691 22.443C74.5022 22.4188 74.6373 22.4069 74.7725 22.4075C74.9586 22.4056 75.1442 22.427 75.3252 22.4711C75.48 22.5088 75.6263 22.576 75.7562 22.6693C75.8744 22.7537 75.9705 22.8661 76.0363 22.9967C76.1051 23.1378 76.1392 23.2937 76.1357 23.4512C76.1409 23.6543 76.0757 23.8529 75.9515 24.0123C75.8861 24.0933 75.8091 24.1639 75.7231 24.2218C75.6298 24.284 75.528 24.3319 75.421 24.3639C75.532 24.3758 75.64 24.4082 75.7397 24.4593C75.8444 24.5096 75.9398 24.578 76.0215 24.6613C76.1058 24.7457 76.1739 24.8453 76.2223 24.955C76.2618 25.0728 76.2768 25.1976 76.2665 25.3216Z" fill="#484848"/>
<path d="M79.8183 26.3727C79.819 26.387 79.8164 26.4012 79.8106 26.4142C79.8048 26.4272 79.7961 26.4387 79.7851 26.4476C79.7582 26.4669 79.7273 26.4797 79.6948 26.485C79.639 26.4954 79.5821 26.4998 79.5253 26.4981C79.4679 26.4996 79.4106 26.4952 79.354 26.485C79.3201 26.4807 79.2878 26.4678 79.2601 26.4476C79.2505 26.4378 79.2431 26.4261 79.2383 26.4132C79.2336 26.4003 79.2316 26.3865 79.2324 26.3727V25.9987C79.0748 26.1688 78.8874 26.3077 78.6798 26.4083C78.4819 26.5064 78.2644 26.5569 78.0442 26.556C77.864 26.5579 77.6845 26.532 77.5118 26.4794C77.3636 26.4325 77.2263 26.3555 77.1084 26.253C76.9957 26.1549 76.9062 26.0321 76.8468 25.8939C76.7837 25.7393 76.7523 25.5731 76.7547 25.4057C76.7487 25.2107 76.7925 25.0174 76.8818 24.8446C76.9706 24.6851 77.0972 24.5508 77.2502 24.4537C77.4311 24.3418 77.6301 24.2633 77.8379 24.2218C78.0947 24.1667 78.3566 24.1404 78.619 24.1432H79.1311V23.8496C79.1334 23.7196 79.1179 23.5899 79.0851 23.4643C79.0593 23.3603 79.0094 23.2641 78.9395 23.1837C78.8666 23.107 78.7761 23.0498 78.6761 23.0172C78.5483 22.9751 78.4143 22.9555 78.28 22.9592C78.1268 22.9572 77.9741 22.978 77.8268 23.021C77.706 23.0556 77.5883 23.1007 77.475 23.1556C77.3755 23.2043 77.2908 23.2492 77.2226 23.2884C77.1786 23.321 77.1273 23.3422 77.0734 23.3502C77.0525 23.3506 77.032 23.3448 77.0144 23.3333C76.9962 23.3205 76.9816 23.3031 76.9721 23.2828C76.9577 23.2561 76.9483 23.227 76.9444 23.1968C76.9383 23.1584 76.9352 23.1197 76.9352 23.0808C76.9341 23.0256 76.9391 22.9704 76.95 22.9162C76.9615 22.871 76.9866 22.8305 77.0218 22.8003C77.0779 22.7505 77.1398 22.7077 77.206 22.6731C77.3066 22.6181 77.4121 22.573 77.521 22.5384C77.653 22.4968 77.7878 22.4655 77.9245 22.4449C78.0649 22.4188 78.2073 22.4057 78.35 22.4056C78.5811 22.4001 78.8117 22.431 79.0335 22.4973C79.2045 22.549 79.3606 22.6421 79.4885 22.7685C79.6072 22.8922 79.6939 23.0439 79.7409 23.2099C79.7955 23.4108 79.8215 23.6187 79.8183 23.8271V26.3727ZM79.1403 24.6464H78.5582C78.3942 24.6442 78.2305 24.6605 78.07 24.695C77.9481 24.7205 77.832 24.7687 77.7274 24.8371C77.6419 24.8932 77.5726 24.9713 77.5266 25.0635C77.4826 25.1588 77.4606 25.2631 77.4621 25.3683C77.4579 25.4551 77.4721 25.5419 77.5039 25.6226C77.5357 25.7033 77.5843 25.776 77.6463 25.8359C77.7888 25.9598 77.973 26.0228 78.1603 26.0118C78.336 26.0124 78.5085 25.9646 78.6595 25.8733C78.8396 25.7568 79.0016 25.6137 79.1403 25.4488V24.6464Z" fill="#484848"/>
<path d="M83.9596 26.3727C83.96 26.3933 83.9542 26.4136 83.943 26.4307C83.9286 26.448 83.9103 26.4615 83.8896 26.47C83.8565 26.4829 83.8217 26.491 83.7864 26.4943C83.7312 26.4978 83.6758 26.4978 83.6206 26.4943C83.5642 26.4978 83.5076 26.4978 83.4511 26.4943C83.4152 26.491 83.3799 26.4828 83.3461 26.47C83.3239 26.4624 83.3042 26.4488 83.289 26.4307C83.2758 26.4142 83.2681 26.394 83.2669 26.3727V23.0677H81.4947V26.3727C81.4952 26.3933 81.4894 26.4136 81.4782 26.4307C81.4627 26.4485 81.443 26.462 81.4211 26.47C81.3873 26.4828 81.352 26.491 81.3161 26.4943C81.2608 26.4978 81.2055 26.4978 81.1503 26.4943C81.0957 26.4978 81.0409 26.4978 80.9863 26.4943C80.9498 26.4908 80.9139 26.4826 80.8795 26.47C80.8587 26.4644 80.8406 26.4516 80.8281 26.4339C80.8157 26.4161 80.8097 26.3945 80.8113 26.3727V22.7292C80.8054 22.6617 80.8259 22.5945 80.8684 22.5422C80.8883 22.5211 80.9124 22.5048 80.9391 22.4941C80.9658 22.4834 80.9945 22.4788 81.0231 22.4804H83.7477C83.7761 22.4788 83.8045 22.4835 83.8309 22.4941C83.8573 22.5048 83.8811 22.5212 83.9006 22.5422C83.9403 22.5958 83.9593 22.6623 83.9541 22.7292L83.9596 26.3727Z" fill="#484848"/>
<path d="M88.283 26.3727C88.282 26.3919 88.2763 26.4106 88.2664 26.427C88.2523 26.4454 88.233 26.4591 88.2111 26.4663C88.1777 26.4777 88.1431 26.4852 88.108 26.4887C87.9984 26.5012 87.8878 26.5012 87.7782 26.4887C87.7414 26.4847 87.705 26.4772 87.6695 26.4663C87.6467 26.4601 87.6266 26.4462 87.6124 26.427C87.6017 26.411 87.5959 26.3921 87.5958 26.3727V24.1975C87.5958 24.089 87.5958 23.9767 87.5958 23.8645C87.5958 23.7523 87.6087 23.6401 87.6179 23.5297C87.5535 23.6419 87.4835 23.7523 87.4079 23.8589C87.3324 23.9655 87.2569 24.074 87.1795 24.1806L85.6063 26.3727L85.5547 26.4307C85.5392 26.4484 85.5195 26.4619 85.4976 26.47C85.4694 26.4816 85.4396 26.4886 85.4092 26.4906C85.365 26.4938 85.3207 26.4938 85.2765 26.4906C85.2269 26.4941 85.177 26.4941 85.1273 26.4906C85.0959 26.4869 85.0649 26.4793 85.0352 26.4681C85.0146 26.4614 84.997 26.4475 84.9855 26.4288C84.9753 26.4127 84.9702 26.3938 84.9707 26.3746V22.5852C84.9702 22.566 84.9753 22.5471 84.9855 22.5309C84.9984 22.5117 85.0171 22.4972 85.0389 22.4898C85.0727 22.4769 85.108 22.4688 85.1439 22.4655C85.1881 22.4655 85.2415 22.4655 85.306 22.4655C85.398 22.4605 85.4902 22.4712 85.5787 22.4973C85.5992 22.5028 85.6174 22.5149 85.6306 22.5317C85.6439 22.5486 85.6515 22.5692 85.6524 22.5908V24.7792C85.6524 24.8876 85.6524 24.9961 85.6524 25.1027C85.6524 25.2093 85.6395 25.3178 85.6302 25.4244C85.6947 25.3178 85.7592 25.215 85.8145 25.1121C85.8697 25.0092 85.9489 24.9101 86.0226 24.8128L87.6235 22.5908C87.6387 22.5698 87.656 22.5504 87.6751 22.5328C87.6938 22.5146 87.7165 22.5012 87.7414 22.4935C87.7711 22.4823 87.802 22.4748 87.8335 22.4711C87.8685 22.4711 87.9164 22.4711 87.9735 22.4711C88.0306 22.4711 88.0803 22.4711 88.1209 22.4711C88.1538 22.4745 88.186 22.4827 88.2167 22.4954C88.2365 22.5044 88.2537 22.5186 88.2664 22.5365C88.2762 22.5549 88.2813 22.5755 88.2811 22.5964L88.283 26.3727Z" fill="#484848"/>
<path d="M91.9675 25.7929C91.9675 25.8397 91.9675 25.8808 91.9675 25.9164C91.9664 25.9462 91.9615 25.9758 91.9528 26.0043C91.9465 26.0261 91.9385 26.0474 91.9288 26.0679C91.9099 26.0972 91.8876 26.1242 91.8625 26.1483C91.8053 26.1971 91.7436 26.2403 91.6783 26.2774C91.5899 26.332 91.4968 26.3783 91.4001 26.4158C91.2906 26.4582 91.1779 26.4913 91.063 26.5149C90.9416 26.5393 90.8183 26.5518 90.6946 26.5523C90.451 26.557 90.209 26.5111 89.9835 26.4176C89.7816 26.3312 89.6033 26.1965 89.464 26.0249C89.3175 25.837 89.2091 25.6215 89.1453 25.3908C89.0689 25.1088 89.0323 24.8172 89.0366 24.5248C89.0266 24.2008 89.069 23.8773 89.1618 23.5671C89.2368 23.324 89.3624 23.1 89.5303 22.9106C89.6836 22.7442 89.8727 22.6162 90.0829 22.5365C90.3019 22.4526 90.5342 22.4108 90.7682 22.4131C90.991 22.4138 91.2119 22.455 91.4204 22.5347C91.5079 22.5677 91.5918 22.6097 91.6709 22.66C91.7272 22.6956 91.7802 22.7363 91.8293 22.7816C91.8552 22.8054 91.8781 22.8324 91.8975 22.862C91.9116 22.8832 91.9221 22.9066 91.9288 22.9312C91.9386 22.9602 91.9441 22.9904 91.9454 23.021C91.9475 23.0627 91.9475 23.1045 91.9454 23.1463C91.9518 23.2249 91.9392 23.3039 91.9086 23.3764C91.9009 23.3946 91.8884 23.4104 91.8725 23.4219C91.8565 23.4335 91.8378 23.4403 91.8183 23.4418C91.7642 23.4355 91.7137 23.4111 91.6746 23.3726C91.6095 23.3174 91.5412 23.2662 91.4701 23.2192C91.3766 23.157 91.2765 23.1055 91.1717 23.0659C91.0384 23.0167 90.8972 22.9932 90.7553 22.9967C90.6085 22.9884 90.462 23.0185 90.3298 23.0839C90.1976 23.1494 90.084 23.2481 90 23.3707C89.8034 23.7095 89.7123 24.1007 89.7385 24.493C89.7351 24.7083 89.758 24.9231 89.8066 25.1327C89.8442 25.2976 89.9124 25.4537 90.0074 25.5928C90.0898 25.7117 90.2017 25.8066 90.3316 25.8677C90.4702 25.93 90.6205 25.9606 90.7719 25.9575C90.913 25.9608 91.0533 25.9353 91.1846 25.8827C91.293 25.838 91.3967 25.7822 91.4941 25.7162C91.5807 25.6564 91.6525 25.6021 91.7133 25.5535C91.7503 25.5142 91.7987 25.488 91.8515 25.4787C91.8694 25.4786 91.8869 25.4845 91.9012 25.4955C91.9171 25.5118 91.9291 25.5317 91.9362 25.5535C91.9469 25.5856 91.9537 25.6189 91.9565 25.6526C91.9638 25.69 91.9675 25.7368 91.9675 25.7929Z" fill="#484848"/>
<path d="M95.7071 25.1663C95.7087 25.3525 95.6729 25.537 95.6021 25.7087C95.53 25.8793 95.4173 26.0291 95.2742 26.1446C95.1045 26.2788 94.9105 26.3779 94.7031 26.4363C94.4329 26.5133 94.153 26.5498 93.8723 26.5448H93.6402C93.561 26.5448 93.4818 26.5448 93.4044 26.5448L93.1778 26.5299L92.9586 26.5093C92.9096 26.5098 92.861 26.4996 92.8163 26.4792C92.7715 26.4588 92.7317 26.4289 92.6995 26.3913C92.6672 26.3538 92.6434 26.3097 92.6296 26.2619C92.6159 26.2141 92.6124 26.1639 92.6196 26.1146V22.5908C92.6192 22.5704 92.6243 22.5504 92.6344 22.5328C92.6484 22.5146 92.6668 22.5004 92.6878 22.4917C92.7212 22.4772 92.7566 22.4684 92.7928 22.4655C92.837 22.4655 92.8923 22.4655 92.9586 22.4655C93.0249 22.4655 93.0802 22.4655 93.1244 22.4655C93.1606 22.4684 93.196 22.4772 93.2294 22.4917C93.2506 22.5009 93.2695 22.515 93.2847 22.5328C93.2961 22.5499 93.3019 22.5702 93.3012 22.5908V23.9206C93.4044 23.9206 93.5131 23.9057 93.6328 23.9019C93.7526 23.8982 93.8723 23.9019 94.0013 23.9019C94.2626 23.8977 94.5234 23.9285 94.7768 23.9936C94.9691 24.042 95.1497 24.1298 95.3074 24.2517C95.441 24.3568 95.5462 24.4945 95.6132 24.652C95.6785 24.8152 95.7105 24.9902 95.7071 25.1663ZM94.9887 25.2131C94.9897 25.1065 94.9716 25.0007 94.9353 24.9007C94.8967 24.8053 94.833 24.7224 94.751 24.6613C94.6547 24.5893 94.5451 24.5378 94.4287 24.5098C94.2686 24.4723 94.1047 24.4548 93.9405 24.4574C93.8244 24.4574 93.712 24.4574 93.5997 24.4668C93.4873 24.4762 93.3878 24.478 93.2957 24.4874V25.9388C93.3915 25.95 93.4965 25.9613 93.6052 25.9687C93.7139 25.9762 93.8392 25.9818 93.9736 25.9818C94.2427 26.0033 94.5109 25.9314 94.7345 25.778C94.8176 25.7107 94.8839 25.6245 94.9281 25.5264C94.9722 25.4282 94.993 25.3209 94.9887 25.2131Z" fill="#484848"/>
<path d="M100.747 24.3864C100.752 24.6971 100.713 25.007 100.631 25.3066C100.565 25.5541 100.45 25.7852 100.292 25.9856C100.145 26.1704 99.9553 26.3156 99.7397 26.4083C99.4951 26.5079 99.2333 26.5569 98.9697 26.5523C98.8295 26.5533 98.6896 26.5414 98.5515 26.5168C98.4347 26.4955 98.3195 26.4655 98.207 26.427C98.1177 26.3958 98.0319 26.355 97.951 26.3054C97.8983 26.2736 97.8484 26.2373 97.8018 26.1969C97.779 26.1777 97.7581 26.1564 97.7391 26.1333C97.7263 26.114 97.7169 26.0924 97.7115 26.0697C97.7031 26.0405 97.6982 26.0104 97.6968 25.98C97.6968 25.9444 97.6968 25.8995 97.6968 25.8472C97.6913 25.7735 97.7013 25.6996 97.7262 25.6302C97.7333 25.6142 97.7447 25.6004 97.759 25.5905C97.7733 25.5806 97.79 25.5749 97.8073 25.5741C97.8541 25.5819 97.897 25.6057 97.9289 25.6414C97.9945 25.6962 98.0648 25.745 98.1389 25.7873C98.2447 25.8458 98.3557 25.894 98.4705 25.9313C98.6312 25.98 98.7984 26.0028 98.966 25.9987C99.1114 26.0056 99.2566 25.9801 99.3913 25.9238C99.5259 25.8676 99.6468 25.782 99.7453 25.6732C99.9596 25.3902 100.071 25.0406 100.06 24.6838H98.1886C98.1692 24.6838 98.1503 24.6781 98.1339 24.6675C98.1176 24.6569 98.1046 24.6418 98.0965 24.6239C98.0702 24.5608 98.0588 24.4922 98.0634 24.4238C98.0588 24.356 98.0701 24.288 98.0965 24.2255C98.1045 24.2074 98.1174 24.192 98.1337 24.1811C98.1501 24.1702 98.1691 24.1642 98.1886 24.1638H100.049C100.035 23.9933 99.9993 23.8254 99.9424 23.6644C99.8913 23.5256 99.8137 23.3985 99.714 23.2903C99.6177 23.185 99.5002 23.1021 99.3695 23.0472C99.2245 22.9874 99.0691 22.9581 98.9126 22.9611C98.7672 22.9579 98.6224 22.9814 98.4852 23.0303C98.3746 23.0692 98.2684 23.12 98.1684 23.1818C98.094 23.2269 98.0226 23.2769 97.9547 23.3315C97.9223 23.3669 97.8798 23.3911 97.8331 23.4007C97.8179 23.4015 97.8029 23.3969 97.7907 23.3876C97.7764 23.3754 97.7651 23.36 97.7575 23.3427C97.7452 23.3162 97.7378 23.2877 97.7354 23.2585C97.7332 23.2137 97.7332 23.1687 97.7354 23.1238C97.7333 23.084 97.7333 23.044 97.7354 23.0041C97.7354 22.9723 97.7447 22.9462 97.7502 22.9237C97.7549 22.9037 97.7617 22.8843 97.7704 22.8657C97.7833 22.8456 97.7988 22.8274 97.8165 22.8115C97.8592 22.775 97.9041 22.7412 97.951 22.7105C98.0324 22.6577 98.118 22.612 98.207 22.5739C98.3264 22.5243 98.4496 22.4849 98.5755 22.4561C98.7235 22.422 98.875 22.4057 99.0268 22.4075C99.2663 22.4045 99.5041 22.449 99.7268 22.5384C99.9375 22.6233 100.127 22.7557 100.279 22.9256C100.439 23.106 100.56 23.3181 100.635 23.5484C100.717 23.8197 100.755 24.1027 100.747 24.3864Z" fill="#484848"/>
<path d="M104.533 26.3971C104.533 26.4132 104.528 26.4289 104.518 26.4419C104.504 26.4568 104.485 26.4672 104.465 26.4719C104.431 26.4823 104.397 26.4886 104.362 26.4906C104.307 26.494 104.252 26.494 104.198 26.4906C104.136 26.494 104.075 26.494 104.014 26.4906C103.974 26.4865 103.934 26.479 103.896 26.4681C103.871 26.4612 103.848 26.4484 103.829 26.4307C103.817 26.4154 103.807 26.3976 103.802 26.3784L103.404 25.4001C103.36 25.2874 103.307 25.1785 103.245 25.0747C103.194 24.9891 103.127 24.9142 103.048 24.854C102.973 24.7975 102.887 24.7562 102.796 24.7324C102.69 24.7064 102.582 24.6938 102.474 24.695H102.184V26.3952C102.183 26.411 102.176 26.4258 102.164 26.4363C102.146 26.453 102.125 26.4647 102.101 26.47C102.066 26.4802 102.031 26.4871 101.995 26.4906C101.944 26.4938 101.893 26.4938 101.842 26.4906C101.791 26.4938 101.74 26.4938 101.689 26.4906C101.653 26.4873 101.617 26.4804 101.582 26.47C101.559 26.4656 101.537 26.4538 101.521 26.4363C101.51 26.4256 101.503 26.4108 101.503 26.3952V22.5571C101.503 22.5493 101.504 22.5417 101.508 22.5346C101.511 22.5275 101.515 22.5212 101.521 22.516C101.539 22.5012 101.56 22.4904 101.582 22.4842C101.617 22.4754 101.653 22.4692 101.689 22.4655C101.733 22.4655 101.783 22.4655 101.842 22.4655C101.901 22.4655 101.95 22.4655 101.995 22.4655C102.031 22.4694 102.066 22.4756 102.101 22.4842C102.124 22.4913 102.145 22.502 102.164 22.516C102.17 22.5211 102.175 22.5273 102.178 22.5344C102.182 22.5415 102.184 22.5492 102.184 22.5571V24.1395H102.474C102.57 24.1399 102.667 24.1279 102.761 24.1039C102.847 24.0801 102.927 24.0401 102.999 23.9861C103.071 23.9262 103.134 23.8541 103.183 23.7729C103.245 23.6737 103.296 23.5684 103.337 23.4587L103.684 22.5908C103.689 22.5687 103.699 22.5481 103.713 22.5309C103.73 22.512 103.752 22.4978 103.776 22.4898C103.811 22.4768 103.847 22.4686 103.885 22.4655C103.931 22.4655 103.99 22.4655 104.069 22.4655C104.148 22.4655 104.189 22.4655 104.231 22.4655C104.265 22.4687 104.298 22.475 104.33 22.4842C104.349 22.4904 104.365 22.5014 104.378 22.516C104.386 22.5283 104.391 22.5425 104.391 22.5571C104.391 22.5837 104.387 22.6101 104.38 22.6357C104.372 22.6687 104.361 22.7012 104.349 22.7329L103.995 23.5671C103.947 23.6915 103.885 23.81 103.811 23.9206C103.754 24.0065 103.688 24.0855 103.614 24.1563C103.553 24.215 103.485 24.2648 103.411 24.3041C103.347 24.3372 103.281 24.3648 103.212 24.3864C103.305 24.4182 103.394 24.4589 103.479 24.508C103.565 24.5577 103.645 24.6187 103.715 24.6894C103.79 24.7641 103.856 24.8476 103.912 24.9381C103.978 25.0445 104.035 25.1565 104.082 25.2729L104.491 26.2287C104.501 26.246 104.509 26.2642 104.516 26.283C104.516 26.2998 104.516 26.3166 104.529 26.3316C104.542 26.3466 104.529 26.3597 104.529 26.369C104.531 26.3782 104.533 26.3876 104.533 26.3971Z" fill="#484848"/>
<path d="M108.595 24.42C108.599 24.7202 108.563 25.0196 108.49 25.3104C108.43 25.5516 108.325 25.7789 108.18 25.98C108.047 26.1596 107.873 26.3045 107.674 26.4027C107.458 26.5055 107.222 26.5567 106.983 26.5523C106.88 26.5531 106.778 26.5418 106.677 26.5186C106.582 26.4954 106.49 26.4603 106.403 26.4139C106.307 26.3613 106.218 26.2986 106.136 26.2269C106.047 26.1558 105.951 26.0697 105.854 25.9725V27.8691C105.854 27.8896 105.848 27.9098 105.837 27.9271C105.824 27.9459 105.805 27.9602 105.784 27.9682C105.751 27.982 105.716 27.9908 105.681 27.9944C105.624 27.9977 105.568 27.9977 105.511 27.9944C105.456 27.9977 105.401 27.9977 105.345 27.9944C105.309 27.9906 105.274 27.9818 105.24 27.9682C105.219 27.9608 105.2 27.9463 105.187 27.9271C105.177 27.9093 105.172 27.8893 105.172 27.8691V22.5908C105.171 22.5694 105.175 22.548 105.185 22.5291C105.197 22.5105 105.214 22.4967 105.235 22.4898C105.265 22.4772 105.296 22.4691 105.329 22.4655C105.367 22.4655 105.415 22.4655 105.471 22.4655C105.526 22.4655 105.576 22.4655 105.612 22.4655C105.645 22.4695 105.676 22.4777 105.706 22.4898C105.726 22.4978 105.744 22.5114 105.756 22.5291C105.767 22.5475 105.773 22.5691 105.771 22.5908V23.0977C105.875 22.9897 105.984 22.8873 106.099 22.7909C106.196 22.7087 106.302 22.6366 106.414 22.5758C106.518 22.5192 106.628 22.4753 106.742 22.4449C106.857 22.4151 106.975 22.4006 107.094 22.4019C107.333 22.3942 107.571 22.4489 107.784 22.5609C107.973 22.6645 108.133 22.8143 108.25 22.9967C108.372 23.1947 108.458 23.4132 108.505 23.642C108.564 23.897 108.594 24.158 108.595 24.42ZM107.888 24.5005C107.888 24.3126 107.873 24.125 107.845 23.9393C107.82 23.7721 107.769 23.6098 107.694 23.4586C107.629 23.3245 107.531 23.2093 107.41 23.1238C107.278 23.0358 107.123 22.9914 106.965 22.9967C106.876 22.9963 106.787 23.0102 106.703 23.0378C106.61 23.0667 106.522 23.1089 106.441 23.1631C106.341 23.2293 106.247 23.3051 106.161 23.3894C106.052 23.4982 105.949 23.6138 105.854 23.7355V25.2318C106.01 25.4316 106.191 25.6107 106.392 25.7649C106.544 25.8836 106.73 25.9492 106.922 25.9519C107.079 25.9568 107.234 25.9131 107.366 25.8266C107.491 25.7403 107.594 25.6248 107.666 25.4899C107.745 25.3426 107.801 25.1844 107.834 25.0204C107.87 24.8501 107.888 24.6765 107.888 24.5023V24.5005Z" fill="#484848"/>
<path d="M112.169 26.3727C112.17 26.387 112.167 26.4012 112.161 26.4142C112.155 26.4272 112.147 26.4387 112.136 26.4476C112.109 26.4669 112.078 26.4797 112.045 26.485C111.99 26.4954 111.933 26.4998 111.876 26.4981C111.819 26.4996 111.761 26.4952 111.705 26.485C111.671 26.4807 111.638 26.4678 111.611 26.4476C111.601 26.4378 111.594 26.4261 111.589 26.4132C111.584 26.4003 111.582 26.3865 111.583 26.3727V25.9987C111.425 26.1688 111.238 26.3077 111.03 26.4083C110.832 26.5064 110.615 26.557 110.395 26.556C110.215 26.558 110.036 26.5322 109.864 26.4794C109.715 26.433 109.577 26.3559 109.459 26.253C109.346 26.1549 109.257 26.0321 109.197 25.8939C109.134 25.7393 109.103 25.5731 109.105 25.4057C109.099 25.2107 109.143 25.0174 109.232 24.8446C109.321 24.6851 109.448 24.5508 109.601 24.4537C109.782 24.3418 109.981 24.2633 110.188 24.2218C110.445 24.1668 110.707 24.1405 110.97 24.1432H111.482V23.8496C111.484 23.7197 111.469 23.5902 111.437 23.4643C111.411 23.3602 111.361 23.264 111.29 23.1837C111.217 23.107 111.127 23.0498 111.027 23.0172C110.899 22.9751 110.765 22.9555 110.631 22.9592C110.477 22.9572 110.325 22.978 110.177 23.021C110.057 23.0553 109.94 23.1003 109.827 23.1556C109.726 23.2043 109.643 23.2492 109.575 23.2884C109.53 23.3208 109.478 23.342 109.424 23.3502C109.403 23.3506 109.383 23.3448 109.365 23.3333C109.347 23.32 109.333 23.3027 109.323 23.2828C109.308 23.2561 109.299 23.227 109.295 23.1968C109.292 23.1582 109.292 23.1194 109.295 23.0808C109.293 23.0255 109.298 22.9702 109.31 22.9162C109.321 22.8714 109.346 22.831 109.38 22.8003C109.436 22.7505 109.498 22.7077 109.564 22.6731C109.665 22.6181 109.77 22.573 109.879 22.5384C110.006 22.4948 110.136 22.4611 110.268 22.4374C110.408 22.4112 110.551 22.398 110.693 22.3981C110.924 22.3927 111.154 22.4236 111.375 22.4898C111.546 22.5416 111.702 22.6346 111.83 22.761C111.949 22.8847 112.035 23.0364 112.082 23.2024C112.137 23.4034 112.163 23.6112 112.16 23.8196L112.169 26.3727ZM111.491 24.6464H110.909C110.745 24.6442 110.581 24.6605 110.421 24.695C110.299 24.7205 110.183 24.7687 110.078 24.8371C109.992 24.8932 109.923 24.9713 109.877 25.0635C109.833 25.1588 109.811 25.2631 109.813 25.3683C109.808 25.4551 109.823 25.5419 109.855 25.6226C109.886 25.7033 109.935 25.776 109.997 25.8359C110.14 25.9592 110.325 26.0221 110.513 26.0118C110.688 26.0125 110.86 25.9646 111.01 25.8733C111.19 25.7568 111.352 25.6137 111.491 25.4488V24.6464Z" fill="#484848"/>
<path d="M116.426 26.3727C116.427 26.3933 116.421 26.4136 116.41 26.4307C116.395 26.448 116.377 26.4615 116.356 26.47C116.323 26.4828 116.288 26.491 116.253 26.4943C116.198 26.4978 116.142 26.4978 116.087 26.4943C116.031 26.4978 115.974 26.4978 115.918 26.4943C115.882 26.4913 115.848 26.4831 115.814 26.47C115.794 26.462 115.775 26.4484 115.761 26.4307C115.75 26.4136 115.744 26.3933 115.744 26.3727V24.7156H113.847V26.3727C113.847 26.3933 113.842 26.4136 113.83 26.4307C113.816 26.448 113.798 26.4615 113.777 26.47C113.743 26.4828 113.708 26.491 113.672 26.4943C113.616 26.4979 113.559 26.4979 113.503 26.4943C113.448 26.4977 113.393 26.4977 113.339 26.4943C113.302 26.4908 113.266 26.4826 113.232 26.47C113.211 26.462 113.192 26.4484 113.178 26.4307C113.169 26.413 113.163 26.393 113.164 26.3727V22.5908C113.163 22.5704 113.168 22.5504 113.178 22.5328C113.193 22.515 113.211 22.5009 113.232 22.4917C113.266 22.4776 113.302 22.4687 113.339 22.4655C113.383 22.4655 113.438 22.4655 113.503 22.4655C113.567 22.4655 113.628 22.4655 113.672 22.4655C113.708 22.4684 113.744 22.4772 113.777 22.4917C113.797 22.5014 113.816 22.5155 113.83 22.5328C113.842 22.5499 113.848 22.5702 113.847 22.5908V24.1283H115.744V22.5927C115.744 22.572 115.75 22.5517 115.761 22.5347C115.775 22.5169 115.794 22.5028 115.814 22.4935C115.847 22.4788 115.882 22.47 115.918 22.4673C115.962 22.4673 116.019 22.4673 116.087 22.4673C116.155 22.4673 116.209 22.4673 116.253 22.4673C116.289 22.4702 116.323 22.4791 116.356 22.4935C116.377 22.5033 116.395 22.5173 116.41 22.5347C116.421 22.5517 116.427 22.572 116.426 22.5927V26.3727Z" fill="#484848"/>
<path d="M120.245 26.3727C120.246 26.387 120.243 26.4012 120.237 26.4142C120.232 26.4272 120.223 26.4387 120.212 26.4476C120.184 26.4668 120.153 26.4796 120.12 26.485C120.064 26.4955 120.007 26.4999 119.95 26.4981C119.893 26.4996 119.835 26.4952 119.779 26.485C119.745 26.4813 119.714 26.4683 119.687 26.4476C119.677 26.4382 119.669 26.4266 119.663 26.4136C119.658 26.4006 119.656 26.3867 119.657 26.3727V25.9987C119.503 26.1683 119.318 26.3072 119.114 26.4083C118.916 26.5066 118.699 26.5572 118.478 26.556C118.299 26.558 118.12 26.5322 117.948 26.4794C117.799 26.4325 117.661 26.3555 117.542 26.253C117.43 26.1548 117.341 26.032 117.283 25.8939C117.218 25.7397 117.186 25.5734 117.189 25.4057C117.183 25.2105 117.227 25.0171 117.318 24.8446C117.406 24.685 117.533 24.5506 117.686 24.4537C117.867 24.3418 118.066 24.2633 118.274 24.2218C118.531 24.1668 118.792 24.1405 119.055 24.1432H119.569V23.8496C119.57 23.7196 119.555 23.5901 119.523 23.4643C119.497 23.3599 119.447 23.2635 119.375 23.1837C119.303 23.107 119.213 23.0498 119.114 23.0172C118.985 22.9751 118.851 22.9555 118.716 22.9593C118.563 22.9571 118.411 22.9779 118.265 23.021C118.144 23.055 118.026 23.1 117.913 23.1556C117.811 23.2043 117.729 23.2492 117.66 23.2884C117.616 23.3209 117.564 23.342 117.509 23.3502C117.489 23.3506 117.469 23.3447 117.452 23.3333C117.434 23.3201 117.419 23.3029 117.408 23.2828C117.394 23.2561 117.384 23.227 117.38 23.1968C117.377 23.1582 117.377 23.1194 117.38 23.0808C117.378 23.0255 117.383 22.9702 117.395 22.9162C117.407 22.8714 117.431 22.831 117.465 22.8003C117.521 22.7505 117.583 22.7078 117.649 22.6731C117.75 22.6188 117.856 22.5737 117.964 22.5384C118.091 22.4951 118.221 22.4613 118.353 22.4374C118.493 22.4112 118.636 22.398 118.779 22.3981C119.009 22.3926 119.239 22.4235 119.46 22.4898C119.631 22.5416 119.787 22.6346 119.915 22.761C120.035 22.8843 120.121 23.0361 120.168 23.2024C120.223 23.4033 120.25 23.6111 120.247 23.8196L120.245 26.3727ZM119.567 24.6464H118.983C118.819 24.6442 118.655 24.6605 118.495 24.695C118.373 24.7205 118.257 24.7687 118.152 24.8371C118.067 24.8937 117.998 24.9717 117.951 25.0635C117.907 25.1588 117.885 25.2631 117.887 25.3683C117.883 25.4551 117.898 25.5417 117.929 25.6223C117.961 25.7029 118.01 25.7757 118.071 25.8359C118.215 25.9592 118.399 26.0221 118.587 26.0118C118.762 26.0125 118.934 25.9646 119.084 25.8733C119.265 25.7563 119.427 25.6133 119.567 25.4488V24.6464Z" fill="#484848"/>
<path d="M125.958 25.2804C125.961 25.4637 125.923 25.6453 125.847 25.8116C125.771 25.9686 125.657 26.1032 125.515 26.2025C125.347 26.3164 125.16 26.3976 124.963 26.4419C124.713 26.4994 124.458 26.5264 124.202 26.5224H123.937H123.69L123.452 26.5074L123.218 26.4868C123.172 26.4864 123.126 26.476 123.084 26.4565C123.042 26.4369 123.005 26.4085 122.974 26.3731C122.944 26.3378 122.921 26.2964 122.908 26.2515C122.894 26.2066 122.89 26.1593 122.896 26.1127V22.8582C122.89 22.7641 122.917 22.6708 122.971 22.5945C123.032 22.5284 123.116 22.4894 123.205 22.486C123.277 22.4767 123.355 22.4692 123.436 22.4636L123.686 22.4505C123.771 22.4505 123.859 22.4505 123.95 22.4393C124.04 22.4281 124.134 22.4393 124.228 22.4393C124.461 22.4359 124.694 22.4585 124.922 22.5066C125.095 22.5421 125.259 22.6086 125.409 22.703C125.532 22.7805 125.631 22.8912 125.696 23.0228C125.761 23.1572 125.793 23.3053 125.79 23.4549C125.795 23.6507 125.736 23.8426 125.622 24.0011C125.497 24.1601 125.323 24.273 125.129 24.3228C125.366 24.3621 125.583 24.4821 125.744 24.6632C125.884 24.837 125.96 25.0556 125.958 25.2804ZM125.136 23.526C125.137 23.441 125.121 23.3566 125.086 23.2791C125.05 23.2022 124.993 23.1373 124.922 23.092C124.832 23.0361 124.733 22.9974 124.629 22.978C124.485 22.9511 124.339 22.9386 124.193 22.9405C124.064 22.9405 123.944 22.9405 123.837 22.9518C123.73 22.963 123.638 22.9667 123.565 22.9742V24.1488H124.259C124.487 24.164 124.715 24.1079 124.911 23.988C124.984 23.9364 125.043 23.867 125.082 23.7863C125.121 23.7055 125.14 23.616 125.136 23.526ZM125.259 25.2935C125.262 25.1919 125.242 25.0911 125.202 24.998C125.162 24.9107 125.098 24.8367 125.018 24.7848C124.919 24.7232 124.81 24.6807 124.696 24.6594C124.542 24.6289 124.386 24.6144 124.23 24.6164H123.565V25.9556C123.616 25.9556 123.671 25.9706 123.728 25.9762L123.902 25.9874L124.086 25.9987H124.25C124.404 26.001 124.558 25.9847 124.709 25.95C124.822 25.924 124.929 25.8764 125.025 25.8097C125.105 25.7528 125.169 25.6753 125.21 25.5853C125.249 25.4933 125.269 25.3939 125.269 25.2935H125.259Z" fill="#484848"/>
<path d="M131.565 26.1857C131.565 26.2309 131.561 26.276 131.552 26.3204C131.546 26.3513 131.535 26.3809 131.519 26.4083C131.508 26.4284 131.491 26.4452 131.471 26.4569C131.454 26.4658 131.435 26.4703 131.416 26.47H128.621C128.603 26.4705 128.584 26.466 128.568 26.4569C128.549 26.4441 128.533 26.4276 128.52 26.4083C128.503 26.3815 128.491 26.3516 128.485 26.3204C128.475 26.2762 128.471 26.231 128.472 26.1857C128.471 26.1417 128.475 26.0977 128.485 26.0548C128.491 26.0235 128.502 25.9933 128.516 25.965C128.526 25.9435 128.542 25.9249 128.561 25.9107C128.578 25.8982 128.6 25.8916 128.621 25.892H129.738V21.7622L128.704 22.3888C128.665 22.4119 128.622 22.4289 128.577 22.4393C128.564 22.4424 128.55 22.4423 128.537 22.439C128.524 22.4358 128.512 22.4295 128.502 22.4206C128.478 22.3954 128.464 22.3632 128.461 22.3289C128.454 22.2762 128.451 22.2231 128.452 22.1699C128.45 22.1294 128.45 22.0889 128.452 22.0484C128.455 22.0197 128.461 21.9915 128.47 21.9642C128.479 21.943 128.49 21.9234 128.505 21.9062C128.524 21.8876 128.544 21.8707 128.566 21.8557L129.798 21.0533C129.811 21.0446 129.825 21.0377 129.839 21.0327L129.902 21.0159C129.93 21.0097 129.959 21.006 129.988 21.0047H130.112C130.167 21.0012 130.222 21.0012 130.277 21.0047C130.313 21.0082 130.347 21.0157 130.381 21.0271C130.401 21.0328 130.419 21.0461 130.43 21.0645C130.439 21.0793 130.443 21.0961 130.443 21.1132V25.8864H131.41C131.433 25.8862 131.454 25.8927 131.473 25.9051C131.493 25.9191 131.509 25.9377 131.521 25.9594C131.533 25.9882 131.543 26.0183 131.549 26.0492C131.559 26.094 131.564 26.1397 131.565 26.1857Z" fill="#484848"/>
<path d="M137.097 26.3971C137.097 26.4132 137.092 26.4289 137.083 26.4419C137.068 26.4568 137.05 26.4672 137.029 26.4719C136.996 26.4823 136.961 26.4886 136.926 26.4906C136.872 26.494 136.817 26.494 136.762 26.4906C136.701 26.494 136.639 26.494 136.578 26.4906C136.538 26.4865 136.499 26.479 136.46 26.4681C136.435 26.4617 136.412 26.4488 136.394 26.4307C136.38 26.4155 136.37 26.3977 136.364 26.3784L135.968 25.4001C135.924 25.2874 135.871 25.1785 135.81 25.0747C135.758 24.9895 135.691 24.9147 135.613 24.854C135.537 24.7975 135.451 24.7562 135.36 24.7324C135.253 24.704 135.143 24.6895 135.032 24.6894H134.743V26.3896C134.742 26.4054 134.735 26.4202 134.723 26.4307C134.705 26.4474 134.684 26.4591 134.66 26.4644C134.625 26.4746 134.59 26.4815 134.553 26.485C134.502 26.4882 134.451 26.4882 134.4 26.485C134.35 26.4883 134.299 26.4883 134.248 26.485C134.211 26.4815 134.174 26.4746 134.139 26.4644C134.116 26.46 134.095 26.4481 134.08 26.4307C134.069 26.42 134.062 26.4052 134.062 26.3896V22.5571C134.062 22.5493 134.063 22.5417 134.066 22.5346C134.07 22.5275 134.074 22.5212 134.08 22.516C134.097 22.5012 134.117 22.4903 134.139 22.4842C134.175 22.4756 134.211 22.4694 134.248 22.4655C134.29 22.4655 134.342 22.4655 134.4 22.4655C134.459 22.4655 134.509 22.4655 134.553 22.4655C134.589 22.4694 134.625 22.4756 134.66 22.4842C134.683 22.4913 134.704 22.502 134.723 22.516C134.729 22.5211 134.734 22.5273 134.737 22.5344C134.741 22.5415 134.743 22.5492 134.743 22.5571V24.1395H135.032C135.129 24.1399 135.226 24.1279 135.32 24.1039C135.406 24.0801 135.486 24.0401 135.557 23.9861C135.631 23.9268 135.693 23.8546 135.742 23.7729C135.805 23.6742 135.857 23.5688 135.898 23.4587L136.245 22.5908C136.249 22.5687 136.26 22.5481 136.274 22.5309C136.291 22.512 136.313 22.4978 136.337 22.4898C136.372 22.4768 136.408 22.4686 136.445 22.4655C136.491 22.4655 136.55 22.4655 136.63 22.4655C136.709 22.4655 136.749 22.4655 136.792 22.4655C136.825 22.4691 136.859 22.4753 136.891 22.4842C136.91 22.4904 136.926 22.5014 136.939 22.516C136.947 22.5283 136.951 22.5425 136.952 22.5571C136.952 22.5837 136.948 22.6101 136.941 22.6357C136.932 22.6687 136.922 22.7012 136.91 22.7329L136.56 23.5671C136.512 23.6918 136.45 23.8105 136.375 23.9206C136.319 24.0064 136.254 24.0855 136.18 24.1563C136.12 24.215 136.051 24.2648 135.977 24.3041C135.914 24.3372 135.847 24.3648 135.778 24.3864C135.871 24.4182 135.961 24.4589 136.046 24.508C136.128 24.5572 136.204 24.6169 136.272 24.6856C136.347 24.7604 136.413 24.8439 136.469 24.9344C136.535 25.0408 136.592 25.1528 136.639 25.2692L137.048 26.225C137.058 26.2423 137.066 26.2604 137.074 26.2792C137.079 26.295 137.082 26.3113 137.085 26.3279V26.3653C137.09 26.3754 137.094 26.386 137.097 26.3971Z" fill="#484848"/>
<path d="M140.791 26.3727C140.791 26.3933 140.785 26.4136 140.774 26.4307C140.76 26.4484 140.742 26.462 140.721 26.47C140.688 26.4831 140.653 26.4913 140.618 26.4943C140.562 26.4978 140.507 26.4978 140.452 26.4943C140.395 26.4978 140.339 26.4978 140.282 26.4943C140.247 26.491 140.211 26.4828 140.177 26.47C140.156 26.462 140.137 26.4484 140.122 26.4307C140.111 26.4136 140.105 26.3933 140.106 26.3727V23.0677H139.085C139.041 23.5129 138.988 23.9088 138.927 24.2554C138.873 24.5614 138.804 24.8643 138.718 25.1626C138.654 25.3882 138.566 25.6063 138.457 25.8135C138.374 25.9715 138.267 26.1154 138.14 26.2399C138.035 26.3429 137.909 26.422 137.772 26.4719C137.634 26.5212 137.49 26.5459 137.344 26.5448C137.322 26.5444 137.3 26.54 137.28 26.5317C137.261 26.521 137.246 26.5046 137.237 26.485C137.224 26.4553 137.215 26.4238 137.212 26.3915C137.208 26.3385 137.208 26.2854 137.212 26.2325C137.212 26.167 137.212 26.1109 137.212 26.0697C137.214 26.0354 137.221 26.0014 137.232 25.9687C137.239 25.9481 137.253 25.9304 137.27 25.9182C137.288 25.9095 137.307 25.905 137.326 25.9051C137.416 25.9055 137.505 25.8836 137.585 25.8416C137.678 25.7884 137.757 25.7149 137.818 25.6265C137.901 25.5052 137.969 25.3738 138.02 25.2355C138.093 25.0428 138.151 24.8445 138.193 24.6426C138.247 24.4069 138.295 24.132 138.343 23.8178C138.39 23.5035 138.433 23.1407 138.475 22.7329C138.475 22.6659 138.496 22.6006 138.534 22.5459C138.553 22.5251 138.575 22.5087 138.601 22.498C138.626 22.4873 138.654 22.4826 138.682 22.4842H140.592C140.621 22.4825 140.649 22.4872 140.676 22.4978C140.703 22.5085 140.727 22.5249 140.747 22.5459C140.787 22.599 140.807 22.6658 140.802 22.7329L140.791 26.3727Z" fill="#484848"/>
<path d="M145.114 26.3727C145.114 26.3921 145.109 26.411 145.098 26.427C145.085 26.4454 145.066 26.4591 145.044 26.4663C145.011 26.4773 144.976 26.4848 144.941 26.4887C144.831 26.5012 144.72 26.5012 144.61 26.4887C144.573 26.4848 144.538 26.4772 144.503 26.4663C144.48 26.4601 144.459 26.4463 144.444 26.427C144.433 26.411 144.427 26.3921 144.427 26.3727V24.1975C144.427 24.089 144.427 23.9768 144.427 23.8645C144.427 23.7523 144.438 23.6401 144.448 23.5297C144.383 23.642 144.315 23.7523 144.239 23.8589L144.009 24.1806L142.44 26.3727L142.388 26.4307C142.371 26.448 142.351 26.4614 142.329 26.47C142.301 26.4816 142.271 26.4886 142.241 26.4906C142.197 26.4939 142.152 26.4939 142.108 26.4906C142.058 26.4941 142.009 26.4941 141.959 26.4906C141.927 26.4864 141.897 26.4789 141.867 26.4681C141.846 26.4614 141.829 26.4475 141.817 26.4289C141.808 26.4123 141.803 26.3937 141.802 26.3746V22.5852C141.803 22.5661 141.808 22.5474 141.817 22.5309C141.83 22.5117 141.849 22.4972 141.87 22.4898C141.904 22.4769 141.939 22.4688 141.975 22.4655C142.02 22.4655 142.075 22.4655 142.138 22.4655C142.23 22.4603 142.322 22.4711 142.41 22.4973C142.431 22.5028 142.449 22.5149 142.462 22.5317C142.475 22.5486 142.483 22.5693 142.484 22.5908V24.7792C142.484 24.8876 142.484 24.9961 142.484 25.1027C142.484 25.2094 142.471 25.3178 142.464 25.4244C142.526 25.3178 142.591 25.215 142.648 25.1121C142.705 25.0092 142.782 24.9101 142.856 24.8128L144.457 22.5908C144.472 22.5698 144.489 22.5504 144.508 22.5328C144.528 22.5154 144.55 22.5021 144.575 22.4935C144.604 22.4823 144.635 22.4748 144.667 22.4711C144.704 22.4711 144.75 22.4711 144.809 22.4711C144.868 22.4711 144.916 22.4711 144.954 22.4711C144.987 22.4745 145.019 22.4827 145.05 22.4954C145.07 22.5034 145.088 22.5178 145.1 22.5365C145.11 22.5549 145.115 22.5755 145.114 22.5964V26.3727Z" fill="#484848"/>
<path d="M149.16 26.3971C149.16 26.4132 149.155 26.4289 149.145 26.4419C149.131 26.4568 149.112 26.4672 149.092 26.4719C149.058 26.4823 149.024 26.4886 148.989 26.4906C148.934 26.494 148.879 26.494 148.825 26.4906C148.763 26.494 148.702 26.494 148.641 26.4906C148.601 26.4867 148.561 26.4791 148.523 26.4681C148.498 26.4612 148.475 26.4484 148.456 26.4307C148.443 26.4155 148.433 26.3977 148.427 26.3784L148.031 25.4001C147.987 25.2874 147.934 25.1785 147.872 25.0747C147.82 24.9895 147.754 24.9147 147.675 24.854C147.6 24.7975 147.514 24.7562 147.423 24.7324C147.317 24.7064 147.209 24.6938 147.1 24.695H146.811V26.3952C146.81 26.411 146.803 26.4258 146.791 26.4363C146.773 26.453 146.752 26.4647 146.728 26.47C146.693 26.4802 146.658 26.4871 146.621 26.4906C146.571 26.4938 146.52 26.4938 146.469 26.4906C146.418 26.4938 146.367 26.4938 146.316 26.4906C146.279 26.4871 146.243 26.4802 146.207 26.47C146.184 26.4656 146.164 26.4537 146.148 26.4363C146.137 26.4256 146.13 26.4108 146.13 26.3952V22.5571C146.13 22.5493 146.131 22.5417 146.135 22.5346C146.138 22.5275 146.142 22.5212 146.148 22.516C146.165 22.5012 146.185 22.4903 146.207 22.4842C146.243 22.4756 146.279 22.4694 146.316 22.4655C146.36 22.4655 146.41 22.4655 146.469 22.4655C146.528 22.4655 146.577 22.4655 146.621 22.4655C146.657 22.4694 146.693 22.4756 146.728 22.4842C146.751 22.4913 146.772 22.502 146.791 22.516C146.797 22.5211 146.802 22.5273 146.805 22.5344C146.809 22.5415 146.811 22.5492 146.811 22.5571V24.1395H147.1C147.197 24.1399 147.294 24.1279 147.388 24.1039C147.474 24.0801 147.554 24.0401 147.625 23.9861C147.699 23.9268 147.761 23.8546 147.81 23.7729C147.873 23.6742 147.925 23.5688 147.966 23.4587L148.313 22.5908C148.317 22.5687 148.328 22.5481 148.342 22.5309C148.358 22.512 148.379 22.4978 148.403 22.4898C148.439 22.477 148.476 22.4689 148.513 22.4655C148.559 22.4655 148.618 22.4655 148.698 22.4655C148.777 22.4655 148.819 22.4655 148.862 22.4655C148.895 22.4691 148.928 22.4753 148.961 22.4842C148.979 22.4904 148.996 22.5014 149.009 22.516C149.017 22.5283 149.021 22.5425 149.022 22.5571C149.022 22.5837 149.018 22.6101 149.011 22.6357C149.002 22.6687 148.992 22.7012 148.979 22.7329L148.622 23.5671C148.574 23.6915 148.512 23.81 148.438 23.9206C148.381 24.0061 148.315 24.0851 148.241 24.1563C148.18 24.215 148.112 24.2648 148.038 24.3041C147.974 24.3369 147.908 24.3644 147.839 24.3864C147.932 24.4186 148.021 24.4593 148.106 24.508C148.189 24.5572 148.265 24.6169 148.333 24.6856C148.408 24.7604 148.474 24.8439 148.53 24.9344C148.596 25.0408 148.653 25.1528 148.699 25.2692L149.108 26.225C149.119 26.2423 149.127 26.2604 149.134 26.2792C149.139 26.295 149.143 26.3113 149.145 26.3279V26.3653C149.158 26.3727 149.16 26.3896 149.16 26.3971Z" fill="#484848"/>
<path d="M8.8646 0V4.2851H4.22045V9.0004H0V0H8.8646Z" fill="#7421B0"/>
<path d="M0 18.2907H4.22045V23.0041H8.8646V27.2892H0V18.2907Z" fill="#7421B0"/>
<path d="M18.0148 27.2892V23.0041H22.6571V18.2907H26.8775V27.2892H18.0148Z" fill="#7421B0"/>
<path d="M26.8775 9.0004H22.6571V4.2851H18.0148V0H26.8775V9.0004Z" fill="#7421B0"/>
</g>
<defs>
<clipPath id="clip0_301_204">
<rect width="180" height="28" fill="white"/>
</clipPath>
</defs>
</svg>
