<svg width="2471" height="233" viewBox="0 0 2471 233" fill="none" xmlns="http://www.w3.org/2000/svg">
<path d="M1.18447 1.00018C128.837 84.9055 200.872 141.363 335.219 151.694C469.566 162.025 568.434 128.625 661.279 132.101C754.123 135.578 798.122 159.941 827.221 182.421C856.32 204.901 907.232 227.062 1019.75 231.275C1132.26 235.488 1196.32 214.982 1225.35 197.329C1254.38 179.676 1331.37 143.564 1436.8 147.512C1542.23 151.46 1592.27 194.332 1692.3 195.317C1792.32 196.301 1809.61 144.246 1913.47 148.135C2017.33 152.024 2052.12 183.895 2177.32 188.87C2302.53 193.846 2309.9 155.509 2388.07 134.294C2466.23 113.08 2469.57 143.833 2469.57 143.833" stroke="url(#paint0_linear_9756_95)" stroke-width="2" stroke-linecap="round" stroke-linejoin="round"/>
<defs>
<linearGradient id="paint0_linear_9756_95" x1="1.18447" y1="1.00019" x2="2471.45" y2="93.5002" gradientUnits="userSpaceOnUse">
<stop stop-color="#FF59F8"/>
<stop offset="0.197917" stop-color="#AE72FF"/>
<stop offset="0.40625" stop-color="#90E9ED"/>
<stop offset="0.619792" stop-color="#5CD167"/>
<stop offset="0.825321" stop-color="#FFEE00"/>
</linearGradient>
</defs>
</svg>
